<svg width="20" height="20" viewBox="0 0 20 20" fill="none" xmlns="http://www.w3.org/2000/svg">
<path fill-rule="evenodd" clip-rule="evenodd" d="M17.3372 6.35305L16.8185 5.45298C16.3797 4.69138 15.4073 4.42864 14.6446 4.86564C14.2816 5.07949 13.8484 5.14017 13.4406 5.03428C13.0328 4.92839 12.6838 4.66464 12.4707 4.30118C12.3336 4.07017 12.2599 3.80704 12.2571 3.53841C12.2695 3.10773 12.107 2.69038 11.8067 2.38143C11.5064 2.07249 11.0938 1.89826 10.6629 1.89844H9.61791C9.1958 1.89844 8.79109 2.06664 8.49333 2.36583C8.19557 2.66502 8.02931 3.07053 8.03134 3.49264C8.01883 4.36415 7.30873 5.06405 6.43714 5.06396C6.16851 5.06117 5.90538 4.98749 5.67436 4.85038C4.91172 4.41339 3.93926 4.67612 3.50045 5.43772L2.94362 6.35305C2.50534 7.1137 2.7645 8.08555 3.52333 8.52697C4.01658 8.81174 4.32044 9.33803 4.32044 9.90759C4.32044 10.4771 4.01658 11.0034 3.52333 11.2882C2.76546 11.7267 2.50602 12.6961 2.94362 13.4545L3.46994 14.3622C3.67554 14.7332 4.0205 15.007 4.42849 15.1229C4.83648 15.2389 5.27386 15.1875 5.64385 14.9801C6.00757 14.7678 6.44099 14.7097 6.84778 14.8185C7.25457 14.9274 7.60103 15.1942 7.81013 15.5598C7.94725 15.7908 8.02092 16.0539 8.02371 16.3225C8.02371 17.203 8.73746 17.9167 9.61791 17.9167H10.6629C11.5404 17.9167 12.2529 17.2076 12.2571 16.3302C12.2551 15.9067 12.4224 15.5001 12.7218 15.2006C13.0212 14.9012 13.4279 14.7339 13.8513 14.736C14.1193 14.7431 14.3814 14.8165 14.6141 14.9495C15.3747 15.3878 16.3466 15.1287 16.788 14.3698L17.3372 13.4545C17.5498 13.0896 17.6081 12.6551 17.4993 12.247C17.3905 11.839 17.1235 11.4912 16.7575 11.2806C16.3915 11.07 16.1245 10.7222 16.0157 10.3142C15.9069 9.90613 15.9652 9.47156 16.1778 9.10668C16.316 8.86532 16.5161 8.66521 16.7575 8.52697C17.5118 8.08579 17.7703 7.11962 17.3372 6.36068V6.35305Z" stroke="black" style="stroke:black;stroke-opacity:1;" stroke-width="2" stroke-linecap="round" stroke-linejoin="round"/>
<path d="M10.146 12.1045C11.3593 12.1045 12.3428 11.121 12.3428 9.90773C12.3428 8.69448 11.3593 7.71094 10.146 7.71094C8.93276 7.71094 7.94922 8.69448 7.94922 9.90773C7.94922 11.121 8.93276 12.1045 10.146 12.1045Z" stroke="black" style="stroke:black;stroke-opacity:1;" stroke-width="2" stroke-linecap="round" stroke-linejoin="round"/>
</svg>
