<?xml version="1.0" encoding="UTF-8"?>
<svg width="24px"  height="24px"  viewBox="0 0 24 24" version="1.1" xmlns="http://www.w3.org/2000/svg" xmlns:xlink="http://www.w3.org/1999/xlink">
    <title>Iconly/Bold/Arrow - Right 2</title>
    <g id="Iconly/Bold/Arrow---Right-2" stroke="none" stroke-width="1" fill="none" fill-rule="evenodd">
        <g id="Arrow---Right-2" transform="translate(7.000000, 6.000000)" fill="#000000"  fill-rule="nonzero">
            <path d="M9.63078422,7.131 C9.57428154,7.189 9.36093522,7.437 9.16220166,7.641 C7.99707745,8.924 4.95762299,11.024 3.36678032,11.665 C3.12518266,11.768 2.51436922,11.986 2.18801754,12 C1.87530443,12 1.57720409,11.928 1.29274233,11.782 C0.938139308,11.578 0.653677545,11.257 0.497808086,10.878 C0.397467121,10.615 0.241597662,9.828 0.241597662,9.814 C0.0857282026,8.953 0,7.554 0,6.008 C0,4.535 0.0857282026,3.193 0.213346322,2.319 C0.227959084,2.305 0.383828544,1.327 0.554310765,0.992 C0.867023868,0.38 1.47783731,0 2.13151486,0 L2.18801754,0 C2.613736,0.015 3.5090112,0.395 3.5090112,0.409 C5.01412567,1.051 7.98343887,3.048 9.17681442,4.375 C9.17681442,4.375 9.51290794,4.716 9.65903556,4.929 C9.88699464,5.235 10,5.614 10,5.993 C10,6.416 9.87238188,6.81 9.63078422,7.131"></path>
        </g>
    </g>
</svg>