<?xml version="1.0" encoding="UTF-8"?>
<svg width="24px"  height="24px"  viewBox="0 0 24 24" version="1.1" xmlns="http://www.w3.org/2000/svg" xmlns:xlink="http://www.w3.org/1999/xlink">
    <title>Iconly/Bulk/Upload</title>
    <g id="Iconly/Bulk/Upload" stroke="none" stroke-width="1" fill="none" fill-rule="evenodd">
        <g id="Upload" transform="translate(2.000000, 2.000000)" fill="#000000"  fill-rule="nonzero">
            <path d="M3,7.447 C3,4.996 5.03023915,3 7.52453297,3 L12.4856437,3 C14.9748492,3 17,4.99 17,7.437 L17,18.553 C17,21.005 14.9697608,23 12.4744494,23 L7.51537399,23 C5.02515083,23 3,21.01 3,18.563 L3,17.623 L3,7.447 Z" id="Fill-1" opacity="0.400000006" transform="translate(10.000000, 13.000000) rotate(-90.000000) translate(-10.000000, -13.000000) "></path>
            <path d="M16.3795776,6.0556077 L13.5337878,3.1466077 C13.2396645,2.8466077 12.7663401,2.8466077 12.4731906,3.1486077 C12.1810151,3.4506077 12.181989,3.9376077 12.4751385,4.2376077 L14.0343819,5.8306077 L12.5394171,5.8306077 L4.14910952,5.8306077 C3.73519417,5.8306077 3.3991923,6.1756077 3.3991923,6.6006077 C3.3991923,7.0266077 3.73519417,7.3706077 4.14910952,7.3706077 L14.0343819,7.3706077 L12.4751385,8.9636077 C12.181989,9.2636077 12.1810151,9.7506077 12.4731906,10.0526077 C12.6202523,10.2036077 12.8121143,10.2796077 13.0049501,10.2796077 C13.1958381,10.2796077 13.3877001,10.2036077 13.5337878,10.0546077 L16.3795776,7.1466077 C16.5207958,7.0016077 16.6006571,6.8056077 16.6006571,6.6006077 C16.6006571,6.3966077 16.5207958,6.2006077 16.3795776,6.0556077" id="Fill-3" transform="translate(9.999925, 6.600732) rotate(-90.000000) translate(-9.999925, -6.600732) "></path>
        </g>
    </g>
</svg>