<?xml version="1.0" encoding="UTF-8"?>
<svg width="24px"  height="24px"  viewBox="0 0 24 24" version="1.1" xmlns="http://www.w3.org/2000/svg" xmlns:xlink="http://www.w3.org/1999/xlink">
    <title>Iconly/Bulk/Add User</title>
    <g id="Iconly/Bulk/Add-User" stroke="none" stroke-width="1" fill="none" fill-rule="evenodd">
        <g id="Add-User" transform="translate(2.000000, 2.500000)" fill="#000000"  fill-rule="nonzero">
            <path d="M19.1010274,7.08786248 L17.8979452,7.08786248 L17.8979452,5.9116166 C17.8979452,5.40944608 17.4952055,5 16.9989726,5 C16.5037671,5 16.1,5.40944608 16.1,5.9116166 L16.1,7.08786248 L14.8989726,7.08786248 C14.4027397,7.08786248 14,7.49730856 14,7.99947908 C14,8.50164959 14.4027397,8.91109568 14.8989726,8.91109568 L16.1,8.91109568 L16.1,10.0883834 C16.1,10.5905539 16.5037671,11 16.9989726,11 C17.4952055,11 17.8979452,10.5905539 17.8979452,10.0883834 L17.8979452,8.91109568 L19.1010274,8.91109568 C19.5962329,8.91109568 20,8.50164959 20,7.99947908 C20,7.49730856 19.5962329,7.08786248 19.1010274,7.08786248" id="Fill-1" opacity="0.400000006"></path>
            <path d="M7.5,12.5155037 C3.45422394,12.5155037 0,13.1623312 0,15.7465996 C0,18.3298543 3.43320432,19 7.5,19 C11.5447751,19 15,18.3531725 15,15.768904 C15,13.1846356 11.5667957,12.5155037 7.5,12.5155037" id="Fill-4"></path>
            <path d="M7.5,10.0542136 C10.2545709,10.0542136 12.4626318,7.81769091 12.4626318,5.0276137 C12.4626318,2.23753648 10.2545709,-7.99360578e-15 7.5,-7.99360578e-15 C4.74542907,-7.99360578e-15 2.53736821,2.23753648 2.53736821,5.0276137 C2.53736821,7.81769091 4.74542907,10.0542136 7.5,10.0542136" id="Fill-7" opacity="0.400000006"></path>
        </g>
    </g>
</svg>