<?xml version="1.0" encoding="UTF-8"?>
<svg width="24px"  height="24px"  viewBox="0 0 24 24" version="1.1" xmlns="http://www.w3.org/2000/svg" xmlns:xlink="http://www.w3.org/1999/xlink">
    <title>Iconly/Light/Volume Off</title>
    <g id="Iconly/Light/Volume-Off" stroke="#000000"  stroke-width="1.5"  fill="none" fill-rule="evenodd" stroke-linecap="round" stroke-linejoin="round">
        <g id="Volume-Off" transform="translate(3.999822, 4.000000)" stroke="#000000"  stroke-width="1.5" >
            <path d="M10.5330662,5.46705539 L3.71375303,12.2868805 C3.53650686,12.1842566 3.36858943,12.1189504 3.2193295,12.109621 C1.92263383,12.0163265 1.41888155,12.1655977 0.709896866,11.5591837 C-0.0550602935,10.9061224 0.000912181576,9.16151603 0.000912181576,7.88338192 C0.000912181576,6.60524781 -0.0550602935,4.8606414 0.709896866,4.20758017 C1.41888155,3.60116618 1.92263383,3.75976676 3.2193295,3.65714286 C4.51602517,3.55451895 7.25867645,-0.401166181 9.37630176,0.848979592 C10.2345464,1.54868805 10.467765,2.8548105 10.5330662,5.46705539 Z" id="Stroke-1"></path>
            <path d="M10.5330662,9.91720117 C10.4957513,12.7906706 10.2718614,14.1900875 9.37630176,14.9177843 C8.39678344,15.4962099 7.28666269,14.9644315 6.24184315,14.2087464" id="Stroke-3"></path>
            <polyline id="Stroke-5" points="0.00137861887 16 3.71421946 12.2868805 10.5335327 5.46705539 16.0001777 0"></polyline>
        </g>
    </g>
</svg>