<?xml version="1.0" encoding="UTF-8"?>
<svg width="24px"  height="24px"  viewBox="0 0 24 24" version="1.1" xmlns="http://www.w3.org/2000/svg" xmlns:xlink="http://www.w3.org/1999/xlink">
    <title>Iconly/Bold/Arrow - Right</title>
    <g id="Iconly/Bold/Arrow---Right" stroke="none" stroke-width="1" fill="none" fill-rule="evenodd">
        <g id="Arrow---Right" transform="translate(3.000000, 6.000000)" fill="#000000"  fill-rule="nonzero">
            <path d="M7.83655568,6.36070466 L7.8350323,6.00660914 C7.8350323,4.53497338 7.92121308,3.19331742 8.05102968,2.31870755 L8.16475558,1.77483018 C8.22802754,1.48678171 8.31120835,1.15880301 8.39793457,0.991371397 C8.71538527,0.378924178 9.33610502,0 10.0004606,0 L10.0582781,0 C10.4913637,0.0143198091 11.4011709,0.394345511 11.4011709,0.407563797 C12.8651531,1.02183092 15.6895424,2.87571834 16.9940026,4.19738844 L17.3730714,4.59418673 C17.4723361,4.70172939 17.5838596,4.82900679 17.6530951,4.92821737 C17.884365,5.23444098 18,5.61336516 18,5.99228933 C18,6.41527446 17.8701834,6.80851845 17.6247318,7.13016339 L17.2352725,7.55047018 L17.2352725,7.55047018 L17.1480103,7.6401689 C15.9643883,8.9234441 12.8738803,11.0218469 11.2571726,11.6640352 L11.0130847,11.7575787 C10.719361,11.8628603 10.3078205,11.988434 10.0582781,12 C9.74082738,12 9.43755833,11.9261979 9.14847093,11.7807968 C8.7873844,11.5770149 8.49938789,11.2553699 8.34011709,10.8764457 C8.23866377,10.6142831 8.07939298,9.82669359 8.07939298,9.81237378 C7.93338076,9.01825987 7.84871691,7.76518207 7.83655568,6.36070466 Z M1.77635684e-15,5.99955939 C1.77635684e-15,5.1612998 0.673082751,4.48165963 1.50325451,4.48165963 L5.20248239,4.80881219 C5.85374723,4.80881219 6.38174083,5.3419497 6.38174083,5.99955939 C6.38174083,6.65827061 5.85374723,7.19030659 5.20248239,7.19030659 L1.50325451,7.51745915 C0.673082751,7.51745915 1.77635684e-15,6.83781898 1.77635684e-15,5.99955939 Z"></path>
        </g>
    </g>
</svg>