<?xml version="1.0" encoding="UTF-8"?>
<svg width="24px"  height="24px"  viewBox="0 0 24 24" version="1.1" xmlns="http://www.w3.org/2000/svg" xmlns:xlink="http://www.w3.org/1999/xlink">
    <title>Iconly/Bold/Arrow - Left 3</title>
    <g id="Iconly/Bold/Arrow---Left-3" stroke="none" stroke-width="1" fill="none" fill-rule="evenodd">
        <g id="Arrow---Left-3" transform="translate(3.000000, 6.500000)" fill="#000000"  fill-rule="nonzero">
            <path d="M8.85852597,10.910103 C9.09252108,10.7838647 9.23840087,10.5438206 9.23840087,10.2827368 L9.23840087,6.21728876 L17.2657057,6.21728876 C17.6710362,6.21728876 18,5.89595483 18,5.50002553 C18,5.10409622 17.6710362,4.7827623 17.2657057,4.7827623 L9.23840087,4.7827623 L9.23840087,0.717314292 C9.23840087,0.455274124 9.09252108,0.215230029 8.85852597,0.0899480509 C8.62453087,-0.037246629 8.33864564,-0.0286394702 8.112483,0.110031421 L0.342670655,4.89274266 C0.12923579,5.02471909 0,5.25328698 0,5.50002553 C0,5.74676408 0.12923579,5.97533197 0.342670655,6.1073084 L8.112483,10.8900196 C8.2319282,10.9627023 8.36801741,11 8.50410661,11 C8.62550993,11 8.7478923,10.9693968 8.85852597,10.910103"></path>
        </g>
    </g>
</svg>