<?xml version="1.0" encoding="UTF-8"?>
<svg width="24px"  height="24px"  viewBox="0 0 24 24" version="1.1" xmlns="http://www.w3.org/2000/svg" xmlns:xlink="http://www.w3.org/1999/xlink">
    <title>Iconly/Two-tone/Category</title>
    <g id="Iconly/Two-tone/Category" stroke="#000000"  stroke-width="1.5"  fill="none" fill-rule="evenodd" stroke-linecap="round" stroke-linejoin="round">
        <g id="Category" transform="translate(2.999141, 3.000000)" stroke="#000000"  stroke-width="1.5" >
            <path d="M0.000858865205,3.5 C0.000858865205,0.874787053 0.0289681101,0 3.50085887,0 C6.9727494,0 7.00085887,0.874787053 7.00085887,3.5 C7.00085887,6.12521295 7.01193168,7 3.50085887,7 C-0.010214169,7 0.000858865205,6.12521295 0.000858865205,3.5 Z" id="Stroke-1"></path>
            <path d="M11.0008589,3.5 C11.0008589,0.874787053 11.0289681,0 14.5008589,0 C17.9727494,0 18.0008589,0.874787053 18.0008589,3.5 C18.0008589,6.12521295 18.0119317,7 14.5008589,7 C10.9897858,7 11.0008589,6.12521295 11.0008589,3.5 Z" id="Stroke-3" opacity="0.400000006"></path>
            <path d="M0.000858865205,14.5 C0.000858865205,11.8747871 0.0289681101,11 3.50085887,11 C6.9727494,11 7.00085887,11.8747871 7.00085887,14.5 C7.00085887,17.1252129 7.01193168,18 3.50085887,18 C-0.010214169,18 0.000858865205,17.1252129 0.000858865205,14.5 Z" id="Stroke-5"></path>
            <path d="M11.0008589,14.5 C11.0008589,11.8747871 11.0289681,11 14.5008589,11 C17.9727494,11 18.0008589,11.8747871 18.0008589,14.5 C18.0008589,17.1252129 18.0119317,18 14.5008589,18 C10.9897858,18 11.0008589,17.1252129 11.0008589,14.5 Z" id="Stroke-7"></path>
        </g>
    </g>
</svg>