<?xml version="1.0" encoding="UTF-8"?>
<svg width="24px"  height="24px"  viewBox="0 0 24 24" version="1.1" xmlns="http://www.w3.org/2000/svg" xmlns:xlink="http://www.w3.org/1999/xlink">
    <title>Iconly/Bold/Filter</title>
    <g id="Iconly/Bold/Filter" stroke="none" stroke-width="1" fill="none" fill-rule="evenodd">
        <g id="Filter" transform="translate(2.000000, 3.000000)" fill="#000000"  fill-rule="nonzero">
            <path d="M16.5611302,11.0195652 C18.4611197,11.0195652 20,12.532549 20,14.3992173 C20,16.264794 18.4611197,17.7777778 16.5611302,17.7777778 C14.6622519,17.7777778 13.1222604,16.264794 13.1222604,14.3992173 C13.1222604,12.532549 14.6622519,11.0195652 16.5611302,11.0195652 Z M8.08328843,12.9579529 C8.91550602,12.9579529 9.59105783,13.6216572 9.59105783,14.4392797 C9.59105783,15.2558107 8.91550602,15.9206066 8.08328843,15.9206066 L8.08328843,15.9206066 L1.5077694,15.9206066 C0.675551802,15.9206066 -1.59872116e-14,15.2558107 -1.59872116e-14,14.4392797 C-1.59872116e-14,13.6216572 0.675551802,12.9579529 1.5077694,12.9579529 L1.5077694,12.9579529 Z M3.43886978,1.9095836e-14 C5.33885923,1.9095836e-14 6.87773957,1.51298378 6.87773957,3.37856047 C6.87773957,5.24522877 5.33885923,6.75821256 3.43886978,6.75821256 C1.53999144,6.75821256 1.37667655e-14,5.24522877 1.37667655e-14,3.37856047 C1.37667655e-14,1.51298378 1.53999144,1.9095836e-14 3.43886978,1.9095836e-14 Z M18.4933417,1.89832525 C19.3244482,1.89832525 20,2.56202954 20,3.37856047 C20,4.19618302 19.3244482,4.8598873 18.4933417,4.8598873 L18.4933417,4.8598873 L11.9178227,4.8598873 C11.0856051,4.8598873 10.4100533,4.19618302 10.4100533,3.37856047 C10.4100533,2.56202954 11.0856051,1.89832525 11.9178227,1.89832525 L11.9178227,1.89832525 Z"></path>
        </g>
    </g>
</svg>