<?xml version="1.0" encoding="UTF-8"?>
<svg width="24px"  height="24px"  viewBox="0 0 24 24" version="1.1" xmlns="http://www.w3.org/2000/svg" xmlns:xlink="http://www.w3.org/1999/xlink">
    <title>Iconly/Bold/Ticket</title>
    <g id="Iconly/Bold/Ticket" stroke="none" stroke-width="1" fill="none" fill-rule="evenodd">
        <g id="Ticket" transform="translate(2.000000, 4.000000)" fill="#000000"  fill-rule="nonzero">
            <path d="M10.4361702,0 C10.7611219,0 11.0251451,0.25648855 11.0251451,0.573106283 L11.0251451,0.573106283 L11.0251451,2.97827363 C11.0251451,3.36347622 11.3539652,3.68291251 11.7504836,3.68291251 C12.1566731,3.68291251 12.4758221,3.36347622 12.4758221,2.97827363 L12.4758221,2.97827363 L12.4758221,0.573106283 C12.4758221,0.25648855 12.7398453,0 13.065764,0 L13.065764,0 L16.2185687,0 C18.3075435,0 20,1.64415737 20,3.67351732 L20,3.67351732 L20,6.04110393 C20,6.22900763 19.9226306,6.40751615 19.787234,6.53904874 C19.6518375,6.67058133 19.4680851,6.74574281 19.2746615,6.74574281 C18.5589942,6.74574281 17.9787234,7.3094539 17.9787234,7.99530241 C17.9787234,8.6858485 18.5522244,9.24674105 19.2611219,9.25425719 C19.6605416,9.25801527 20,9.52859659 20,9.91661773 L20,9.91661773 L20,12.3264827 C20,14.3549031 18.3075435,16 16.2185687,16 L16.2185687,16 L13.065764,16 C12.7398453,16 12.4758221,15.7435115 12.4758221,15.4268937 L12.4758221,15.4268937 L12.4758221,13.3975338 C12.4758221,13.002936 12.1566731,12.6928949 11.7504836,12.6928949 C11.3539652,12.6928949 11.0251451,13.002936 11.0251451,13.3975338 L11.0251451,13.3975338 L11.0251451,15.4268937 C11.0251451,15.7435115 10.7611219,16 10.4361702,16 L10.4361702,16 L3.78143133,16 C1.70212766,16 0,14.3558426 0,12.3264827 L0,12.3264827 L0,9.91661773 C0,9.52859659 0.339458414,9.25801527 0.738878143,9.25425719 C1.44874275,9.24674105 2.0212766,8.6858485 2.0212766,7.99530241 C2.0212766,7.32824427 1.46034816,6.82090429 0.725338491,6.82090429 C0.531914894,6.82090429 0.348162476,6.74574281 0.212765957,6.61421022 C0.0773694391,6.48267763 0,6.30416911 0,6.11626541 L0,6.11626541 L0,3.68291251 C0,1.65731063 1.70599613,0 3.79110251,0 L3.79110251,0 Z M11.7504836,5.70287728 C11.3539652,5.70287728 11.0251451,6.02231356 11.0251451,6.40751615 L11.0251451,6.40751615 L11.0251451,10.1655901 C11.0251451,10.5507927 11.3539652,10.870229 11.7504836,10.870229 C12.1566731,10.870229 12.4758221,10.5507927 12.4758221,10.1655901 L12.4758221,10.1655901 L12.4758221,6.40751615 C12.4758221,6.02231356 12.1566731,5.70287728 11.7504836,5.70287728 Z"></path>
        </g>
    </g>
</svg>