<?xml version="1.0" encoding="UTF-8"?>
<svg width="24px"  height="24px"  viewBox="0 0 24 24" version="1.1" xmlns="http://www.w3.org/2000/svg" xmlns:xlink="http://www.w3.org/1999/xlink">
    <title>Iconly/Bulk/3 User</title>
    <g id="Iconly/Bulk/3-User" stroke="none" stroke-width="1" fill="none" fill-rule="evenodd">
        <g id="3-User" transform="translate(1.000000, 4.000000)" fill="#000000"  fill-rule="nonzero">
            <path d="M10.9490292,10.5399284 C7.49904253,10.5399284 4.58808829,11.1036765 4.58808829,13.27942 C4.58808829,15.4560641 7.51784599,16 10.9490292,16 C14.3990159,16 17.3099701,15.4362519 17.3099701,13.2605084 C17.3099701,11.0838643 14.3802124,10.5399284 10.9490292,10.5399284" id="Fill-1"></path>
            <path d="M10.9490292,8.46702839 C13.2851349,8.46702839 15.1583174,6.58306504 15.1583174,4.2335142 C15.1583174,1.88306279 13.2851349,7.10542736e-15 10.9490292,7.10542736e-15 C8.61292351,7.10542736e-15 6.73974103,1.88306279 6.73974103,4.2335142 C6.73974103,6.58306504 8.61292351,8.46702839 10.9490292,8.46702839" id="Fill-3" opacity="0.400000006"></path>
            <path d="M20.087957,5.21926289 C20.6923539,2.84179481 18.9203519,0.706576311 16.663937,0.706576311 C16.4185967,0.706576311 16.1840012,0.733592994 15.9547781,0.779521354 C15.9243344,0.786725803 15.8903091,0.802035257 15.872401,0.82905194 C15.8518068,0.863273071 15.8670286,0.909201432 15.8894137,0.938919783 C16.5672336,1.89531035 16.9567337,3.05972938 16.9567337,4.30970124 C16.9567337,5.50744084 16.599468,6.6241304 15.9726861,7.55080262 C15.9082172,7.64626157 15.9655229,7.77504109 16.0792391,7.79485332 C16.2368299,7.82277056 16.3980024,7.83717946 16.5627565,7.84168224 C18.2058205,7.88490893 19.6805488,6.82135218 20.087957,5.21926289" id="Fill-6" opacity="0.400000006"></path>
            <path d="M21.8092792,10.8169395 C21.5084239,10.1721413 20.7822523,9.72996826 19.6782208,9.51293424 C19.1570964,9.38505527 17.7468371,9.20494405 16.4350721,9.22925907 C16.4153733,9.23196074 16.4046284,9.24546908 16.4028376,9.25447464 C16.4001514,9.26708242 16.4055238,9.28869577 16.4314905,9.30220411 C17.0376781,9.6038904 19.3809471,10.9160006 19.0863596,13.6834095 C19.0738239,13.8031835 19.169632,13.9067474 19.2887206,13.8887363 C19.8653599,13.8058851 21.3490422,13.4852872 21.8092792,12.4865705 C22.0635736,11.9588446 22.0635736,11.3455659 21.8092792,10.8169395" id="Fill-8"></path>
            <path d="M6.04481898,0.779791521 C5.81649128,0.732962604 5.58100037,0.706846478 5.33566002,0.706846478 C3.07924518,0.706846478 1.3072432,2.84206498 1.91253543,5.21953306 C2.31904827,6.82162235 3.79377654,7.8851791 5.43684053,7.84195241 C5.60159463,7.83744963 5.76366252,7.82214017 5.920358,7.79512349 C6.03407414,7.77531125 6.09137992,7.64653173 6.02691092,7.55107279 C5.40012902,6.62350001 5.04286334,5.50771101 5.04286334,4.30997141 C5.04286334,3.05909899 5.43325892,1.89467996 6.11107878,0.93918995 C6.13256844,0.909471599 6.14868569,0.863543238 6.12719603,0.829322106 C6.10928797,0.801404868 6.07615807,0.78699597 6.04481898,0.779791521" id="Fill-11" opacity="0.400000006"></path>
            <path d="M2.3215554,9.51266407 C1.21752385,9.72969809 0.492247644,10.1718711 0.191392331,10.8166693 C-0.0637974436,11.3452957 -0.0637974436,11.9585744 0.191392331,12.4872008 C0.651629328,13.485017 2.13531163,13.8065155 2.71195098,13.8884661 C2.83103954,13.9064772 2.92595223,13.8038139 2.91341659,13.6831393 C2.6188291,10.916631 4.96209801,9.60452079 5.56918105,9.3028345 C5.59425233,9.2884256 5.59962474,9.26771281 5.59693854,9.25420447 C5.59514773,9.24519891 5.5852983,9.23169057 5.56559944,9.22988946 C4.25293906,9.20467389 2.84357518,9.3847851 2.3215554,9.51266407" id="Fill-13"></path>
        </g>
    </g>
</svg>