<?xml version="1.0" encoding="UTF-8"?>
<svg width="24px"  height="24px"  viewBox="0 0 24 24" version="1.1" xmlns="http://www.w3.org/2000/svg" xmlns:xlink="http://www.w3.org/1999/xlink">
    <title>Iconly/Bold/Discount</title>
    <g id="Iconly/Bold/Discount" stroke="none" stroke-width="1" fill="none" fill-rule="evenodd">
        <g id="Discount" transform="translate(1.999884, 2.000622)" fill="#000000"  fill-rule="nonzero">
            <path d="M7.86536696,0.885378233 C9.0357912,-0.293621767 10.9464838,-0.293621767 12.1269116,0.876378233 L12.1269116,0.876378233 L12.8571763,1.60537823 C13.1372778,1.88537823 13.5174156,2.04637823 13.9175607,2.04637823 L13.9175607,2.04637823 L14.9479342,2.04637823 C16.6085361,2.04637823 17.9590256,3.39537823 17.9590256,5.05537823 L17.9590256,5.05537823 L17.9590256,6.08637823 C17.9590256,6.48537823 18.1190836,6.86537823 18.3991851,7.14537823 L18.3991851,7.14537823 L19.1194462,7.86537823 C19.6896529,8.42537823 19.9997653,9.18537823 19.9997653,9.98537823 C20.0097689,10.7853782 19.6996565,11.5463782 19.1394534,12.1153782 L19.1394534,12.1153782 L18.3991851,12.8553782 C18.1190836,13.1353782 17.9590256,13.5153782 17.9590256,13.9163782 L17.9590256,13.9163782 L17.9590256,14.9453782 C17.9590256,16.6053782 16.6085361,17.9563782 14.9479342,17.9563782 L14.9479342,17.9563782 L13.9175607,17.9563782 C13.5174156,17.9563782 13.1372778,18.1153782 12.8571763,18.3953782 L12.8571763,18.3953782 L12.1369153,19.1153782 C11.5467013,19.7063782 10.7764221,19.9953782 10.0061429,19.9953782 C9.23586372,19.9953782 8.46558452,19.7063782 7.87537058,19.1263782 L7.87537058,19.1263782 L7.14510589,18.3953782 C6.86500436,18.1153782 6.48486657,17.9563782 6.08472153,17.9563782 L6.08472153,17.9563782 L5.05434806,17.9563782 C3.39374615,17.9563782 2.04325664,16.6053782 2.04325664,14.9453782 L2.04325664,14.9453782 L2.04325664,13.9163782 C2.04325664,13.5153782 1.88319862,13.1353782 1.60309709,12.8453782 L1.60309709,12.8453782 L0.882836024,12.1353782 C-0.287588216,10.9663782 -0.297591842,9.05537823 0.872832398,7.87637823 L0.872832398,7.87637823 L1.60309709,7.14537823 C1.88319862,6.86537823 2.04325664,6.48537823 2.04325664,6.07537823 L2.04325664,6.07537823 L2.04325664,5.05537823 C2.04325664,3.39537823 3.39374615,2.04637823 5.05434806,2.04637823 L5.05434806,2.04637823 L6.08472153,2.04637823 C6.48486657,2.04637823 6.86500436,1.88537823 7.14510589,1.60537823 L7.14510589,1.60537823 Z M12.5770748,11.6953782 C12.0868971,11.6953782 11.6967557,12.0863782 11.6967557,12.5653782 C11.6967557,13.0553782 12.0868971,13.4453782 12.5770748,13.4453782 C13.0572488,13.4453782 13.4473903,13.0553782 13.4473903,12.5653782 C13.4473903,12.0863782 13.0572488,11.6953782 12.5770748,11.6953782 Z M13.187296,6.80537823 C12.8471727,6.46637823 12.2969733,6.46637823 11.95685,6.80537823 L11.95685,6.80537823 L6.81498623,11.9453782 C6.47486295,12.2853782 6.47486295,12.8453782 6.81498623,13.1853782 C6.97504425,13.3553782 7.19512402,13.4453782 7.42520742,13.4453782 C7.66529444,13.4453782 7.88537421,13.3553782 8.04543223,13.1853782 L8.04543223,13.1853782 L13.187296,8.04637823 C13.5274193,7.70637823 13.5274193,7.14537823 13.187296,6.80537823 Z M7.43521104,6.55537823 C6.95503699,6.55537823 6.55489195,6.94537823 6.55489195,7.42537823 C6.55489195,7.91637823 6.95503699,8.30537823 7.43521104,8.30537823 C7.91538509,8.30537823 8.3055265,7.91637823 8.3055265,7.42537823 C8.3055265,6.94537823 7.91538509,6.55537823 7.43521104,6.55537823 Z"></path>
        </g>
    </g>
</svg>