<?xml version="1.0" encoding="UTF-8"?>
<svg width="24px"  height="24px"  viewBox="0 0 24 24" version="1.1" xmlns="http://www.w3.org/2000/svg" xmlns:xlink="http://www.w3.org/1999/xlink">
    <title>Iconly/Two-tone/Video</title>
    <g id="Iconly/Two-tone/Video" stroke="#000000"  stroke-width="2"  fill="none" fill-rule="evenodd" stroke-linecap="round" stroke-linejoin="round">
        <g id="Video" transform="translate(2.300000, 5.000000)" stroke="#000000"  stroke-width="2" >
            <path d="M13.9968329,10.5383104 C14.0777257,12.3703766 12.599129,13.9196009 10.6945655,13.9974564 C10.5542831,14.0033694 3.71526168,13.9895723 3.71526168,13.9895723 C1.81991377,14.133457 0.161100366,12.7714799 0.0116023677,10.9463123 C0.000338819853,10.8103117 0.00341069653,3.47219182 0.00341069653,3.47219182 C-0.0805539327,1.63815461 1.39599479,0.0849882318 3.30158229,0.00417627553 C3.44391258,-0.00272230611 10.2737184,0.0100893455 10.2737184,0.0100893455 C12.1782819,-0.131824334 13.8422151,1.2400079 13.9896652,3.0740451 C14,3.20610367 13.9968329,10.5383104 13.9968329,10.5383104 Z" id="Stroke-1"></path>
            <path d="M14,4.97983717 L17.293,2.28483717 C18.109,1.61683717 19.333,2.19883717 19.3320006,3.25183717 L19.32,10.6008372 C19.319,11.6538372 18.094,12.2308372 17.28,11.5628372 L14,8.86783717" id="Stroke-3" opacity="0.400000006"></path>
        </g>
    </g>
</svg>