<?xml version="1.0" encoding="UTF-8"?>
<svg width="24px"  height="24px"  viewBox="0 0 24 24" version="1.1" xmlns="http://www.w3.org/2000/svg" xmlns:xlink="http://www.w3.org/1999/xlink">
    <title>Iconly/Bold/Download</title>
    <g id="Iconly/Bold/Download" stroke="none" stroke-width="1" fill="none" fill-rule="evenodd">
        <g id="Download" transform="translate(2.000000, 2.500000)" fill="#000000"  fill-rule="nonzero">
            <path d="M9.2301,4.79052152 L9.2301,0.78150457 C9.2301,0.35522935 9.5701,0 10.0001,0 C10.3851,0 10.7112806,0.298491329 10.7629704,0.676580345 L10.7701,0.78150457 L10.7701,4.79052152 L15.55,4.790826 C17.93,4.790826 19.8853469,6.73978247 19.9951382,9.17040962 L20,9.3860894 L20,14.4253895 C20,16.8730495 18.1126531,18.8821943 15.7680289,18.9950045 L15.56,19 L4.44,19 C2.06,19 0.114089796,17.0607883 0.00483778426,14.6212517 L0,14.4047366 L0,9.37576296 C0,6.92810292 1.8779102,4.90921331 4.2219951,4.79584627 L4.43,4.790826 L9.23,4.790826 L9.23,11.1932154 L7.63,9.54098591 C7.33,9.23119288 6.84,9.23119288 6.54,9.54098591 C6.39,9.69588243 6.32,9.90241112 6.32,10.1089398 C6.32,10.2659016 6.3648,10.4294723 6.45952,10.5679292 L6.54,10.6665673 L9.45,13.6818862 C9.59,13.8367827 9.79,13.9193942 10,13.9193942 C10.1666667,13.9193942 10.3333333,13.8620251 10.4652778,13.7532629 L10.54,13.6818862 L13.45,10.6665673 C13.75,10.3567742 13.75,9.85077895 13.45,9.54098591 C13.1772727,9.25935588 12.7475207,9.23375315 12.4462434,9.46417772 L12.36,9.54098591 L10.77,11.1932154 L10.77,4.790826 L9.2301,4.79052152 Z"></path>
        </g>
    </g>
</svg>