<?xml version="1.0" encoding="UTF-8"?>
<svg width="24px"  height="24px"  viewBox="0 0 24 24" version="1.1" xmlns="http://www.w3.org/2000/svg" xmlns:xlink="http://www.w3.org/1999/xlink">
    <title>Iconly/Bold/Arrow - Up 2</title>
    <g id="Iconly/Bold/Arrow---Up-2" stroke="none" stroke-width="1" fill="none" fill-rule="evenodd">
        <g id="Arrow---Up-2" transform="translate(6.000000, 7.000000)" fill="#000000"  fill-rule="nonzero">
            <path d="M7.131,0.369215782 C7.189,0.425718461 7.437,0.639064783 7.641,0.837798344 C8.924,2.00292255 11.024,5.04237701 11.665,6.63321968 C11.768,6.87481734 11.986,7.48563078 12,7.81198246 C12,8.12469557 11.928,8.42279591 11.782,8.70725767 C11.578,9.06186069 11.257,9.34632245 10.878,9.50219191 C10.615,9.60253288 9.828,9.75840234 9.814,9.75840234 C8.953,9.9142718 7.554,10 6.008,10 C4.535,10 3.193,9.9142718 2.319,9.78665368 C2.305,9.77204092 1.327,9.61617146 0.992,9.44568924 C0.38,9.13297613 0,8.52216269 0,7.86848514 L0,7.81198246 C0.015,7.386264 0.395,6.4909888 0.409,6.4909888 C1.051,4.98587433 3.048,2.01656113 4.375,0.823185582 C4.375,0.823185582 4.716,0.48709206 4.929,0.340964442 C5.235,0.113005358 5.614,0 5.993,0 C6.416,0 6.81,0.12761812 7.131,0.369215782"></path>
        </g>
    </g>
</svg>