<svg width="24px"  height="24px"  viewBox="0 0 24 24" fill="none" xmlns="http://www.w3.org/2000/svg">
<path fill-rule="evenodd" clip-rule="evenodd" d="M13.9839 20H10.0209C9.46787 20 9.02087 20.447 9.02087 21C9.02087 21.553 9.46787 22 10.0209 22H13.9839C14.5369 22 14.9839 21.553 14.9839 21C14.9839 20.447 14.5369 20 13.9839 20Z" fill="#000000" />
<path fill-rule="evenodd" clip-rule="evenodd" d="M13.9839 2H10.0209C9.46787 2 9.02087 2.447 9.02087 3C9.02087 3.553 9.46787 4 10.0209 4H13.9839C14.5369 4 14.9839 3.553 14.9839 3C14.9839 2.447 14.5369 2 13.9839 2Z" fill="#000000" />
<path fill-rule="evenodd" clip-rule="evenodd" d="M3.00049 14.9806C3.55349 14.9806 4.00049 14.5336 4.00049 13.9806V10.0186C4.00049 9.46555 3.55349 9.01855 3.00049 9.01855C2.44749 9.01855 2.00049 9.46555 2.00049 10.0186V13.9806C2.00049 14.5336 2.44749 14.9806 3.00049 14.9806Z" fill="#000000" />
<path fill-rule="evenodd" clip-rule="evenodd" d="M6.95861 2.02729C4.30561 2.33729 2.41961 4.22529 2.03761 6.95729C1.96161 7.50429 2.34261 8.00929 2.88961 8.08629C2.93661 8.09229 2.98261 8.09529 3.02861 8.09529C3.52061 8.09529 3.94761 7.73429 4.01861 7.23429C4.27561 5.39229 5.43261 4.21829 7.19061 4.01329C7.73861 3.95029 8.13261 3.45329 8.06761 2.90429C8.00461 2.35629 7.52561 1.96029 6.95861 2.02729Z" fill="#000000" />
<path fill-rule="evenodd" clip-rule="evenodd" d="M7.19099 19.9873C5.43099 19.7813 4.27499 18.6103 4.01799 16.7753C3.94099 16.2283 3.43599 15.8433 2.88899 15.9243C2.34199 16.0003 1.96199 16.5063 2.03799 17.0523C2.41899 19.7773 4.30399 21.6633 6.95899 21.9733C6.99799 21.9783 7.03799 21.9803 7.07599 21.9803C7.57699 21.9803 8.00799 21.6053 8.06799 21.0963C8.13199 20.5483 7.74 20.0513 7.19099 19.9873Z" fill="#000000" />
<path fill-rule="evenodd" clip-rule="evenodd" d="M20.9996 9.01862C20.4466 9.01862 19.9996 9.46562 19.9996 10.0186V13.9806C19.9996 14.5336 20.4466 14.9806 20.9996 14.9806C21.5526 14.9806 21.9996 14.5336 21.9996 13.9806V10.0186C21.9996 9.46562 21.5526 9.01862 20.9996 9.01862Z" fill="#000000" />
<path fill-rule="evenodd" clip-rule="evenodd" d="M21.067 15.9238C20.516 15.8458 20.015 16.2288 19.939 16.7768C19.683 18.6118 18.531 19.7818 16.778 19.9868C16.229 20.0518 15.837 20.5478 15.901 21.0968C15.961 21.6058 16.392 21.9808 16.893 21.9808C16.931 21.9808 16.971 21.9788 17.01 21.9738C19.659 21.6638 21.54 19.7778 21.92 17.0518C21.996 16.5048 21.615 15.9998 21.067 15.9238Z" fill="#000000" />
<path fill-rule="evenodd" clip-rule="evenodd" d="M16.7779 4.01372C18.5299 4.21772 19.6819 5.39172 19.9389 7.23372C20.0079 7.73472 20.4369 8.09572 20.9279 8.09572C20.9739 8.09572 21.0199 8.09272 21.0669 8.08572C21.6149 8.00972 21.9959 7.50472 21.9199 6.95772C21.5389 4.22572 19.6569 2.33572 17.0099 2.02772C16.4489 1.96072 15.9659 2.35672 15.9009 2.90472C15.8369 3.45272 16.2299 3.95072 16.7779 4.01372Z" fill="#000000" />
<path fill-rule="evenodd" clip-rule="evenodd" d="M11.0005 15.7012C11.0005 16.2542 11.4475 16.7012 12.0005 16.7012C12.5535 16.7012 13.0005 16.2542 13.0005 15.7012V11.3922C13.0005 10.8402 12.5535 10.3922 12.0005 10.3922C11.4475 10.3922 11.0005 10.8402 11.0005 11.3922V15.7012Z" fill="#000000" />
<path fill-rule="evenodd" clip-rule="evenodd" d="M12.0005 9.32323C12.5535 9.32323 13.0005 8.85223 13.0005 8.30023C13.0005 7.74723 12.5535 7.30023 12.0005 7.30023C11.4475 7.30023 11.0005 7.74723 11.0005 8.30023V8.34723C11.0005 8.90023 11.4475 9.32323 12.0005 9.32323Z" fill="#000000" />
</svg>