<?xml version="1.0" encoding="UTF-8"?>
<svg width="24px"  height="24px"  viewBox="0 0 24 24" version="1.1" xmlns="http://www.w3.org/2000/svg" xmlns:xlink="http://www.w3.org/1999/xlink">
    <title>Iconly/Bulk/Edit</title>
    <g id="Iconly/Bulk/Edit" stroke="none" stroke-width="1" fill="none" fill-rule="evenodd">
        <g id="Edit" transform="translate(3.000000, 3.000000)" fill="#000000"  fill-rule="nonzero">
            <path d="M16.9925753,15.9532516 L11.2982974,15.9532516 C10.7427323,15.9532516 10.2908727,16.412265 10.2908727,16.9766258 C10.2908727,17.5420615 10.7427323,18 11.2982974,18 L16.9925753,18 C17.5481404,18 18,17.5420615 18,16.9766258 C18,16.412265 17.5481404,15.9532516 16.9925753,15.9532516" id="Fill-1" opacity="0.400000006"></path>
            <path d="M7.30902244,3.90388036 L12.7048825,8.26397045 C12.8350434,8.36824282 12.857266,8.55958799 12.755677,8.69288463 L6.35874154,17.0282245 C5.95661822,17.5431365 5.36401544,17.8344542 4.72908388,17.8452039 L1.23696031,17.8882293 C1.05071372,17.8903528 0.887747957,17.761356 0.845419186,17.5764607 L0.0517547398,14.1257977 C-0.0858137643,13.4915637 0.0517547398,12.8358302 0.453878059,12.3305929 L6.88256008,3.95547906 C6.98626556,3.82110745 7.17780325,3.79745805 7.30902244,3.90388036" id="Fill-3"></path>
            <path d="M15.1205854,5.66543845 L14.0803559,6.96400572 C13.9755921,7.09622738 13.7872291,7.11772684 13.6570681,7.0123795 C12.3924961,5.9890053 9.15434519,3.3628465 8.25591703,2.63508985 C8.12469785,2.52759256 8.10670812,2.33624738 8.21253005,2.20295074 L9.21572191,0.957057153 C10.1257905,-0.214663308 11.7131194,-0.322160598 12.9935647,0.699063657 L14.4644894,1.87078412 C15.0676744,2.34377219 15.4697977,2.96725648 15.6073662,3.62298994 C15.7660991,4.34429676 15.5967841,5.0527039 15.1205854,5.66543845" id="Fill-5" opacity="0.400000006"></path>
        </g>
    </g>
</svg>