<?xml version="1.0" encoding="UTF-8"?>
<svg width="24px"  height="24px"  viewBox="0 0 24 24" version="1.1" xmlns="http://www.w3.org/2000/svg" xmlns:xlink="http://www.w3.org/1999/xlink">
    <title>Iconly/Bold/Camera</title>
    <g id="Iconly/Bold/Camera" stroke="none" stroke-width="1" fill="none" fill-rule="evenodd">
        <g id="Camera" transform="translate(2.000000, 3.000000)" fill="#000000"  fill-rule="nonzero">
            <path d="M12.35,0 C13.32,0.00998890122 14.11,0.509433962 14.57,1.40843507 C14.68875,1.64567148 14.854375,1.99216149 15.0278125,2.35767333 L15.2371875,2.79964319 L15.2371875,2.79964319 L15.34,3.01664817 L15.44,3.236404 C15.48,3.3063263 15.55,3.35627081 15.64,3.35627081 C18.04,3.35627081 20,5.31409545 20,7.71143174 L20,7.71143174 L20,13.6448391 C20,16.0421754 18.04,18 15.64,18 L15.64,18 L4.36,18 C1.95,18 0,16.0421754 0,13.6448391 L0,13.6448391 L0,7.71143174 C0,5.31409545 1.95,3.35627081 4.36,3.35627081 C4.44,3.35627081 4.52,3.31631521 4.55,3.236404 L4.55,3.236404 L4.61,3.11653718 C4.89,2.52719201 5.23,1.80799112 5.43,1.40843507 C5.89,0.509433962 6.67,0.00998890122 7.64,0 L7.64,0 Z M10,6.40288568 C8.95,6.40288568 7.96,6.81243063 7.21,7.56159822 C6.47,8.31076582 6.06,9.28967814 6.07,10.3285239 C6.07,11.3773585 6.48,12.3562708 7.22,13.1054384 C7.97,13.8446171 8.95,14.254162 10,14.254162 C11.08,14.254162 12.06,13.8146504 12.77,13.1054384 C13.48,12.3962264 13.92,11.4173141 13.93,10.3285239 C13.93,9.28967814 13.52,8.30077691 12.78,7.55160932 C12.04,6.81243063 11.05,6.40288568 10,6.40288568 Z M10,7.90122087 C10.65,7.90122087 11.26,8.1509434 11.72,8.61043285 C12.18,9.06992231 12.43,9.67924528 12.43,10.3285239 C12.42,11.6670366 11.34,12.7558269 10,12.7558269 C9.35,12.7558269 8.74,12.5061043 8.28,12.0466149 C7.82,11.5871254 7.57,10.9778024 7.57,10.3285239 L7.57,10.3285239 L7.57,10.318535 C7.56,9.68923418 7.81,9.07991121 8.27,8.62042175 C8.74,8.1509434 9.35,7.90122087 10,7.90122087 Z M15.61,6.16315205 C15.11,6.16315205 14.71,6.572697 14.71,7.07214206 C14.71,7.57158713 15.11,7.97114317 15.61,7.97114317 C16.11,7.97114317 16.52,7.57158713 16.52,7.07214206 C16.52,6.572697 16.11,6.16315205 15.61,6.16315205 Z"></path>
        </g>
    </g>
</svg>