<?xml version="1.0" encoding="UTF-8"?>
<svg width="24px"  height="24px"  viewBox="0 0 24 24" version="1.1" xmlns="http://www.w3.org/2000/svg" xmlns:xlink="http://www.w3.org/1999/xlink">
    <title>Iconly/Bold/Video</title>
    <g id="Iconly/Bold/Video" stroke="none" stroke-width="1" fill="none" fill-rule="evenodd">
        <g id="Video" transform="translate(2.000000, 4.500000)" fill="#000000"  fill-rule="nonzero">
            <path d="M9.90509905,-1.15463195e-14 C12.3271233,-1.15463195e-14 14.0181402,1.66903553 14.0181402,4.06091371 L14.0181402,4.06091371 L14.0181402,10.9390863 C14.0181402,13.3309645 12.3271233,15 9.90509905,15 L9.90509905,15 L4.11304113,15 C1.69101691,15 1.50990331e-14,13.3309645 1.50990331e-14,10.9390863 L1.50990331e-14,10.9390863 L1.50990331e-14,4.06091371 C1.50990331e-14,1.66903553 1.69101691,-1.15463195e-14 4.11304113,-1.15463195e-14 L4.11304113,-1.15463195e-14 Z M17.9579796,2.37898477 C18.396984,2.15563452 18.9119891,2.17898477 19.3309933,2.44294416 C19.7499975,2.70588832 20,3.16274112 20,3.6622335 L20,3.6622335 L20,11.3383756 C20,11.8388832 19.7499975,12.2947208 19.3309933,12.557665 C19.101991,12.7008122 18.8459885,12.7739086 18.5879859,12.7739086 C18.3729837,12.7739086 18.1579816,12.7231472 17.9569796,12.6206091 L17.9569796,12.6206091 L16.4759648,11.873401 C15.9279593,11.5952284 15.5879559,11.0368528 15.5879559,10.4165482 L15.5879559,10.4165482 L15.5879559,4.58304569 C15.5879559,3.96172589 15.9279593,3.40335025 16.4759648,3.12720812 L16.4759648,3.12720812 Z"></path>
        </g>
    </g>
</svg>