<svg width="24px"  height="24px"  viewBox="0 0 25 25" fill="none" xmlns="http://www.w3.org/2000/svg">
<path opacity="0.4" d="M9.05588 16.1324V16.0684V16.1324ZM8.79688 16.1184C8.79688 15.9744 8.91388 15.8574 9.05788 15.8574C9.20188 15.8574 9.31888 15.9744 9.31888 16.1184C9.31888 16.2624 9.20188 16.3794 9.05788 16.3794C8.91388 16.3794 8.79688 16.2624 8.79688 16.1184Z" stroke="#000000"  stroke-width="2"  stroke-linecap="round" stroke-linejoin="round"/>
<path opacity="0.4" d="M12.5012 16.1324V16.0684V16.1324ZM12.2422 16.1184C12.2422 15.9744 12.3582 15.8574 12.5022 15.8574C12.6462 15.8574 12.7632 15.9744 12.7632 16.1184C12.7632 16.2624 12.6462 16.3794 12.5022 16.3794C12.3582 16.3794 12.2422 16.2624 12.2422 16.1184Z" stroke="#000000"  stroke-width="2"  stroke-linecap="round" stroke-linejoin="round"/>
<path opacity="0.4" d="M15.9426 16.1324V16.0684V16.1324ZM15.6836 16.1184C15.6836 15.9744 15.8006 15.8574 15.9446 15.8574C16.0886 15.8574 16.2046 15.9744 16.2046 16.1184C16.2046 16.2624 16.0886 16.3794 15.9446 16.3794C15.8006 16.3794 15.6836 16.2624 15.6836 16.1184Z" stroke="#000000"  stroke-width="2"  stroke-linecap="round" stroke-linejoin="round"/>
<path opacity="0.4" d="M16.9517 10.4171V8.3211C16.9217 5.8641 14.9047 3.8971 12.4477 3.9281C10.0417 3.9581 8.09569 5.8961 8.05469 8.3011V10.4171" stroke="#000000"  stroke-width="2"  stroke-linecap="round" stroke-linejoin="round"/>
<path d="M9.80376 21.9719H15.1958C16.7908 21.9719 17.5888 21.9719 18.2048 21.6759C18.8188 21.3809 19.3148 20.8849 19.6098 20.2709C19.9058 19.6549 19.9058 18.8569 19.9058 17.2619V15.1299C19.9058 13.5349 19.9058 12.7369 19.6098 12.1219C19.3148 11.5069 18.8188 11.0109 18.2048 10.7159C17.5888 10.4199 16.7908 10.4199 15.1958 10.4199H9.80376C8.20876 10.4199 7.41075 10.4199 6.79475 10.7159C6.18075 11.0109 5.68476 11.5069 5.38976 12.1219C5.09376 12.7369 5.09375 13.5349 5.09375 15.1299V17.2619C5.09375 18.8569 5.09376 19.6549 5.38976 20.2709C5.68476 20.8849 6.18075 21.3809 6.79475 21.6759C7.41075 21.9719 8.20876 21.9719 9.80376 21.9719Z" stroke="#000000"  stroke-width="2"  stroke-linecap="round" stroke-linejoin="round"/>
</svg>