<?xml version="1.0" encoding="UTF-8"?>
<svg width="24px"  height="24px"  viewBox="0 0 24 24" version="1.1" xmlns="http://www.w3.org/2000/svg" xmlns:xlink="http://www.w3.org/1999/xlink">
    <title>Iconly/Bulk/Buy</title>
    <g id="Iconly/Bulk/Buy" stroke="none" stroke-width="1" fill="none" fill-rule="evenodd">
        <g id="Buy" transform="translate(2.000058, 2.499670)" fill="#000000"  fill-rule="nonzero">
            <path d="M5.43054214,16.5688305 C6.26054214,16.5688305 6.94054214,17.2488305 6.94054214,18.0888305 C6.94054214,18.9188305 6.26054214,19.5988305 5.43054214,19.5988305 C4.59054214,19.5988305 3.91054214,18.9188305 3.91054214,18.0888305 C3.91054214,17.2488305 4.59054214,16.5688305 5.43054214,16.5688305 Z M16.6805421,16.5688305 C17.5105421,16.5688305 18.1905421,17.2488305 18.1905421,18.0888305 C18.1905421,18.9188305 17.5105421,19.5988305 16.6805421,19.5988305 C15.8405421,19.5988305 15.1605421,18.9188305 15.1605421,18.0888305 C15.1605421,17.2488305 15.8405421,16.5688305 16.6805421,16.5688305 Z" id="Combined-Shape" opacity="0.400000006"></path>
            <path d="M0.778832421,9.55306283e-05 L0.880742143,0.00833048433 L3.26574214,0.368330484 C3.60574214,0.429330484 3.85574214,0.708330484 3.88574214,1.04833048 L3.88574214,1.04833048 L4.07574214,3.28833048 C4.10574214,3.60933048 4.36574214,3.84933048 4.68574214,3.84933048 L4.68574214,3.84933048 L18.1907421,3.84933048 C18.8007421,3.84933048 19.2007421,4.05933048 19.6007421,4.51933048 C20.0007421,4.97933048 20.0707421,5.63933048 19.9807421,6.23833048 L19.9807421,6.23833048 L19.0307421,12.7983305 C18.8507421,14.0593305 17.7707421,14.9883305 16.5007421,14.9883305 L16.5007421,14.9883305 L5.59074214,14.9883305 C4.26074214,14.9883305 3.16074214,13.9683305 3.05074214,12.6493305 L3.05074214,12.6493305 L2.13074214,1.74833048 L0.620742143,1.48833048 C0.220742143,1.41833048 -0.0592578569,1.02833048 0.0107421431,0.628330484 C0.0807421431,0.218330484 0.470742143,-0.0516695157 0.880742143,0.00833048433 Z M14.9007421,7.54833048 L12.1307421,7.54833048 C11.7107421,7.54833048 11.3807421,7.87833048 11.3807421,8.29833048 C11.3807421,8.70833048 11.7107421,9.04833048 12.1307421,9.04833048 L12.1307421,9.04833048 L14.9007421,9.04833048 C15.3207421,9.04833048 15.6507421,8.70833048 15.6507421,8.29833048 C15.6507421,7.87833048 15.3207421,7.54833048 14.9007421,7.54833048 L14.9007421,7.54833048 Z" id="Fill-7"></path>
        </g>
    </g>
</svg>