<?xml version="1.0" encoding="UTF-8"?>
<svg width="24px"  height="24px"  viewBox="0 0 24 24" version="1.1" xmlns="http://www.w3.org/2000/svg" xmlns:xlink="http://www.w3.org/1999/xlink">
    <title>Iconly/Bold/Filter 2</title>
    <g id="Iconly/Bold/Filter-2" stroke="none" stroke-width="1" fill="none" fill-rule="evenodd">
        <g id="Filter-2" transform="translate(2.000000, 2.000000)" fill="#000000"  fill-rule="nonzero">
            <path d="M7.28010296,13.8241391 L12.1346718,13.8389907 C12.4373745,13.8400513 12.6824196,14.0935341 12.6824196,14.4042891 L12.6824196,14.4042891 L12.6824196,17.1353269 C12.6824196,17.4471425 12.5053282,17.7292613 12.2293951,17.8597148 L12.2293951,17.8597148 L7.8227027,19.92894 C7.7197426,19.9766669 7.61060489,20 7.50146718,20 C7.35629344,20 7.21111969,19.9575761 7.08447876,19.8737889 C6.86311454,19.7274265 6.72926641,19.4750044 6.72926641,19.2045521 L6.72926641,19.2045521 L6.72926641,14.3894407 C6.72926641,14.0765645 6.97637066,13.8230818 7.28010296,13.8241391 L7.28010296,13.8241391 Z M17.8718147,3.55271368e-15 C19.047619,3.55271368e-15 20,0.981052431 20,2.19225446 L20,2.19225446 L20,3.72375685 C20,4.31132771 19.770399,4.87556543 19.362677,5.28707715 L19.362677,5.28707715 L12.8576577,11.8670223 C12.7454311,11.9815668 12.5930502,12.0452027 12.4355212,12.0441551 L12.4355212,12.0441551 L6.98893179,12.0271725 C6.82316602,12.0271725 6.66563707,11.9561125 6.55238095,11.8320226 L6.55238095,11.8320226 L0.574517375,5.25738043 C0.204890605,4.85117169 -2.13162821e-14,4.3145095 -2.13162821e-14,3.75769596 L-2.13162821e-14,3.75769596 L-2.13162821e-14,2.19331506 C-2.13162821e-14,0.982113028 0.952380952,3.55271368e-15 2.12818533,3.55271368e-15 L2.12818533,3.55271368e-15 Z"></path>
        </g>
    </g>
</svg>