<?xml version="1.0" encoding="UTF-8"?>
<svg width="24px"  height="24px"  viewBox="0 0 24 24" version="1.1" xmlns="http://www.w3.org/2000/svg" xmlns:xlink="http://www.w3.org/1999/xlink">
    <title>Iconly/Bold/Bag</title>
    <g id="Iconly/Bold/Bag" stroke="none" stroke-width="1" fill="none" fill-rule="evenodd">
        <g id="Bag" transform="translate(3.000000, 2.000000)" fill="#000000"  fill-rule="nonzero">
            <path d="M9.00494392,-1.77635684e-14 C11.684893,-1.77635684e-14 13.8881654,2.10590955 14,4.77432394 L13.9738707,4.77432394 C13.977008,4.85188923 13.9621034,4.9291268 13.9303218,5 L14.0864529,5 C15.3034636,5 16.5778419,5.8435091 17.0888377,7.87980254 L17.1443642,8.12007277 L17.913261,14.3147362 C18.46659,18.2657474 16.3049606,19.9272845 13.3562029,19.997658 L13.158474,20 L4.86852947,20 C1.87177637,20 -0.437455746,18.9079745 0.0702808406,14.5835537 L0.104904598,14.3147362 L0.882639271,8.12007277 C1.26614074,5.92718531 2.55360997,5.06224784 3.79411983,5.00326364 L3.9317127,5 L4.00988785,5 C3.99670405,4.92534832 3.99670405,4.84897562 4.00988785,4.77432394 C4.1217224,2.10590955 6.32499483,-1.77635684e-14 9.00494392,-1.77635684e-14 Z M6.09699673,8.32929048 C5.60889332,8.32929048 5.21320733,8.73655117 5.21320733,9.23893269 C5.21320733,9.74131421 5.60889332,10.1485749 6.09699673,10.1485749 C6.58510014,10.1485749 6.98078613,9.74131421 6.98078613,9.23893269 L6.98078613,9.23893269 L6.97390016,9.1248291 C6.91936452,8.6763055 6.54755372,8.32929048 6.09699673,8.32929048 Z M11.8858173,8.32929048 C11.3977139,8.32929048 11.0020279,8.73655117 11.0020279,9.23893269 C11.0020279,9.74131421 11.3977139,10.1485749 11.8858173,10.1485749 C12.3739207,10.1485749 12.7696067,9.74131421 12.7696067,9.23893269 C12.7696067,8.73655117 12.3739207,8.32929048 11.8858173,8.32929048 Z M8.96574994,1.30238454 C7.04163953,1.30238454 5.48183986,2.85682476 5.48183986,4.77432394 C5.49502365,4.84897562 5.49502365,4.92534832 5.48183986,5 L12.4932089,5 C12.4653783,4.92794354 12.4506323,4.85152772 12.44966,4.77432394 C12.44966,2.85682476 10.8898603,1.30238454 8.96574994,1.30238454 Z" id="Combined-Shape"></path>
        </g>
    </g>
</svg>