<svg width="24px"  height="24px"  viewBox="0 0 25 24" fill="none" xmlns="http://www.w3.org/2000/svg">
<path opacity="0.4" fill-rule="evenodd" clip-rule="evenodd" d="M16.7169 3H8.28216C5.34281 3 3.5 5.08119 3.5 8.02638V15.9736C3.5 18.9188 5.33308 21 8.28216 21H16.7159C19.665 21 21.5 18.9188 21.5 15.9736V8.02638C21.5 5.08119 19.665 3 16.7169 3Z" stroke="#000000"  stroke-width="1.5"  stroke-linecap="round" stroke-linejoin="round"/>
<path d="M16.3385 12.0283V12.0922M16.5977 12.042C16.5977 12.186 16.4809 12.3028 16.3369 12.3028C16.1929 12.3028 16.0762 12.186 16.0762 12.042C16.0762 11.898 16.1929 11.7812 16.3369 11.7812C16.4809 11.7812 16.5977 11.898 16.5977 12.042Z" stroke="#000000"  stroke-width="1.5"  stroke-linecap="round" stroke-linejoin="round"/>
<path d="M12.4381 12.0283V12.0922M12.6973 12.042C12.6973 12.186 12.5805 12.3028 12.4365 12.3028C12.2925 12.3028 12.1758 12.186 12.1758 12.042C12.1758 11.898 12.2925 11.7812 12.4365 11.7812C12.5805 11.7812 12.6973 11.898 12.6973 12.042Z" stroke="#000000"  stroke-width="1.5"  stroke-linecap="round" stroke-linejoin="round"/>
<path d="M8.53768 12.0283V12.0922M8.79695 12.042C8.79695 12.186 8.68011 12.3028 8.53609 12.3028C8.39208 12.3028 8.27539 12.186 8.27539 12.042C8.27539 11.898 8.39208 11.7812 8.53609 11.7812C8.68011 11.7812 8.79695 11.898 8.79695 12.042Z" stroke="#000000"  stroke-width="1.5"  stroke-linecap="round" stroke-linejoin="round"/>
</svg>