<?xml version="1.0" encoding="UTF-8"?>
<svg width="24px"  height="24px"  viewBox="0 0 24 24" version="1.1" xmlns="http://www.w3.org/2000/svg" xmlns:xlink="http://www.w3.org/1999/xlink">
    <title>Iconly/Bold/Volume Off</title>
    <g id="Iconly/Bold/Volume-Off" stroke="none" stroke-width="1" fill="none" fill-rule="evenodd">
        <g id="Volume-Off" transform="translate(3.000000, 3.000000)" fill="#000000"  fill-rule="nonzero">
            <path d="M17.4201292,0.270845797 C17.7800629,-0.0890452635 18.3538395,-0.0911622697 18.7275354,0.269787294 C19.0906449,0.632853864 19.0906449,1.21926459 18.728594,1.58127266 L18.728594,1.58127266 L1.57987192,18.7290232 C1.40943274,18.8994422 1.16383094,19 0.924580916,19 C0.690624031,19 0.459843032,18.9047347 0.273524427,18.7321987 C-0.090643756,18.3543131 -0.090643756,17.7795459 0.270348541,17.4185963 L0.270348541,17.4185963 L3.09688647,14.592393 L3.0683035,14.592393 C1.65926905,14.592393 0.633458096,13.5974001 0.442904977,12.0519855 C0.230120661,10.506571 0.272465798,7.86031317 0.442904977,6.45250402 C0.642985752,4.99176971 1.72384539,3.98725025 3.0683035,3.98725025 L3.0683035,3.98725025 L4.89867207,3.98725025 L8.39214592,1.12929183 C8.81665592,0.769400767 9.56828211,0.429621265 10.1494691,0.420094737 C11.2080976,0.420094737 12.1820357,1.15998842 12.5313831,2.34551191 C12.6690048,2.84406688 12.7229949,3.34050484 12.76534,3.81788975 L12.76534,3.81788975 L12.8489716,4.49427325 C12.8627338,4.59800655 12.8754374,4.69750584 12.8860236,4.80335616 L12.8860236,4.80335616 Z M12.4160158,10.5204247 L12.48745,10.5281644 C12.8759667,10.6266052 12.9521879,11.1844364 12.9458361,11.6226567 C12.9278395,12.8949774 12.8854943,13.779886 12.8177421,14.3271321 L12.8177421,14.3271321 L12.7701038,14.7780545 C12.7245828,15.2342693 12.6780032,15.7063617 12.5424987,16.2102092 C12.1899754,17.3936157 11.2446202,18.1620889 10.1701124,18.1620889 C10.1351776,18.1620889 10.1002429,18.1620889 10.0642495,18.1610304 C9.47035898,18.1610304 8.82671289,17.8053734 8.46148608,17.495232 L8.46148608,17.495232 L7.16043173,16.4885955 C6.66605225,16.1212949 6.81214298,15.5348842 7.08950363,15.1951047 C7.21557665,15.0411406 8.18724007,14.1341959 9.22324838,13.1772884 L9.63923159,12.7935271 C10.7477949,11.7719454 11.8110506,10.8001677 11.8808559,10.731397 C12.0237708,10.5916746 12.3434766,10.4911168 12.48745,10.5281644 Z"></path>
        </g>
    </g>
</svg>