<?xml version="1.0" encoding="UTF-8"?>
<svg width="24px"  height="24px"  viewBox="0 0 24 24" version="1.1" xmlns="http://www.w3.org/2000/svg" xmlns:xlink="http://www.w3.org/1999/xlink">
    <title>Iconly/Bold/Paper Fail</title>
    <g id="Iconly/Bold/Paper-Fail" stroke="none" stroke-width="1" fill="none" fill-rule="evenodd">
        <g id="Paper-Fail" transform="translate(3.500000, 2.000000)" fill="#000000"  fill-rule="nonzero">
            <path d="M9.75247525,-1.77635684e-15 C10,-1.77635684e-15 10.2079208,0.21 10.2079208,0.46 L10.2079208,0.46 L10.2079208,3.68 C10.2079208,5.51 11.7029703,7.01 13.5148515,7.02 C14.2574257,7.02 14.8613861,7.03 15.3069307,7.03 C15.6138614,7.03 16.1287129,7.02 16.5445545,7.02 C16.8019802,7.02 17,7.22 17,7.47 L17,7.47 L17,15.51 C17,17.99 15.009901,20 12.5445545,20 L12.5445545,20 L4.67326733,20 C2.08910891,20 -2.13162821e-14,17.89 -2.13162821e-14,15.29 L-2.13162821e-14,15.29 L-2.13162821e-14,4.51 C-2.13162821e-14,2.03 2,-1.77635684e-15 4.46534653,-1.77635684e-15 L4.46534653,-1.77635684e-15 Z M7.08910891,8.72 C6.8019802,8.42 6.33663366,8.42 6.04950495,8.72 C5.76237624,9.01 5.76237624,9.48 6.04950495,9.77 L6.04950495,9.77 L7.25742574,10.99 L6.04950495,12.21 C5.76237624,12.5 5.76237624,12.97 6.04950495,13.26 C6.18811881,13.41 6.37623762,13.48 6.56435644,13.48 C6.75247525,13.48 6.95049505,13.41 7.08910891,13.26 L7.08910891,13.26 L8.2970297,12.04 L9.5049505,13.26 C9.65346535,13.41 9.84158416,13.48 10.029703,13.48 C10.2178218,13.48 10.4059406,13.41 10.5544554,13.26 C10.8415842,12.97 10.8415842,12.5 10.5544554,12.21 L10.5544554,12.21 L9.34653465,10.99 L10.5544554,9.77 C10.8415842,9.48 10.8415842,9.01 10.5544554,8.72 C10.2673267,8.42 9.79207921,8.42 9.5049505,8.72 L9.5049505,8.72 L8.2970297,9.94 Z M11.6462376,0.9062 C11.6462376,0.4752 12.1640594,0.2612 12.4591089,0.5722 C13.530396,1.6962 15.4006931,3.6612 16.4462376,4.7592 C16.7343564,5.0622 16.5234653,5.5652 16.1056436,5.5662 C15.2917822,5.5692 14.3333663,5.5662 13.6432673,5.5592 C12.5482178,5.5592 11.6462376,4.6482 11.6462376,3.5422 L11.6462376,3.5422 Z"></path>
        </g>
    </g>
</svg>