<?xml version="1.0" encoding="UTF-8"?>
<svg width="24px"  height="24px"  viewBox="0 0 24 24" version="1.1" xmlns="http://www.w3.org/2000/svg" xmlns:xlink="http://www.w3.org/1999/xlink">
    <title>Iconly/Bold/Chat</title>
    <g id="Iconly/Bold/Chat" stroke="none" stroke-width="1" fill="none" fill-rule="evenodd">
        <g id="Chat" transform="translate(2.000000, 2.000000)" fill="#000000"  fill-rule="nonzero">
            <path d="M10.02,0 C15.7,0 20,4.65698548 20,9.98497747 C20,16.1642464 14.96,20 10,20 C8.36,20 6.54,19.559339 5.08,18.6980471 C4.57,18.3875814 4.14,18.1572359 3.59,18.3375063 L3.59,18.3375063 L1.57,18.9384076 C1.06,19.098648 0.6,18.6980471 0.75,18.1572359 L0.75,18.1572359 L1.42,15.9138708 C1.53,15.6034051 1.51,15.2729094 1.35,15.0125188 C0.49,13.4301452 0,11.6975463 0,10.0150225 C0,4.74712068 4.21,0 10.02,0 Z M14.59,8.74311467 C13.88,8.74311467 13.31,9.31397096 13.31,10.0250376 C13.31,10.7260891 13.88,11.3069604 14.59,11.3069604 C15.3,11.3069604 15.87,10.7260891 15.87,10.0250376 C15.87,9.31397096 15.3,8.74311467 14.59,8.74311467 Z M9.98,8.74311467 C9.28,8.73309965 8.7,9.31397096 8.7,10.0150225 C8.7,10.7260891 9.27,11.2969454 9.98,11.3069604 C10.69,11.3069604 11.26,10.7260891 11.26,10.0250376 C11.26,9.31397096 10.69,8.74311467 9.98,8.74311467 Z M5.37,8.74311467 C4.66,8.74311467 4.09,9.31397096 4.09,10.0250376 C4.09,10.7260891 4.67,11.3069604 5.37,11.3069604 C6.08,11.2969454 6.65,10.7260891 6.65,10.0250376 C6.65,9.31397096 6.08,8.74311467 5.37,8.74311467 Z"></path>
        </g>
    </g>
</svg>