<?xml version="1.0" encoding="UTF-8"?>
<svg width="24px"  height="24px"  viewBox="0 0 24 24" version="1.1" xmlns="http://www.w3.org/2000/svg" xmlns:xlink="http://www.w3.org/1999/xlink">
    <title>Iconly/Light/Add User</title>
    <g id="Iconly/Light/Add-User" stroke="#000000"  stroke-width="1.5"  fill="none" fill-rule="evenodd" stroke-linecap="round" stroke-linejoin="round">
        <g id="Add-User" transform="translate(2.000000, 2.000000)" stroke="#000000"  stroke-width="1.5" >
            <path d="M7.8766,13.2062 C4.0326,13.2062 0.7496,13.7872 0.7496,16.1152 C0.7496,18.4432 4.0126,19.0452 7.8766,19.0452 C11.7216,19.0452 15.0036,18.4632 15.0036,16.1362 C15.0036,13.8092 11.7416,13.2062 7.8766,13.2062 Z" id="Stroke-1"></path>
            <path d="M7.8766,9.8859 C10.3996,9.8859 12.4446,7.8409 12.4446,5.3179 C12.4446,2.7949 10.3996,0.7499 7.8766,0.7499 C5.3546,0.7499 3.30957019,2.7949 3.30957019,5.3179 C3.3006,7.8319 5.3306,9.8769 7.8456,9.8859 L7.8766,9.8859 Z" id="Stroke-3"></path>
            <line x1="17.2037" y1="6.6691" x2="17.2037" y2="10.6791" id="Stroke-5"></line>
            <line x1="19.2496" y1="8.674" x2="15.1596" y2="8.674" id="Stroke-7"></line>
        </g>
    </g>
</svg>