<?xml version="1.0" encoding="UTF-8"?>
<svg width="24px"  height="24px"  viewBox="0 0 24 24" version="1.1" xmlns="http://www.w3.org/2000/svg" xmlns:xlink="http://www.w3.org/1999/xlink">
    <title>Iconly/Bulk/Camera</title>
    <g id="Iconly/Bulk/Camera" stroke="none" stroke-width="1" fill="none" fill-rule="evenodd">
        <g id="Camera" transform="translate(2.000000, 3.000000)" fill="#000000"  fill-rule="nonzero">
            <path d="M10,6.40288568 C11.05,6.40288568 12.04,6.81243063 12.78,7.55160932 C13.52,8.30077691 13.93,9.28967814 13.93,10.3285239 C13.92,11.4173141 13.48,12.3962264 12.77,13.1054384 C12.06,13.8146504 11.08,14.254162 10,14.254162 C8.95,14.254162 7.97,13.8446171 7.22,13.1054384 C6.48,12.3562708 6.07,11.3773585 6.07,10.3285239 C6.06,9.28967814 6.47,8.31076582 7.21,7.56159822 C7.96,6.81243063 8.95,6.40288568 10,6.40288568 Z M10,7.90122087 C9.35,7.90122087 8.74,8.1509434 8.27,8.62042175 C7.81,9.07991121 7.56,9.68923418 7.57,10.318535 L7.57,10.3285239 C7.57,10.9778024 7.82,11.5871254 8.28,12.0466149 C8.74,12.5061043 9.35,12.7558269 10,12.7558269 C11.34,12.7558269 12.42,11.6670366 12.43,10.3285239 C12.43,9.67924528 12.18,9.06992231 11.72,8.61043285 C11.26,8.1509434 10.65,7.90122087 10,7.90122087 Z M15.61,6.16315205 C16.11,6.16315205 16.52,6.572697 16.52,7.07214206 C16.52,7.57158713 16.11,7.97114317 15.61,7.97114317 C15.11,7.97114317 14.71,7.57158713 14.71,7.07214206 C14.71,6.572697 15.11,6.16315205 15.61,6.16315205 Z" id="Combined-Shape"></path>
            <path d="M15.44,3.236404 L15.34,3.01664817 C15.07,2.4472808 14.76,1.78801332 14.57,1.40843507 C14.11,0.509433962 13.32,0.00998890122 12.35,0 L7.64,0 C6.67,0.00998890122 5.89,0.509433962 5.43,1.40843507 C5.23,1.80799112 4.89,2.52719201 4.61,3.11653718 L4.55,3.236404 C4.52,3.31631521 4.44,3.35627081 4.36,3.35627081 C1.95,3.35627081 0,5.31409545 0,7.71143174 L0,13.6448391 C0,16.0421754 1.95,18 4.36,18 L15.64,18 C18.04,18 20,16.0421754 20,13.6448391 L20,7.71143174 C20,5.31409545 18.04,3.35627081 15.64,3.35627081 C15.55,3.35627081 15.48,3.3063263 15.44,3.236404 Z" id="Path" opacity="0.400000006"></path>
        </g>
    </g>
</svg>