<?xml version="1.0" encoding="UTF-8"?>
<svg width="24px"  height="24px"  viewBox="0 0 24 24" version="1.1" xmlns="http://www.w3.org/2000/svg" xmlns:xlink="http://www.w3.org/1999/xlink">
    <title>Iconly/Bold/Voice 2</title>
    <g id="Iconly/Bold/Voice-2" stroke="none" stroke-width="1" fill="none" fill-rule="evenodd">
        <g id="Voice-2" transform="translate(3.500000, 2.000000)" fill="#000000"  fill-rule="nonzero">
            <path d="M16.0312838,7.82620341 C16.5660152,7.82620341 17,8.2538073 17,8.78281166 C17,13.0865922 13.7005527,16.6403918 9.46920052,17.1177393 L9.46920052,17.1177393 L9.46920052,19.0433918 C9.46920052,19.5714395 9.03521568,20 8.50048436,20 C7.96478432,20 7.53176819,19.5714395 7.53176819,19.0433918 L7.53176819,19.0433918 L7.53176819,17.1177393 C3.29944726,16.6403918 1.77635684e-14,13.0865922 1.77635684e-14,8.78281166 C1.77635684e-14,8.2538073 0.433984842,7.82620341 0.968716166,7.82620341 C1.50344749,7.82620341 1.93743233,8.2538073 1.93743233,8.78281166 C1.93743233,12.3557435 4.88136076,15.2628759 8.50048436,15.2628759 C12.1186392,15.2628759 15.0625677,12.3557435 15.0625677,8.78281166 C15.0625677,8.2538073 15.4965525,7.82620341 16.0312838,7.82620341 Z M8.6747564,-1.86517468e-14 C10.669343,-1.86517468e-14 12.3500655,1.32394582 12.8644538,3.1309788 C12.9351701,3.37874034 12.7482079,3.62458866 12.4885919,3.62458866 L12.4885919,3.62458866 L11.3561627,3.62458866 C11.0142059,3.62458866 10.7361844,3.89817862 10.7361844,4.23586133 L10.7361844,4.23586133 C10.7361844,4.57545726 11.0142059,4.84904722 11.3561627,4.84904722 L11.3561627,4.84904722 L12.4004388,4.84904722 C12.7462704,4.84904722 13.0271981,5.125507 13.0271981,5.46701615 C13.0271981,5.80852529 12.7462704,6.08498508 12.4004388,6.08498508 L12.4004388,6.08498508 L11.3561627,6.08498508 C11.0142059,6.08498508 10.7361844,6.35953164 10.7361844,6.69817097 C10.7361844,7.03585368 11.0142059,7.31040024 11.3561627,7.31040024 L11.3561627,7.31040024 L12.4004388,7.31040024 C12.7462704,7.31040024 13.0271981,7.58686003 13.0271981,7.92932578 C13.0271981,8.26987832 12.7462704,8.5463381 12.4004388,8.5463381 L12.4004388,8.5463381 L11.3561627,8.5463381 C11.0142059,8.5463381 10.7361844,8.82088467 10.7361844,9.15952399 C10.7361844,9.4972067 11.0142059,9.77079666 11.3561627,9.77079666 L11.3561627,9.77079666 L12.4333751,9.77079666 C12.6988034,9.77079666 12.8886717,10.0271677 12.8053621,10.2758858 C12.2309134,11.9843882 10.5995954,13.2164996 8.6747564,13.2164996 L8.6747564,13.2164996 L8.32504986,13.2164996 C5.92166505,13.2164996 3.97357684,11.2927604 3.97357684,8.92037193 L3.97357684,8.92037193 L3.97357684,4.29708426 C3.97357684,1.92373919 5.92166505,-1.86517468e-14 8.32504986,-1.86517468e-14 L8.32504986,-1.86517468e-14 Z"></path>
        </g>
    </g>
</svg>