<?xml version="1.0" encoding="UTF-8"?>
<svg width="24px"  height="24px"  viewBox="0 0 24 24" version="1.1" xmlns="http://www.w3.org/2000/svg" xmlns:xlink="http://www.w3.org/1999/xlink">
    <title>Iconly/Bold/Buy</title>
    <g id="Iconly/Bold/Buy" stroke="none" stroke-width="1" fill="none" fill-rule="evenodd">
        <g id="Buy" transform="translate(2.000000, 2.000000)" fill="#000000"  fill-rule="nonzero">
            <path d="M5.42631305,16.9078576 C6.25566668,16.9078576 6.93513713,17.6018038 6.93513713,18.4590314 C6.93513713,19.3060539 6.25566668,20 5.42631305,20 C4.58696721,20 3.90749677,19.3060539 3.90749677,18.4590314 C3.90749677,17.6018038 4.58696721,16.9078576 5.42631305,16.9078576 Z M16.667552,16.9078576 C17.4969056,16.9078576 18.1763761,17.6018038 18.1763761,18.4590314 C18.1763761,19.3060539 17.4969056,20 16.667552,20 C15.8282062,20 15.1487357,19.3060539 15.1487357,18.4590314 C15.1487357,17.6018038 15.8282062,16.9078576 16.667552,16.9078576 Z M0.778225897,0.00011948936 L0.880056256,0.00873830234 L3.26319891,0.375101045 C3.60293414,0.437352096 3.85273944,0.722074116 3.88271608,1.06904719 L3.88271608,1.06904719 L4.07256812,3.35498742 C4.10254475,3.68257082 4.36234228,3.92749299 4.68209307,3.92749299 L4.68209307,3.92749299 L18.1765759,3.92749299 C18.7861009,3.92749299 19.1857894,4.14179989 19.5854779,4.61123404 C19.9851664,5.0806682 20.0551119,5.75420416 19.9651819,6.36548907 L19.9651819,6.36548907 L19.0159218,13.0600283 C18.8360619,14.3468902 17.756903,15.2949431 16.487892,15.2949431 L16.487892,15.2949431 L5.5863883,15.2949431 C4.25742405,15.2949431 3.15828068,14.2550444 3.04836635,12.9079725 L3.04836635,12.9079725 L2.12908281,1.78340351 L0.620258734,1.51807116 C0.220570238,1.44663553 -0.0592117093,1.04863701 0.0107337775,0.640433394 C0.0806792643,0.223045199 0.470375548,-0.0535127487 0.880056256,0.00873830234 Z M14.889138,7.7023559 L12.1212952,7.7023559 C11.7016223,7.7023559 11.3718793,8.03912388 11.3718793,8.46773768 C11.3718793,8.88614638 11.7016223,9.23311945 12.1212952,9.23311945 L12.1212952,9.23311945 L14.889138,9.23311945 C15.308811,9.23311945 15.638554,8.88614638 15.638554,8.46773768 C15.638554,8.03912388 15.308811,7.7023559 14.889138,7.7023559 L14.889138,7.7023559 Z"></path>
        </g>
    </g>
</svg>