<?xml version="1.0" encoding="UTF-8"?>
<svg width="24px"  height="24px"  viewBox="0 0 24 24" version="1.1" xmlns="http://www.w3.org/2000/svg" xmlns:xlink="http://www.w3.org/1999/xlink">
    <title>Iconly/Bulk/Message</title>
    <g id="Iconly/Bulk/Message" stroke="none" stroke-width="1" fill="none" fill-rule="evenodd">
        <g id="Group" transform="translate(1.999900, 2.999600)" fill="#000000"  fill-rule="nonzero">
            <path d="M20,12.9406 C20,15.7306 17.76,17.9906 14.97,18.0006 L14.96,18.0006 L5.05,18.0006 C2.27,18.0006 0,15.7506 0,12.9606 L0,12.9506 C0,12.9506 0.006,8.5246 0.014,6.2986 C0.015,5.8806 0.495,5.6466 0.822,5.9066 C3.198,7.7916 7.447,11.2286 7.5,11.2736 C8.21,11.8426 9.11,12.1636 10.03,12.1636 C10.95,12.1636 11.85,11.8426 12.56,11.2626 C12.613,11.2276 16.767,7.8936 19.179,5.9776 C19.507,5.7166 19.989,5.9506 19.99,6.3676 C20,8.5766 20,12.9406 20,12.9406" id="Fill-1" opacity="0.400000006"></path>
            <path d="M19.4761,2.674 C18.6101,1.042 16.9061,3.55271368e-15 15.0301,3.55271368e-15 L5.0501,3.55271368e-15 C3.1741,3.55271368e-15 1.4701,1.042 0.6041,2.674 C0.4101,3.039 0.5021,3.494 0.8251,3.752 L8.2501,9.691 C8.7701,10.111 9.4001,10.32 10.0301,10.32 C10.0341,10.32 10.0371,10.32 10.0401,10.32 C10.0431,10.32 10.0471,10.32 10.0501,10.32 C10.6801,10.32 11.3101,10.111 11.8301,9.691 L19.2551,3.752 C19.5781,3.494 19.6701,3.039 19.4761,2.674" id="Fill-4"></path>
        </g>
    </g>
</svg>