<?xml version="1.0" encoding="UTF-8"?>
<svg width="24px"  height="24px"  viewBox="0 0 24 24" version="1.1" xmlns="http://www.w3.org/2000/svg" xmlns:xlink="http://www.w3.org/1999/xlink">
    <title>Iconly/Bulk/Call Silent</title>
    <g id="Iconly/Bulk/Call-Silent" stroke="none" stroke-width="1" fill="none" fill-rule="evenodd">
        <g id="Call-Silent" transform="translate(2.000217, 1.500000)" fill="#000000" >
            <g id="Group" transform="translate(0.199783, 1.100000)">
                <path d="M3.98522487,11.6052971 C-2.44625992,4.31816427 0.769482476,2.13953694 1.05403337,1.78537585 C4.12274017,-1.32694891 4.59875467,0.0896954645 7.00950365,2.53662665 C9.04049885,4.60793244 6.40760976,5.59529063 7.48657596,8.05295397 L3.98522487,11.6052971 Z" id="Stroke-1"></path>
                <path d="M9.89034452,10.782439 C13.1705147,13.4762098 14.0956909,9.62336632 16.4191447,11.9844403 C18.8161922,14.4313715 20.1944944,14.9250506 17.1550804,18.0266433 C16.7976259,18.3378757 14.4951988,21.8687546 6.599661,14.1416033 L9.89034452,10.782439 Z" id="Stroke-3"></path>
            </g>
            <path d="M19.3746079,2.35932491 L19.3746079,2.36948886 L9.95840249,12.0150726 L1.44417041,20.7459014 C1.27566989,20.9085245 1.06752219,21 0.849462698,21 C0.631403203,21 0.423255504,20.9085245 0.24484319,20.7459014 C-0.0326870756,20.451147 -0.0723342565,20.0140973 0.115989852,19.6888511 L0.145725238,19.6481953 C0.165548828,19.6166871 0.185372419,19.5872116 0.215107805,19.5567198 L18.1752807,1.12948757 C18.3239576,0.966864453 18.5420171,0.864208609 18.7699884,0.864208609 C18.9979597,0.864208609 19.2160192,0.966864453 19.3746079,1.12948757 C19.7016972,1.4750617 19.7016972,2.01375079 19.3746079,2.35932491" id="Fill-6" fill-rule="nonzero" opacity="0.400000006"></path>
        </g>
    </g>
</svg>