<?xml version="1.0" encoding="UTF-8"?>
<svg width="24px"  height="24px"  viewBox="0 0 24 24" version="1.1" xmlns="http://www.w3.org/2000/svg" xmlns:xlink="http://www.w3.org/1999/xlink">
    <title>Iconly/Bold/2 User</title>
    <g id="Iconly/Bold/2-User" stroke="none" stroke-width="1" fill="none" fill-rule="evenodd">
        <g id="2-User" transform="translate(2.000000, 3.000000)" fill="#000000"  fill-rule="nonzero">
            <path d="M7.34933305,11.8577345 C11.3346657,11.8577345 14.6986661,12.4911257 14.6986661,14.940366 C14.6986661,17.3876899 11.3131392,18 7.34933305,18 L7.07860083,17.9990046 C3.2128289,17.9702716 -3.19744231e-14,17.3109443 -3.19744231e-14,14.9173685 C-3.19744231e-14,12.4700446 3.38552687,11.8577345 7.34933305,11.8577345 Z M13.5697005,10.3832075 C15.0853598,10.3544606 16.7155008,10.5585639 17.3172635,10.7022987 C18.5931962,10.9466478 19.4317501,11.4439701 19.779109,12.1693515 C20.0736303,12.7634552 20.0736303,13.453382 19.779109,14.0474857 C19.2477966,15.1705333 17.5335067,15.5317867 16.8671645,15.6247352 C16.7291994,15.6438998 16.6186317,15.528912 16.6333088,15.3928431 C16.9738184,12.2805064 14.2663754,10.8048295 13.5657866,10.4656155 C13.5364323,10.4493255 13.529583,10.4263279 13.5325184,10.4109962 C13.5344754,10.4014139 13.5471956,10.3860822 13.5697005,10.3832075 Z M7.34933305,-8.8817842e-16 C10.0489483,-8.8817842e-16 12.2123586,2.11865038 12.2123586,4.76241176 C12.2123586,7.40617314 10.0489483,9.52482353 7.34933305,9.52482353 C4.65069631,9.52482353 2.48630745,7.40617314 2.48630745,4.76241176 C2.48630745,2.11865038 4.65069631,-8.8817842e-16 7.34933305,-8.8817842e-16 Z M13.833889,0.79542817 C16.4415275,0.79542817 18.4884992,3.19675692 17.7908459,5.87118171 C17.3201989,7.67361562 15.6166723,8.87044707 13.7184289,8.82157725 C13.527626,8.81774432 13.3407371,8.79953792 13.1587406,8.76983274 C13.0276248,8.74683517 12.9610885,8.60214218 13.0364311,8.49482023 C13.7605033,7.45130586 14.1734202,6.19506404 14.1734202,4.84874844 C14.1734202,3.44206424 13.7233212,2.13216145 12.939562,1.0560672 C12.9141216,1.02252909 12.8955306,0.971742811 12.9209709,0.932455309 C12.9405405,0.901791893 12.9796795,0.884543722 13.0158831,0.876877868 C13.2800716,0.824175122 13.5511095,0.79542817 13.833889,0.79542817 Z" id="2-Friends"></path>
        </g>
    </g>
</svg>