<?xml version="1.0" encoding="UTF-8"?>
<svg width="24px"  height="24px"  viewBox="0 0 24 24" version="1.1" xmlns="http://www.w3.org/2000/svg" xmlns:xlink="http://www.w3.org/1999/xlink">
    <title>Iconly/Bulk/Paper Fail</title>
    <g id="Iconly/Bulk/Paper-Fail" stroke="none" stroke-width="1" fill="none" fill-rule="evenodd">
        <g id="Paper-Fail" transform="translate(3.500000, 2.000000)" fill="#000000"  fill-rule="nonzero">
            <path d="M15.3089109,7.021 C14.8574257,7.021 14.2594059,7.011 13.5148515,7.011 C11.6990099,7.011 10.2059406,5.508 10.2059406,3.675 L10.2059406,0.459 C10.2059406,0.206 10.0029703,0 9.75247525,0 L4.46336634,0 C1.9960396,0 0,2.026 0,4.509 L0,15.284 C0,17.889 2.09108911,20 4.67029703,20 L12.5455446,20 C15.0059406,20 17,17.987 17,15.502 L17,7.471 C17,7.217 16.7980198,7.012 16.5465347,7.013 C16.1237624,7.016 15.6168317,7.021 15.3089109,7.021" id="Fill-3" opacity="0.400000006"></path>
            <path d="M12.584,0.5673 C12.286,0.2563 11.763,0.4703 11.763,0.9013 L11.763,3.5383 C11.763,4.6443 12.674,5.5543 13.78,5.5543 C14.477,5.5623 15.445,5.5643 16.267,5.5623 C16.688,5.5613 16.902,5.0583 16.61,4.7543 C15.555,3.6573 13.666,1.6913 12.584,0.5673" id="Fill-1" opacity="0.400000006"></path>
            <path d="M9.435,10.9853 L10.656,9.7633 C10.947,9.4733 10.947,9.0023 10.656,8.7113 C10.365,8.4203 9.894,8.4203 9.603,8.7113 L8.382,9.9313 L7.161,8.7113 C6.87,8.4203 6.398,8.4203 6.107,8.7113 C5.816,9.0023 5.816,9.4733 6.107,9.7633 L7.329,10.9853 L6.107,12.2063 C5.816,12.4973 5.816,12.9683 6.107,13.2583 C6.253,13.4043 6.443,13.4773 6.634,13.4773 C6.825,13.4773 7.015,13.4043 7.161,13.2583 L8.382,12.0383 L9.603,13.2583 C9.748,13.4043 9.939,13.4773 10.13,13.4773 C10.32,13.4773 10.511,13.4043 10.656,13.2583 C10.947,12.9683 10.947,12.4973 10.656,12.2063 L9.435,10.9853 Z" id="Fill-6"></path>
        </g>
    </g>
</svg>