<?xml version="1.0" encoding="UTF-8"?>
<svg width="24px"  height="24px"  viewBox="0 0 24 24" version="1.1" xmlns="http://www.w3.org/2000/svg" xmlns:xlink="http://www.w3.org/1999/xlink">
    <title>Iconly/Bulk/Paper Upload</title>
    <g id="Iconly/Bulk/Paper-Upload" stroke="none" stroke-width="1" fill="none" fill-rule="evenodd">
        <g id="Paper-Upload" transform="translate(3.500000, 2.000000)" fill="#000000"  fill-rule="nonzero">
            <path d="M15.3088124,7.021 C14.8573009,7.021 14.2592463,7.011 13.5146485,7.011 C11.6987011,7.011 10.2055449,5.508 10.2055449,3.675 L10.2055449,0.459 C10.2055449,0.206 10.0025628,0 9.75304328,0 L4.4636263,0 C1.99516571,0 0,2.026 0,4.509 L0,15.284 C0,17.889 2.09022075,20 4.66957889,20 L12.5452851,20 C15.0058245,20 17,17.987 17,15.502 L17,7.471 C17,7.217 16.798008,7.012 16.5465082,7.013 C16.1247015,7.016 15.6167511,7.021 15.3088124,7.021" id="Fill-3" opacity="0.400000006"></path>
            <path d="M12.5842,0.5673 C12.2852,0.2563 11.7632,0.4703 11.7632,0.9013 L11.7632,3.5383 C11.7632,4.6443 12.6742,5.5543 13.7792,5.5543 C14.4772,5.5623 15.4452,5.5643 16.2672,5.5623 C16.6882,5.5613 16.9022,5.0583 16.6102,4.7543 C15.5552,3.6573 13.6662,1.6913 12.5842,0.5673" id="Fill-1" opacity="0.400000006"></path>
            <path d="M11.6052,10.8837 C11.3142,11.1727 10.8432,11.1747 10.5512,10.8817 L8.9622,9.2847 L8.9622,14.1117 C8.9622,14.5227 8.6282,14.8567 8.2172,14.8567 C7.8062,14.8567 7.4732,14.5227 7.4732,14.1117 L7.4732,9.2847 L5.8822,10.8817 C5.5922,11.1747 5.1202,11.1727 4.8292,10.8837 C4.5382,10.5947 4.5372,10.1227 4.8272,9.8307 L7.6892,6.9557 C7.6902,6.9547 7.6902,6.9547 7.6902,6.9547 C7.7582,6.8867 7.8402,6.8317 7.9302,6.7947 C8.0202,6.7567 8.1182,6.7367 8.2172,6.7367 C8.3172,6.7367 8.4152,6.7567 8.5052,6.7947 C8.5942,6.8317 8.6752,6.8867 8.7432,6.9537 C8.7442,6.9547 8.7452,6.9547 8.7452,6.9557 L11.6072,9.8307 C11.8972,10.1227 11.8972,10.5947 11.6052,10.8837" id="Fill-6"></path>
        </g>
    </g>
</svg>