<?xml version="1.0" encoding="UTF-8"?>
<svg width="24px"  height="24px"  viewBox="0 0 24 24" version="1.1" xmlns="http://www.w3.org/2000/svg" xmlns:xlink="http://www.w3.org/1999/xlink">
    <title>Iconly/Bulk/Paper Download</title>
    <g id="Iconly/Bulk/Paper-Download" stroke="none" stroke-width="1" fill="none" fill-rule="evenodd">
        <g id="Paper-Download" transform="translate(3.500000, 2.000000)" fill="#000000"  fill-rule="nonzero">
            <path d="M15.3089109,7.021 C14.8574257,7.021 14.2594059,7.011 13.5148515,7.011 C11.6990099,7.011 10.2059406,5.508 10.2059406,3.675 L10.2059406,0.459 C10.2059406,0.206 10.0029703,0 9.75247525,0 L4.46435644,0 C1.9960396,0 0,2.026 0,4.509 L0,15.284 C0,17.889 2.09108911,20 4.67029703,20 L12.5455446,20 C15.0059406,20 17,17.987 17,15.502 L17,7.471 C17,7.217 16.7980198,7.012 16.5465347,7.013 C16.1237624,7.016 15.6168317,7.021 15.3089109,7.021" id="Fill-3" opacity="0.400000006"></path>
            <path d="M12.5843,0.5673 C12.2853,0.2563 11.7633,0.4703 11.7633,0.9013 L11.7633,3.5383 C11.7633,4.6443 12.6733,5.5543 13.7793,5.5543 C14.4773,5.5623 15.4453,5.5643 16.2673,5.5623 C16.6883,5.5613 16.9023,5.0583 16.6103,4.7543 C15.5553,3.6573 13.6663,1.6913 12.5843,0.5673" id="Fill-1" opacity="0.400000006"></path>
            <path d="M11.6053,10.7089 C11.3133,10.4199 10.8433,10.4179 10.5513,10.7109 L8.9623,12.3079 L8.9623,7.4809 C8.9623,7.0699 8.6283,6.7359 8.2173,6.7359 C7.8063,6.7359 7.4723,7.0699 7.4723,7.4809 L7.4723,12.3079 L5.8823,10.7109 C5.5913,10.4179 5.1203,10.4199 4.8293,10.7089 C4.5373,10.9989 4.5373,11.4699 4.8263,11.7619 L7.6893,14.6379 L7.6903,14.6379 C7.7583,14.7059 7.8393,14.7609 7.9303,14.7989 C8.0203,14.8359 8.1183,14.8559 8.2173,14.8559 C8.3173,14.8559 8.4153,14.8359 8.5053,14.7979 C8.5943,14.7609 8.6753,14.7059 8.7433,14.6389 C8.7433,14.6389 8.7453,14.6379 8.7453,14.6379 L11.6073,11.7619 C11.8973,11.4699 11.8973,10.9989 11.6053,10.7089" id="Fill-6"></path>
        </g>
    </g>
</svg>