<?xml version="1.0" encoding="UTF-8"?>
<svg width="24px"  height="24px"  viewBox="0 0 24 24" version="1.1" xmlns="http://www.w3.org/2000/svg" xmlns:xlink="http://www.w3.org/1999/xlink">
    <title>Iconly/Bulk/Info Circle</title>
    <g id="Iconly/Bulk/Info-Circle" stroke="none" stroke-width="1" fill="none" fill-rule="evenodd">
        <path d="M21.9999,11.9998 C21.9999,17.5238 17.5229,21.9998 11.9999,21.9998 C6.4769,21.9998 1.9999,17.5238 1.9999,11.9998 C1.9999,6.4778 6.4769,1.9998 11.9999,1.9998 C17.5229,1.9998 21.9999,6.4778 21.9999,11.9998" id="Fill-1" fill="#000000"  fill-rule="nonzero" opacity="0.400000006"></path>
        <path d="M11.995,14.9285 C12.488,14.9285 12.88,15.3215 12.88,15.8035 C12.88,16.2855 12.488,16.6785 12.005,16.6785 C11.52,16.6785 11.125,16.2855 11.125,15.8035 C11.125,15.3215 11.516,14.9285 11.995,14.9285 Z M11.995,7.3357 C12.477,7.3357 12.87,7.7287 12.87,8.2107 L12.87,8.2107 L12.87,12.6307 C12.87,13.1127 12.477,13.5057 11.995,13.5057 C11.513,13.5057 11.12,13.1127 11.12,12.6307 L11.12,12.6307 L11.12,8.2107 C11.12,7.7287 11.513,7.3357 11.995,7.3357 Z" id="Combined-Shape" fill="#000000"  fill-rule="nonzero"></path>
    </g>
</svg>