<?xml version="1.0" encoding="UTF-8"?>
<svg width="24px"  height="24px"  viewBox="0 0 24 24" version="1.1" xmlns="http://www.w3.org/2000/svg" xmlns:xlink="http://www.w3.org/1999/xlink">
    <title>Iconly/Bulk/Notification</title>
    <g id="Iconly/Bulk/Notification" stroke="none" stroke-width="1" fill="none" fill-rule="evenodd">
        <g id="Notification" transform="translate(3.500000, 2.000000)" fill="#000000"  fill-rule="nonzero">
            <path d="M16.2695118,9.64533514 C15.5390237,8.79229151 15.207074,8.05305417 15.207074,6.79715641 L15.207074,6.37013102 C15.207074,4.73353609 14.8304005,3.67906539 14.0114586,2.62459469 C12.7492546,0.986992633 10.6243788,0 8.54422683,0 L8.45577317,0 C6.41935107,0 4.36106402,0.941671542 3.07699503,2.51280267 C2.21332944,3.58842321 1.79292605,4.688215 1.79292605,6.37013102 L1.79292605,6.79715641 C1.79292605,8.05305417 1.48284127,8.79229151 0.730488161,9.64533514 C0.176907337,10.2737876 1.77635684e-15,11.0815101 1.77635684e-15,11.9557036 C1.77635684e-15,12.8309042 0.287225957,13.6597766 0.863665595,14.3335501 C1.61601871,15.1412727 2.67845659,15.656926 3.76375329,15.746561 C5.33504823,15.9258311 6.90634317,15.9933092 8.50049693,15.9933092 C10.0936568,15.9933092 11.6649518,15.88051 13.2372406,15.746561 C14.3215434,15.656926 15.3839813,15.1412727 16.1363344,14.3335501 C16.7117802,13.6597766 17,12.8309042 17,11.9557036 C17,11.0815101 16.8230927,10.2737876 16.2695118,9.64533514" id="Fill-1"></path>
            <path d="M10.5086934,17.2283593 C10.0087811,17.1216029 6.96259573,17.1216029 6.46268343,17.2283593 C6.035323,17.3270585 5.57317743,17.5566854 5.57317743,18.060253 C5.59802397,18.5406566 5.87928676,18.9646606 6.26888044,19.2335657 L6.26788658,19.2345729 C6.77177433,19.6273556 7.36312189,19.8771252 7.98229757,19.9667602 C8.31225957,20.0120813 8.64818474,20.0100671 8.99007308,19.9667602 C9.6082549,19.8771252 10.1996025,19.6273556 10.7034902,19.2345729 L10.7024963,19.2335657 C11.09209,18.9646606 11.3733528,18.5406566 11.3981994,18.060253 C11.3981994,17.5566854 10.9360538,17.3270585 10.5086934,17.2283593" id="Fill-4" opacity="0.400000006"></path>
        </g>
    </g>
</svg>