<?xml version="1.0" encoding="UTF-8"?>
<svg width="24px"  height="24px"  viewBox="0 0 24 24" version="1.1" xmlns="http://www.w3.org/2000/svg" xmlns:xlink="http://www.w3.org/1999/xlink">
    <title>Iconly/Bold/Arrow - Up 3</title>
    <g id="Iconly/Bold/Arrow---Up-3" stroke="none" stroke-width="1" fill="none" fill-rule="evenodd">
        <g id="Arrow---Up-3" transform="translate(6.500000, 3.000000)" fill="#000000"  fill-rule="nonzero">
            <path d="M0.0898969919,8.85852597 C0.216135321,9.09252108 0.456179416,9.23840087 0.717263233,9.23840087 L4.78271124,9.23840087 L4.78271124,17.2657057 C4.78271124,17.6710362 5.10404517,18 5.49997447,18 C5.89590378,18 6.2172377,17.6710362 6.2172377,17.2657057 L6.2172377,9.23840087 L10.2826857,9.23840087 C10.5447259,9.23840087 10.78477,9.09252108 10.9100519,8.85852597 C11.0372466,8.62453087 11.0286395,8.33864564 10.8899686,8.112483 L6.10725734,0.342670655 C5.97528091,0.12923579 5.74671302,0 5.49997447,0 C5.25323592,0 5.02466803,0.12923579 4.8926916,0.342670655 L0.109980362,8.112483 C0.0372976881,8.2319282 0,8.36801741 0,8.50410661 C0,8.62550993 0.0306032313,8.7478923 0.0898969919,8.85852597"></path>
        </g>
    </g>
</svg>