<?xml version="1.0" encoding="UTF-8"?>
<svg width="24px"  height="24px"  viewBox="0 0 24 24" version="1.1" xmlns="http://www.w3.org/2000/svg" xmlns:xlink="http://www.w3.org/1999/xlink">
    <title>Iconly/Two-tone/Work</title>
    <g id="Iconly/Two-tone/Work" stroke="#000000"  stroke-width="2"  fill="none" fill-rule="evenodd" stroke-linecap="round" stroke-linejoin="round">
        <g id="Work" transform="translate(2.000000, 2.000000)" stroke="#000000"  stroke-width="2" >
            <path d="M0.8041,13.477 C0.8041,13.477 0.9461,15.215 0.9791,15.763 C1.0231,16.498 1.3071,17.319 1.7811,17.889 C2.4501,18.697 3.2381,18.982 4.2901,18.984 C5.5271,18.986 14.5221,18.986 15.7591,18.984 C16.8111,18.982 17.5991,18.697 18.2681,17.889 C18.7421,17.319 19.0261,16.498 19.0711,15.763 C19.1031,15.215 19.2451,13.477 19.2451,13.477" id="Stroke-1" opacity="0.400000006"></path>
            <path d="M6.496,3.3295 L6.496,2.9585 C6.496,1.7385 7.484,0.7505 8.704,0.7505 L11.286,0.7505 C12.505,0.7505 13.494,1.7385 13.494,2.9585 L13.495,3.3295" id="Stroke-3"></path>
            <line x1="9.995" y1="14.6782" x2="9.995" y2="13.3842" id="Stroke-5"></line>
            <path d="M0.7499,6.3891 L0.7499,9.8561 C2.6679,11.1211 4.9659,12.0071 7.4879,12.3581 C7.7899,11.2571 8.7829,10.4501 9.9899,10.4501 C11.1779,10.4501 12.1909,11.2571 12.4729,12.3681 C15.0049,12.0171 17.3119,11.1311 19.2399,9.8561 L19.2399,6.3891 C19.2399,4.6951 17.8769,3.3311 16.1829,3.3311 L3.8169,3.3311 C2.1229,3.3311 0.7499,4.6951 0.7499,6.3891 Z" id="Stroke-7"></path>
        </g>
    </g>
</svg>