<svg width="24px"  height="24px"  viewBox="0 0 24 24" fill="none" xmlns="http://www.w3.org/2000/svg">
<path opacity="0.4" fill-rule="evenodd" clip-rule="evenodd" d="M16.217 2.5H7.782C4.622 2.5 2.5 4.72 2.5 8.026V15.974C2.5 19.279 4.622 21.5 7.782 21.5H16.216C19.376 21.5 21.5 19.279 21.5 15.974V8.026C21.5 4.72 19.377 2.5 16.217 2.5Z" fill="#000000" />
<path fill-rule="evenodd" clip-rule="evenodd" d="M11.994 9.07302C11.58 9.07302 11.244 8.76802 11.244 8.35402V8.29102C11.244 7.87702 11.58 7.54102 11.994 7.54102C12.408 7.54102 12.744 7.87702 12.744 8.29102C12.744 8.70502 12.408 9.07302 11.994 9.07302ZM12.744 15.892C12.744 16.306 12.408 16.642 11.994 16.642C11.58 16.642 11.244 16.306 11.244 15.892V12C11.244 11.586 11.58 11.25 11.994 11.25C12.408 11.25 12.744 11.586 12.744 12V15.892Z" fill="#000000" />
</svg>