<?xml version="1.0" encoding="UTF-8"?>
<svg width="24px"  height="24px"  viewBox="0 0 24 24" version="1.1" xmlns="http://www.w3.org/2000/svg" xmlns:xlink="http://www.w3.org/1999/xlink">
    <title>Iconly/Bulk/Image 2</title>
    <g id="Iconly/Bulk/Image-2" stroke="none" stroke-width="1" fill="none" fill-rule="evenodd">
        <g id="Image-2" transform="translate(2.000000, 2.000000)" fill="#000000"  fill-rule="nonzero">
            <path d="M19.9998998,12.7023545 L19.9998998,14.0858894 C19.9998998,14.315476 19.9898798,14.5470678 19.9698397,14.7766544 C19.6892786,17.9357258 17.4948898,20 14.3285571,20 L5.67124248,20 C4.06803607,20 2.71533066,19.4796706 1.74338677,18.5362601 C1.36262525,18.1863662 1.04198397,17.7753159 0.791482966,17.304112 C1.12214429,16.9020848 1.49288577,16.4619603 1.85360721,16.0208332 C2.46482966,15.2889633 3.05601202,14.5661164 3.42675351,14.0959151 C3.97785571,13.4141732 5.43076152,11.619588 7.44478958,12.4617397 C7.85561122,12.6321752 8.21633267,12.87279 8.54699399,13.0833279 C9.35861723,13.6247111 9.6992986,13.785121 10.2704409,13.4743269 C10.9017034,13.133456 11.3125251,12.4617397 11.7433868,11.7599467 C11.9738477,11.3879963 12.2043086,11.0280767 12.4548096,10.6972314 C13.546994,9.27359403 15.2303607,8.89262065 16.6331663,9.73477234 C17.3345691,10.1558482 17.9357715,10.6872058 18.4968938,11.2275865 C18.6171343,11.3478939 18.7373747,11.4591782 18.8475952,11.56946 C18.9978958,11.7198442 19.4988978,12.221125 19.9998998,12.7023545" id="Fill-1"></path>
            <path d="M14.3386774,7.10542736e-15 L5.67134269,7.10542736e-15 C2.2745491,7.10542736e-15 0,2.37607086 0,5.91411055 L0,14.0859897 C0,15.3181378 0.280561122,16.4119325 0.791583166,17.3042123 C1.12224449,16.9021851 1.49298597,16.4620606 1.85370741,16.0199309 C2.46492986,15.2890636 3.05611222,14.5662167 3.42685371,14.0960153 C3.97795591,13.4142735 5.43086172,11.6196883 7.44488978,12.46184 C7.85571142,12.6322755 8.21643287,12.8728902 8.54709419,13.0834282 C9.35871743,13.6248114 9.6993988,13.7852212 10.2705411,13.4734246 C10.9018036,13.1335562 11.3126253,12.46184 11.743487,11.7590444 C11.9739479,11.3880966 12.2044088,11.028177 12.4549098,10.6973317 C13.5470942,9.27369429 15.2304609,8.8927209 16.6332665,9.7348726 C17.3346693,10.1559484 17.9358717,10.6873061 18.496994,11.2276867 C18.6172345,11.3479941 18.7374749,11.4592785 18.8476954,11.5695602 C18.997996,11.7189419 19.498998,12.2202227 20,12.7024548 L20,5.91411055 C20,2.37607086 17.7254509,7.10542736e-15 14.3386774,7.10542736e-15" id="Fill-3" opacity="0.400000006"></path>
            <path d="M9.45440882,6.79666548 C9.45440882,8.20526445 8.28106212,9.37826146 6.87324649,9.37826146 C5.46643287,9.37826146 4.29308617,8.20526445 4.29308617,6.79666548 C4.29308617,5.38906907 5.46643287,4.2150695 6.87324649,4.2150695 C8.28106212,4.2150695 9.45440882,5.38906907 9.45440882,6.79666548" id="Fill-5"></path>
        </g>
    </g>
</svg>