<?xml version="1.0" encoding="UTF-8"?>
<svg width="24px"  height="24px"  viewBox="0 0 24 24" version="1.1" xmlns="http://www.w3.org/2000/svg" xmlns:xlink="http://www.w3.org/1999/xlink">
    <title>Iconly/Bulk/Arrow - Right 2</title>
    <g id="Iconly/Bulk/Arrow---Right-2" stroke="none" stroke-width="1" fill="none" fill-rule="evenodd">
        <g id="Arrow---Right-2" transform="translate(12.000000, 12.000000) rotate(-90.000000) translate(-12.000000, -12.000000) translate(6.000000, 7.000000)" fill="#000000"  fill-rule="nonzero">
            <path d="M4.86724336,0.214334561 L9.08645432,7.06244425 C9.18045902,7.21581846 9.17145857,7.41217653 9.06045302,7.55578168 C8.55942797,8.20640094 8.05140257,8.7876599 7.62438122,9.1754915 C7.62438122,9.1754915 7.28236412,9.50959329 7.06535327,9.65417535 C6.76933847,9.88765583 6.38231912,10 6.00630032,10 C5.58427921,10 5.18525926,9.87690987 4.86624331,9.63170651 C4.80924046,9.57602288 4.55822791,9.36403432 4.35321766,9.16376863 C3.07715386,7.99538929 0.969048452,4.94548937 0.330016501,3.34141004 C0.227011351,3.10792955 0.0120006,2.48466365 1.39444012e-13,2.16130783 C1.39444012e-13,1.84967488 0.0680034002,1.54878789 0.217010851,1.25962377 C0.422021101,0.904030058 0.740037002,0.625611904 1.11705585,0.469306976 C1.37906895,0.368685678 2.16510826,0.213357655 2.18810941,0.213357655 C2.74913746,0.112736357 3.53717686,0.0375146103 4.45722286,0.000392189745 C4.62223111,-0.00644615088 4.78223911,0.0765908425 4.86724336,0.214334561" id="Fill-1"></path>
            <path d="M7.13975699,0.672308002 C6.95274764,0.370444108 7.19175959,-0.00957224946 7.55077754,0.0050813376 C8.39281964,0.0412268524 9.13485674,0.103748824 9.68688434,0.179947477 C9.69888494,0.191670346 10.6779339,0.346998369 11.0089504,0.525772131 C11.6239812,0.837405083 12,1.44894812 12,2.10640572 L12,2.16111245 C11.9889994,2.58508957 11.6129806,3.48677362 11.5899795,3.48677362 C11.40097,3.94103482 11.080954,4.53401665 10.6959348,5.17193614 C10.5219261,5.45914644 10.0949047,5.46598478 9.91789589,5.17877448 L7.13975699,0.672308002 Z" id="Fill-4" opacity="0.400000006"></path>
        </g>
    </g>
</svg>