<?xml version="1.0" encoding="UTF-8"?>
<svg width="24px"  height="24px"  viewBox="0 0 24 24" version="1.1" xmlns="http://www.w3.org/2000/svg" xmlns:xlink="http://www.w3.org/1999/xlink">
    <title>Iconly/Bulk/Voice 2</title>
    <g id="Iconly/Bulk/Voice-2" stroke="none" stroke-width="1" fill="none" fill-rule="evenodd">
        <g id="Voice-2" transform="translate(3.500000, 2.000000)" fill="#000000"  fill-rule="nonzero">
            <path d="M8.32504986,13.2171318 L8.6747564,13.2171318 C10.5986267,13.2171318 12.2309134,11.9849614 12.8053621,10.2763773 C12.8886717,10.0276473 12.6978346,9.77126403 12.4333751,9.77126403 L11.3561627,9.77126403 C11.0132372,9.77126403 10.7361844,9.49766098 10.7361844,9.15996212 C10.7361844,8.8213066 11.0132372,8.5467469 11.3561627,8.5467469 L12.4004388,8.5467469 C12.7462704,8.5467469 13.0262294,8.27027389 13.0262294,7.92874841 C13.0262294,7.58722293 12.7462704,7.31074992 12.4004388,7.31074992 L11.3561627,7.31074992 C11.0132372,7.31074992 10.7361844,7.03619022 10.7361844,6.69849136 C10.7361844,6.35983584 11.0132372,6.08527614 11.3561627,6.08527614 L12.4004388,6.08527614 C12.7462704,6.08527614 13.0262294,5.80880313 13.0262294,5.46727765 C13.0262294,5.12575217 12.7462704,4.84927916 12.4004388,4.84927916 L11.3561627,4.84927916 C11.0132372,4.84927916 10.7361844,4.57471946 10.7361844,4.23606394 C10.7361844,3.89836508 11.0132372,3.62380538 11.3561627,3.62380538 L12.4885919,3.62380538 C12.7482079,3.62380538 12.9342014,3.37890195 12.8644538,3.13112856 C12.3500655,1.32400915 10.669343,-1.77635684e-15 8.6747564,-1.77635684e-15 L8.32504986,-1.77635684e-15 C5.92166505,-1.77635684e-15 3.97357684,1.92287455 3.97357684,4.2972898 L3.97357684,8.91984196 C3.97357684,11.2933006 5.92166505,13.2171318 8.32504986,13.2171318" id="Fill-1"></path>
            <path d="M16.0312838,7.82562111 C15.4965525,7.82562111 15.0625677,8.25324545 15.0625677,8.78227511 C15.0625677,12.3553778 12.1186392,15.2626494 8.50048436,15.2626494 C4.88136076,15.2626494 1.93743233,12.3553778 1.93743233,8.78227511 C1.93743233,8.25324545 1.50344749,7.82562111 0.968716166,7.82562111 C0.433984842,7.82562111 0,8.25324545 0,8.78227511 C0,13.0872181 3.29944726,16.6411878 7.53176819,17.1185581 L7.53176819,19.043346 C7.53176819,19.571419 7.96478432,20 8.50048436,20 C9.03521568,20 9.46920052,19.571419 9.46920052,19.043346 L9.46920052,17.1185581 C13.7005527,16.6411878 17,13.0872181 17,8.78227511 C17,8.25324545 16.5660152,7.82562111 16.0312838,7.82562111" id="Fill-3" opacity="0.400000006"></path>
        </g>
    </g>
</svg>