<?xml version="1.0" encoding="UTF-8"?>
<svg width="24px"  height="24px"  viewBox="0 0 24 24" version="1.1" xmlns="http://www.w3.org/2000/svg" xmlns:xlink="http://www.w3.org/1999/xlink">
    <title>Iconly/Bold/Swap</title>
    <g id="Iconly/Bold/Swap" stroke="none" stroke-width="1" fill="none" fill-rule="evenodd">
        <g id="Swap" transform="translate(2.000000, 3.000000)" fill="#000000"  fill-rule="nonzero">
            <path d="M15.2999693,9.82937829 C16.5124274,9.82937829 17.6101935,9.89826855 18.2854719,10.0265469 C18.2960048,10.0265469 18.9139371,10.1536376 19.1199146,10.2355932 C19.4171775,10.3638716 19.6687976,10.5954854 19.8291323,10.8852996 C19.9438243,11.1169134 20,11.3615926 20,11.6169616 C19.9894671,11.8830205 19.8174291,12.3830688 19.7366766,12.5802374 C19.2346066,13.8796501 17.586787,16.3632626 16.5814767,17.3158485 C16.4211419,17.4773843 16.2268678,17.6519854 16.181225,17.6983082 C15.9284345,17.8954769 15.6206387,18 15.2894363,18 C14.9910031,18 14.6937402,17.9073545 14.4538233,17.7208757 C14.3291836,17.6317935 14.1472709,17.4545198 14.0641046,17.3714507 L14.0196322,17.3265384 L14.0196322,17.3265384 C12.9780418,16.3525727 11.4121451,13.9259729 10.9089047,12.6954504 C10.8981767,12.6954504 10.6474993,12.0816491 10.5967798,11.7112891 L10.5882353,11.6169616 L10.5882353,11.5706389 C10.5882353,11.0361455 10.8854982,10.537285 11.3665023,10.281916 C11.6298258,10.1429477 12.3952192,10.0146693 12.4069225,10.0027917 C13.0927337,9.89826855 14.1448571,9.82937829 15.2999693,9.82937829 Z M4.70553126,9.89052811 C5.18477991,9.89052811 5.57926349,10.2561392 5.63317314,10.7277467 L5.6394517,10.8383427 L5.89575318,15.4170709 C5.89575318,16.0845794 5.36325468,16.625 4.70553126,16.625 C4.08891555,16.625 3.5813322,16.150021 3.52029293,15.5406385 L3.51413901,15.4170709 L3.77161081,10.8383427 C3.77161081,10.3145504 4.18941732,9.89052811 4.70553126,9.89052811 Z M4.71173398,7.10542736e-14 C5.00782656,7.10542736e-14 5.30508946,0.0926435287 5.54617669,0.277930586 C5.65004316,0.352906519 5.79368243,0.488661209 5.88680567,0.579933736 L5.98036778,0.673447189 C7.02078792,1.64857972 8.58785494,4.07393979 9.09109528,5.30443589 C9.10075047,5.30443589 9.35232188,5.91922204 9.40319789,6.28974048 L9.41176471,6.38408932 L9.41176471,6.43041108 C9.41176471,6.96370524 9.11333148,7.46255501 8.63349767,7.71791858 C8.37017423,7.85807161 7.60478078,7.98515953 7.59307752,7.99703691 C6.90726626,8.10155781 5.85514285,8.17044659 4.70003072,8.17044659 C3.4875726,8.17044659 2.38980646,8.10155781 1.71452814,7.97328216 C1.70282488,7.97328216 1.08606288,7.84619424 0.880085434,7.76424035 C0.582822535,7.63715243 0.331202364,7.40435587 0.170867651,7.11454791 C0.056175666,6.88293909 -2.82440737e-13,6.63826515 -2.82440737e-13,6.38408932 C0.0105329374,6.11684837 0.182570914,5.6179986 0.262153108,5.42083417 C0.765393449,4.12026155 2.41204266,1.63670234 3.41852334,0.685324565 C3.57885805,0.522604521 3.77313223,0.348007101 3.81877496,0.301685337 C4.07039513,0.104520904 4.37936129,7.10542736e-14 4.71173398,7.10542736e-14 Z M15.2947028,1.375 C15.9113185,1.375 16.4178733,1.84998921 16.4787839,2.45938471 L16.4849247,2.58295498 L16.2286233,7.16178136 C16.2286233,7.68558484 15.8108167,8.10961624 15.2947028,8.10961624 C14.8154542,8.10961624 14.4209706,7.74399733 14.3670609,7.27237967 L14.3607824,7.16178136 L14.1033106,2.58295498 C14.1033106,1.91543217 14.6369794,1.375 15.2947028,1.375 Z"></path>
        </g>
    </g>
</svg>