<?xml version="1.0" encoding="UTF-8"?>
<svg width="24px"  height="24px"  viewBox="0 0 24 24" version="1.1" xmlns="http://www.w3.org/2000/svg" xmlns:xlink="http://www.w3.org/1999/xlink">
    <title>Iconly/Two-tone/Voice 2</title>
    <g id="Iconly/Two-tone/Voice-2" stroke="#000000"  stroke-width="1.5"  fill="none" fill-rule="evenodd" stroke-linecap="round" stroke-linejoin="round">
        <g id="Voice-2" transform="translate(4.000000, 2.000000)" stroke="#000000"  stroke-width="1.5" >
            <path d="M0.714380952,8.932 C0.714380952,13.0215238 4.02866667,16.3358095 8.11819048,16.3358095 C12.2077143,16.3358095 15.5229524,13.0215238 15.5229524,8.932" id="Stroke-1" opacity="0.400000006"></path>
            <line x1="8.11857143" y1="19.1468571" x2="8.11857143" y2="16.336381" id="Stroke-3" opacity="0.400000006"></line>
            <path d="M8.24457143,12.584381 L7.99219048,12.584381 C5.9712381,12.584381 4.33219048,10.9462857 4.33219048,8.92438095 L4.33219048,4.37390476 C4.33219048,2.35295238 5.9712381,0.713904762 7.99219048,0.713904762 L8.24457143,0.713904762 C10.2664762,0.713904762 11.9045714,2.35295238 11.9045714,4.37390476 L11.9045714,8.92438095 C11.9045714,10.9462857 10.2664762,12.584381 8.24457143,12.584381 Z M10.0015238,4.87695238 L11.904381,4.87695238 M9.04914286,8.04847619 L11.904381,8.04847619" id="Combined-Shape"></path>
        </g>
    </g>
</svg>