<?xml version="1.0" encoding="UTF-8"?>
<svg width="24px"  height="24px"  viewBox="0 0 24 24" version="1.1" xmlns="http://www.w3.org/2000/svg" xmlns:xlink="http://www.w3.org/1999/xlink">
    <title>Iconly/Bold/Paper Download</title>
    <g id="Iconly/Bold/Paper-Download" stroke="none" stroke-width="1" fill="none" fill-rule="evenodd">
        <g id="Paper-Download" transform="translate(3.500000, 2.000000)" fill="#000000"  fill-rule="nonzero">
            <path d="M9.75247525,0 C10,0 10.2079208,0.21 10.2079208,0.46 L10.2079208,0.46 L10.2079208,3.68 C10.2079208,5.51 11.6930693,7.01 13.5148515,7.02 C14.2574257,7.02 14.8613861,7.03 15.3069307,7.03 L15.4756142,7.02925926 C15.779978,7.02694444 16.189769,7.02 16.5445545,7.02 C16.8019802,7.02 17,7.22 17,7.47 L17,7.47 L17,15.51 C17,17.99 15,20 12.5445545,20 L12.5445545,20 L4.67326733,20 C2.08910891,20 -2.13162821e-14,17.89 -2.13162821e-14,15.29 L-2.13162821e-14,15.29 L-2.13162821e-14,4.51 C-2.13162821e-14,2.03 1.99009901,0 4.46534653,0 L4.46534653,0 Z M8.13861386,6.74 C7.73267327,6.74 7.3960396,7.07 7.3960396,7.49 L7.3960396,7.49 L7.3960396,12.31 L5.82178218,10.71 C5.53465347,10.42 5.06930693,10.42 4.78217822,10.71 C4.4950495,11 4.4950495,11.47 4.78217822,11.77 L4.78217822,11.77 L7.61386139,14.64 C7.68316832,14.71 7.76237624,14.76 7.85148515,14.8 C7.94059406,14.84 8.03960396,14.86 8.13861386,14.86 C8.23762376,14.86 8.32673267,14.84 8.41584158,14.8 C8.5049505,14.76 8.58415842,14.71 8.65346535,14.64 L8.65346535,14.64 L11.4950495,11.77 C11.7821782,11.47 11.7821782,11 11.4851485,10.71 C11.1980198,10.42 10.7326733,10.42 10.4455446,10.71 L10.4455446,10.71 L8.87128713,12.31 L8.87128713,7.49 C8.87128713,7.07 8.54455446,6.74 8.13861386,6.74 Z M11.6450495,0.9061 C11.6450495,0.4751 12.1628713,0.2611 12.4579208,0.5721 C13.5292079,1.6961 15.399505,3.6611 16.4450495,4.7591 C16.7341584,5.0621 16.5222772,5.5651 16.1044554,5.5661 C15.2915842,5.5691 14.3321782,5.5661 13.6420792,5.5591 C12.5470297,5.5591 11.6450495,4.6481 11.6450495,3.5421 L11.6450495,3.5421 Z"></path>
        </g>
    </g>
</svg>