<?xml version="1.0" encoding="UTF-8"?>
<svg width="24px"  height="24px"  viewBox="0 0 24 24" version="1.1" xmlns="http://www.w3.org/2000/svg" xmlns:xlink="http://www.w3.org/1999/xlink">
    <title>Iconly/Bulk/Download</title>
    <g id="Iconly/Bulk/Download" stroke="none" stroke-width="1" fill="none" fill-rule="evenodd">
        <g id="Download" transform="translate(2.000000, 2.500000)" fill="#000000"  fill-rule="nonzero">
            <path d="M2.8980937,6.3440937 C2.8980937,3.8930937 4.95788916,1.8980937 7.48952749,1.8980937 L12.5218298,1.8980937 C15.0472732,1.8980937 17.1019063,3.8880937 17.1019063,6.3340937 L17.1019063,17.4500937 C17.1019063,19.9020937 15.0431433,21.8980937 12.511505,21.8980937 L7.4792027,21.8980937 C4.95375924,21.8980937 2.8980937,19.9070937 2.8980937,17.4600937 L2.8980937,16.5200937 L2.8980937,6.3440937 Z" id="Fill-1" opacity="0.400000006" transform="translate(10.000000, 11.898094) rotate(-270.000000) translate(-10.000000, -11.898094) "></path>
            <path d="M16.6539903,6.3383567 L13.6860827,3.4293567 C13.379338,3.1293567 12.8857024,3.1293567 12.5799734,3.4313567 C12.2752601,3.7333567 12.2762758,4.2203567 12.5820048,4.5203567 L14.2071425,6.1133567 L3.89869141,6.1133567 C3.46701423,6.1133567 3.11659393,6.4583567 3.11659393,6.8843567 C3.11659393,7.3093567 3.46701423,7.6533567 3.89869141,7.6533567 L14.2071425,7.6533567 L12.5820048,9.2473567 C12.2762758,9.5473567 12.2752601,10.0343567 12.5799734,10.3363567 C12.7333458,10.4873567 12.9334409,10.5633567 13.1345516,10.5633567 C13.333631,10.5633567 13.5337261,10.4873567 13.6860827,10.3383567 L16.6539903,7.4293567 C16.8012684,7.2843567 16.8845567,7.0883567 16.8845567,6.8843567 C16.8845567,6.6793567 16.8012684,6.4833567 16.6539903,6.3383567" id="Fill-4" transform="translate(10.000575, 6.883981) rotate(-270.000000) translate(-10.000575, -6.883981) "></path>
        </g>
    </g>
</svg>