<?xml version="1.0" encoding="UTF-8"?>
<svg width="24px"  height="24px"  viewBox="0 0 24 24" version="1.1" xmlns="http://www.w3.org/2000/svg" xmlns:xlink="http://www.w3.org/1999/xlink">
    <title>Iconly/Bulk/Paper Plus</title>
    <g id="Iconly/Bulk/Paper-Plus" stroke="none" stroke-width="1" fill="none" fill-rule="evenodd">
        <g id="Paper-Plus" transform="translate(3.500000, 2.000000)" fill="#000000"  fill-rule="nonzero">
            <path d="M15.3088124,7.021 C14.8573009,7.021 14.2592463,7.011 13.5146485,7.011 C11.6987011,7.011 10.2055449,5.508 10.2055449,3.675 L10.2055449,0.459 C10.2055449,0.206 10.0025628,0 9.75304328,0 L4.4636263,0 C1.99516571,0 0,2.026 0,4.509 L0,15.284 C0,17.889 2.09022075,20 4.66957889,20 L12.5452851,20 C15.0058245,20 17,17.987 17,15.502 L17,7.471 C17,7.217 16.798008,7.012 16.5465082,7.013 C16.1247015,7.016 15.6167511,7.021 15.3088124,7.021" id="Fill-3" opacity="0.400000006"></path>
            <path d="M12.5841,0.5673 C12.2851,0.2563 11.7631,0.4703 11.7631,0.9013 L11.7631,3.5383 C11.7631,4.6443 12.6741,5.5543 13.7791,5.5543 C14.4771,5.5623 15.4451,5.5643 16.2671,5.5623 C16.6881,5.5613 16.9021,5.0583 16.6101,4.7543 C15.5551,3.6573 13.6661,1.6913 12.5841,0.5673" id="Fill-1" opacity="0.400000006"></path>
            <path d="M10.8673,10.2363 L9.1393,10.2363 L9.1393,8.5093 C9.1393,8.0983 8.8063,7.7643 8.3953,7.7643 C7.9843,7.7643 7.6503,8.0983 7.6503,8.5093 L7.6503,10.2363 L5.9233,10.2363 C5.5123,10.2363 5.1793,10.5703 5.1793,10.9813 C5.1793,11.3923 5.5123,11.7263 5.9233,11.7263 L7.6503,11.7263 L7.6503,13.4523 C7.6503,13.8633 7.9843,14.1973 8.3953,14.1973 C8.8063,14.1973 9.1393,13.8633 9.1393,13.4523 L9.1393,11.7263 L10.8673,11.7263 C11.2783,11.7263 11.6123,11.3923 11.6123,10.9813 C11.6123,10.5703 11.2783,10.2363 10.8673,10.2363" id="Fill-6"></path>
        </g>
    </g>
</svg>