<?xml version="1.0" encoding="UTF-8"?>
<svg width="24px"  height="24px"  viewBox="0 0 24 24" version="1.1" xmlns="http://www.w3.org/2000/svg" xmlns:xlink="http://www.w3.org/1999/xlink">
    <title>Iconly/Bold/Call Silent</title>
    <g id="Iconly/Bold/Call-Silent" stroke="none" stroke-width="1" fill="none" fill-rule="evenodd">
        <g id="Call-Silent" transform="translate(1.000217, 1.500000)" fill="#000000" >
            <g id="Group" transform="translate(0.199783, 0.100000)">
                <path d="M19.5702051,0.764208609 C19.7981764,0.764208609 20.0162359,0.866864453 20.1748247,1.02948757 C20.5019139,1.3750617 20.5019139,1.91375079 20.1748247,2.25932491 L20.1748247,2.26948886 L10.7586192,11.9150726 L10.2972167,12.3872086 L10.8903445,11.782439 C14.1705147,14.4762098 15.0956909,10.6233663 17.4191447,12.9844403 C19.8161922,15.4313715 21.1944944,15.9250506 18.1550804,19.0266433 C18.1176723,19.0592141 18.0589632,19.1270461 17.9747718,19.213546 L17.9148232,19.2737961 C17.1173623,20.0567108 14.4868467,21.8793294 7.60571322,15.1475254 L2.24438712,20.6459014 C2.0758866,20.8085245 1.86773891,20.9 1.64967941,20.9 C1.43161992,20.9 1.22347222,20.8085245 1.0450599,20.6459014 C0.767529637,20.351147 0.727882457,19.9140973 0.916206566,19.5888511 L0.945941951,19.5481953 C0.965765542,19.5166871 0.985589132,19.4872116 1.01532452,19.4567198 L18.9754974,1.02948757 C19.1241744,0.866864453 19.3422339,0.764208609 19.5702051,0.764208609 Z M8.00950365,3.53662665 C10.0404988,5.60793244 7.40760976,6.59529063 8.48657596,9.05295397 L4.98522487,12.6052971 C-1.02313592,5.7975809 1.38811414,3.44830934 1.96339292,2.87990147 L2.00740831,2.83604646 C2.02700152,2.81617877 2.04280109,2.79935589 2.05403337,2.78537585 C5.12274017,-0.326948906 5.59875467,1.08969546 8.00950365,3.53662665 Z" id="Combined-Shape"></path>
            </g>
        </g>
    </g>
</svg>