<?xml version="1.0" encoding="UTF-8"?>
<svg width="24px"  height="24px"  viewBox="0 0 24 24" version="1.1" xmlns="http://www.w3.org/2000/svg" xmlns:xlink="http://www.w3.org/1999/xlink">
    <title>Iconly/Bold/Unlock</title>
    <g id="Iconly/Bold/Unlock" stroke="none" stroke-width="1" fill="none" fill-rule="evenodd">
        <g id="Unlock" transform="translate(3.500000, 2.000000)" fill="#000000"  fill-rule="nonzero">
            <path d="M8.47866109,0 C10.8462642,0 12.9384937,1.4620813 13.7107591,3.62786999 C13.7920502,3.84653613 13.7717274,4.08508101 13.6701136,4.29380777 C13.5684997,4.50253454 13.3866109,4.66156446 13.1620442,4.73213398 C12.7047818,4.89016996 12.1967125,4.65261902 12.0239689,4.19540801 C11.5057382,2.72338734 10.0841602,1.73938972 8.49898386,1.73938972 C6.42504483,1.73938972 4.74943216,3.37044031 4.73825463,5.36725972 L4.73825463,5.36725972 L4.73825463,6.70907464 L4.72606097,6.71106252 L12.7312014,6.71106252 C15.0886432,6.71106252 17,8.58065799 17,10.8865918 L17,10.8865918 L17,15.8244707 C17,18.1304045 15.0886432,20 12.7312014,20 L12.7312014,20 L4.26778243,20 C1.91135684,20 0,18.1304045 0,15.8244707 L0,15.8244707 L0,10.8865918 C0,8.99016002 1.3006575,7.40681841 3.07077107,6.89792267 L3.07077107,6.89792267 L2.96001195,6.91084385 L2.96001195,5.38713846 C2.98033473,2.41626081 5.45056784,0 8.47866109,0 Z M8.49491931,11.3825663 C8.00717274,11.3825663 7.61087866,11.7702018 7.61087866,12.2472915 L7.61087866,12.2472915 L7.61087866,14.4538316 C7.61087866,14.9408607 8.00717274,15.3284962 8.49491931,15.3284962 C8.99282726,15.3284962 9.38912134,14.9408607 9.38912134,14.4538316 L9.38912134,14.4538316 L9.38912134,12.2472915 C9.38912134,11.7702018 8.99282726,11.3825663 8.49491931,11.3825663 Z"></path>
        </g>
    </g>
</svg>