<?xml version="1.0" encoding="UTF-8"?>
<svg width="24px"  height="24px"  viewBox="0 0 24 24" version="1.1" xmlns="http://www.w3.org/2000/svg" xmlns:xlink="http://www.w3.org/1999/xlink">
    <title>Iconly/Bold/Work</title>
    <g id="Iconly/Bold/Work" stroke="none" stroke-width="1" fill="none" fill-rule="evenodd">
        <g id="Work" transform="translate(2.000000, 2.000000)" fill="#000000"  fill-rule="nonzero">
            <path d="M19.809905,10.8152364 C19.881941,10.8557425 19.8963482,10.9416155 19.8992296,10.9743444 L19.89995,10.9873874 L19.81991,16.1519182 C19.81991,18.2120344 18.2237017,19.89201 16.2137703,19.9949967 L16.018009,20 L3.97198599,20 C1.9365933,20 0.276779015,18.384403 0.17502831,16.3500574 L0.170085043,16.1519182 L0.100050025,10.9873874 C0.100050025,10.9873874 0.100050025,10.865869 0.190095048,10.8152364 C0.270135068,10.7646037 0.370185093,10.8253629 0.380190095,10.8354894 C2.4012006,12.1924446 4.83241621,13.0937059 7.38369185,13.4683875 C7.74387194,13.5190202 8.10405203,13.2861099 8.20410205,12.9215548 C8.41045523,12.1430778 9.04768791,11.6138083 9.82726471,11.5506905 L9.9849925,11.5443466 L10.0150075,11.5443466 C10.8654327,11.5443466 11.5757879,12.0911793 11.7958979,12.9215548 C11.895948,13.2861099 12.2561281,13.5190202 12.6163082,13.4683875 C15.1675838,13.0937059 17.5987994,12.1924446 19.6198099,10.8354894 C19.6198099,10.8354894 19.6398199,10.8253629 19.6598299,10.8152364 C19.6998499,10.7949833 19.7598799,10.7848568 19.809905,10.8152364 Z M9.9949975,12.9924405 C9.61897615,12.9924405 9.30180368,13.2817499 9.25155286,13.6497684 L9.24462231,13.7519304 L9.24462231,15.0582529 C9.24462231,15.4835672 9.5847924,15.8177427 9.9949975,15.8177427 C10.3801901,15.8177427 10.6897199,15.5369424 10.7386332,15.1625421 L10.7453727,15.0582529 L10.7453727,13.7519304 C10.7453727,13.3367426 10.4152076,12.9924405 9.9949975,12.9924405 Z M11.2856428,9.76996262e-15 C12.7863932,9.76996262e-15 14.0170085,1.144298 14.2071036,2.612645 L14.2071036,2.612645 L16.188094,2.612645 C18.2891446,2.612645 20,4.3442818 20,6.47085331 C20,6.47085331 19.93997,7.37110192 19.91996,8.62476646 C19.917959,8.72400646 19.869935,8.82122116 19.7908954,8.87995504 C19.3096548,9.23539628 18.8694347,9.52906568 18.8294147,9.54931874 C17.1685843,10.6632371 15.2386193,11.4470306 13.1825913,11.8369021 C13.0485243,11.8632311 12.9164582,11.793358 12.8484242,11.6738649 C12.2721361,10.675389 11.1955978,10.0252657 9.9949975,10.0252657 C8.8024012,10.0252657 7.71585793,10.6683004 7.12256128,11.667789 C7.05352676,11.7852568 6.92346173,11.8531045 6.7903952,11.8277882 C4.75137569,11.4369041 2.82141071,10.6541233 1.17058529,9.55944527 L1.17058529,9.55944527 L0.210105053,8.89109422 C0.130065033,8.84046157 0.08004002,8.74932279 0.08004002,8.64805748 C0.0500250125,8.1316044 5.32907052e-15,6.47085331 5.32907052e-15,6.47085331 C5.32907052e-15,4.3442818 1.71085543,2.612645 3.81190595,2.612645 L3.81190595,2.612645 L5.78289145,2.612645 C5.97298649,1.144298 7.2036018,9.76996262e-15 8.70435218,9.76996262e-15 L8.70435218,9.76996262e-15 Z M11.2856428,1.51897965 L8.70435218,1.51897965 C8.03401701,1.51897965 7.46373187,1.98480008 7.30365183,2.612645 L7.30365183,2.612645 L12.6863432,2.612645 C12.5262631,1.98480008 11.955978,1.51897965 11.2856428,1.51897965 L11.2856428,1.51897965 Z"></path>
        </g>
    </g>
</svg>