<?xml version="1.0" encoding="UTF-8"?>
<svg width="24px"  height="24px"  viewBox="0 0 24 24" version="1.1" xmlns="http://www.w3.org/2000/svg" xmlns:xlink="http://www.w3.org/1999/xlink">
    <title>Iconly/Two-tone/Scan</title>
    <g id="Iconly/Two-tone/Scan" stroke="#000000"  stroke-width="2"  fill="none" fill-rule="evenodd" stroke-linecap="round" stroke-linejoin="round">
        <g id="Scan" transform="translate(1.500000, 3.500000)" stroke="#000000"  stroke-width="2" >
            <line x1="21.1315238" y1="9.51437143" x2="0" y2="9.51437143" id="Stroke-1"></line>
            <path d="M19.2501048,5.27790476 L19.2501048,3.32514286 C19.2501048,1.496 17.7541048,9.76996262e-15 15.9249619,9.76996262e-15 L14.2812476,9.76996262e-15" id="Stroke-3" opacity="0.400000006"></path>
            <path d="M1.88152381,5.27790476 L1.88152381,3.32095238 C1.88152381,1.48866667 3.366,0.00314285714 5.19828571,0.00104761905 L6.87866667,9.76996262e-15" id="Stroke-5" opacity="0.400000006"></path>
            <path d="M19.2501048,9.51437143 L19.2501048,14.0453238 C19.2501048,15.873419 17.7541048,17.3704667 15.9249619,17.3704667 L14.2812476,17.3704667" id="Stroke-7"></path>
            <path d="M1.88152381,9.51437143 L1.88152381,14.0495143 C1.88152381,15.8818 3.366,17.3673238 5.19828571,17.369419 L6.87866667,17.3704667" id="Stroke-9"></path>
        </g>
    </g>
</svg>