<svg width="24" height="25" viewBox="0 0 24 25" fill="none" xmlns="http://www.w3.org/2000/svg">
<path d="M6.26059 18.416L6.6856 15.9813C6.7546 15.5863 6.62159 15.1833 6.33159 14.9063L3.37059 12.0643C2.88959 11.6003 2.8746 10.8343 3.3386 10.3524C3.5286 10.1554 3.78058 10.0284 4.05258 9.99235L8.1426 9.40335C8.5416 9.34735 8.88859 9.09935 9.07059 8.73935L10.9016 5.08536C11.2166 4.47736 11.9646 4.24036 12.5726 4.55536C12.7996 4.67236 12.9846 4.85736 13.1026 5.08536L15.2596 9.42053" stroke="black" style="stroke:black;stroke-opacity:1;" stroke-width="1.5" stroke-linecap="round" stroke-linejoin="round"/>
<path d="M7.77344 21.2739L11.4294 19.3789C11.7894 19.1929 12.2164 19.1929 12.5764 19.3789L16.2304 21.2729C16.4664 21.3979 16.7364 21.4429 17.0004 21.4009C17.6704 21.2929 18.1264 20.6629 18.0184 19.9929L17.3184 15.9809C17.2484 15.5849 17.3814 15.1819 17.6724 14.9049L20.6304 12.063C20.8274 11.873 20.9544 11.621 20.9904 11.35C21.0774 10.687 20.6114 10.078 19.9484 9.99095L19.0014 9.85449" stroke="black" style="stroke:black;stroke-opacity:1;" stroke-width="1.5" stroke-linecap="round" stroke-linejoin="round"/>
<path d="M19.2672 5.41504L3.97656 20.7014" stroke="black" style="stroke:black;stroke-opacity:1;" stroke-width="1.5" stroke-linecap="round" stroke-linejoin="round"/>
</svg>
