<?xml version="1.0" encoding="UTF-8"?>
<svg width="24px"  height="24px"  viewBox="0 0 24 24" version="1.1" xmlns="http://www.w3.org/2000/svg" xmlns:xlink="http://www.w3.org/1999/xlink">
    <title>Iconly/Bulk/Danger</title>
    <g id="Iconly/Bulk/Danger" stroke="none" stroke-width="1" fill="none" fill-rule="evenodd">
        <g id="Group" transform="translate(1.999698, 3.000786)" fill="#000000"  fill-rule="nonzero">
            <path d="M2.72300241,18.166514 C2.71000241,18.166514 2.69800241,18.166514 2.68400241,18.165514 C2.36900241,18.149514 2.06000241,18.081514 1.76600241,17.962514 C0.319002412,17.374514 -0.378997588,15.721514 0.208002412,14.275514 L7.52900241,1.44951398 C7.78100241,0.993513983 8.16300241,0.611513983 8.62900241,0.353513983 C9.99400241,-0.402486017 11.7200024,0.0945139832 12.4750024,1.45851398 L19.7480024,14.186514 C19.9100024,14.567514 19.9790024,14.877514 19.9960024,15.193514 C20.0350024,15.949514 19.7770024,16.674514 19.2710024,17.235514 C18.7650024,17.796514 18.0700024,18.127514 17.3150024,18.165514 L2.79500241,18.166514 L2.72300241,18.166514 Z" id="Fill-5" opacity="0.400000006"></path>
            <path d="M9.99980241,12.389114 C10.4818024,12.389114 10.8748024,12.779114 10.8748024,13.258114 C10.8748024,13.751114 10.4818024,14.144114 9.99980241,14.144114 C9.51780241,14.144114 9.12480241,13.751114 9.12480241,13.269114 C9.12480241,12.784114 9.51780241,12.389114 9.99980241,12.389114 Z M9.99980241,6.14501398 C10.4818024,6.14501398 10.8748024,6.53801398 10.8748024,7.02001398 L10.8748024,7.02001398 L10.8748024,9.84801398 C10.8748024,10.331014 10.4818024,10.723014 9.99980241,10.723014 C9.51780241,10.723014 9.12480241,10.331014 9.12480241,9.84801398 L9.12480241,9.84801398 L9.12480241,7.02001398 C9.12480241,6.53801398 9.51780241,6.14501398 9.99980241,6.14501398 Z" id="Combined-Shape"></path>
        </g>
    </g>
</svg>