<?xml version="1.0" encoding="UTF-8"?>
<svg width="24px"  height="24px"  viewBox="0 0 24 24" version="1.1" xmlns="http://www.w3.org/2000/svg" xmlns:xlink="http://www.w3.org/1999/xlink">
    <title>Iconly/Bulk/Arrow - Right Circle</title>
    <g id="Iconly/Bulk/Arrow---Right-Circle" stroke="none" stroke-width="1" fill="none" fill-rule="evenodd">
        <g id="Arrow---Right-Circle" transform="translate(12.000000, 12.000000) rotate(-90.000000) translate(-12.000000, -12.000000) translate(2.000000, 2.000000)" fill="#000000"  fill-rule="nonzero">
            <path d="M20.0002,9.9999 C20.0002,15.5149 15.5142,19.9999 10.0002,19.9999 C4.4862,19.9999 0.0002,15.5149 0.0002,9.9999 C0.0002,4.4859 4.4862,-0.0001 10.0002,-0.0001 C15.5142,-0.0001 20.0002,4.4859 20.0002,9.9999" id="Fill-1" opacity="0.400000006"></path>
            <path d="M14.2209,8.5575 C14.2209,8.7485 14.1479,8.9405 14.0019,9.0865 L10.5319,12.5735 C10.3909,12.7145 10.1999,12.7935 9.9999,12.7935 C9.8009,12.7935 9.6099,12.7145 9.4689,12.5735 L5.9969,9.0865 C5.7049,8.7935 5.7049,8.3195 5.9989,8.0265 C6.2929,7.7345 6.7679,7.7355 7.0599,8.0285 L9.9999,10.9815 L12.9399,8.0285 C13.2319,7.7355 13.7059,7.7345 13.9999,8.0265 C14.1479,8.1725 14.2209,8.3655 14.2209,8.5575" id="Fill-4"></path>
        </g>
    </g>
</svg>