<?xml version="1.0" encoding="UTF-8"?>
<svg width="24px"  height="24px"  viewBox="0 0 24 24" version="1.1" xmlns="http://www.w3.org/2000/svg" xmlns:xlink="http://www.w3.org/1999/xlink">
    <title>Iconly/Bulk/Paper Negative</title>
    <g id="Iconly/Bulk/Paper-Negative" stroke="none" stroke-width="1" fill="none" fill-rule="evenodd">
        <g id="Paper-Negative" transform="translate(3.500000, 2.000000)" fill="#000000"  fill-rule="nonzero">
            <path d="M15.3089109,7.021 C14.8574257,7.021 14.2594059,7.011 13.5148515,7.011 C11.6990099,7.011 10.2059406,5.508 10.2059406,3.675 L10.2059406,0.459 C10.2059406,0.206 10.0029703,0 9.75247525,0 L4.46336634,0 C1.9960396,0 0,2.026 0,4.509 L0,15.284 C0,17.889 2.09108911,20 4.67029703,20 L12.5455446,20 C15.0059406,20 17,17.987 17,15.502 L17,7.471 C17,7.217 16.7980198,7.012 16.5465347,7.013 C16.1237624,7.016 15.6168317,7.021 15.3089109,7.021" id="Fill-3" opacity="0.400000006"></path>
            <path d="M12.5839,0.5673 C12.2859,0.2563 11.7629,0.4703 11.7629,0.9013 L11.7629,3.5383 C11.7629,4.6443 12.6739,5.5543 13.7799,5.5543 C14.4769,5.5623 15.4449,5.5643 16.2679,5.5623 C16.6879,5.5613 16.9019,5.0583 16.6099,4.7543 C15.5549,3.6573 13.6659,1.6913 12.5839,0.5673" id="Fill-1" opacity="0.400000006"></path>
            <path d="M10.8671,12.5693 L5.9241,12.5693 C5.5131,12.5693 5.1791,12.2363 5.1791,11.8253 C5.1791,11.4143 5.5131,11.0803 5.9241,11.0803 L10.8671,11.0803 C11.2781,11.0803 11.6121,11.4143 11.6121,11.8253 C11.6121,12.2363 11.2781,12.5693 10.8671,12.5693" id="Fill-6"></path>
        </g>
    </g>
</svg>