<?xml version="1.0" encoding="UTF-8"?>
<svg width="24px"  height="24px"  viewBox="0 0 24 24" version="1.1" xmlns="http://www.w3.org/2000/svg" xmlns:xlink="http://www.w3.org/1999/xlink">
    <title>Iconly/Bulk/2 User</title>
    <g id="Iconly/Bulk/2-User" stroke="none" stroke-width="1" fill="none" fill-rule="evenodd">
        <g id="2-User" transform="translate(2.000000, 3.000000)" fill="#000000"  fill-rule="nonzero">
            <path d="M7.34933305,11.8577345 C3.38552687,11.8577345 -6.83897383e-14,12.4700446 -6.83897383e-14,14.9173685 C-6.83897383e-14,17.3666088 3.3640004,18 7.34933305,18 C11.3131392,18 14.6986661,17.3876899 14.6986661,14.940366 C14.6986661,12.4911257 11.3346657,11.8577345 7.34933305,11.8577345" id="Fill-1"></path>
            <path d="M7.34933305,9.52482353 C10.0489483,9.52482353 12.2123586,7.40617314 12.2123586,4.76241176 C12.2123586,2.11865038 10.0489483,-9.76996262e-15 7.34933305,-9.76996262e-15 C4.65069631,-9.76996262e-15 2.48630745,2.11865038 2.48630745,4.76241176 C2.48630745,7.40617314 4.65069631,9.52482353 7.34933305,9.52482353" id="Fill-3" opacity="0.400000006"></path>
            <path d="M14.1734202,4.84874844 C14.1734202,6.19506404 13.7605033,7.45130586 13.0364311,8.49482023 C12.9610885,8.60214218 13.0276248,8.74683517 13.1587406,8.76983274 C13.3407371,8.79953792 13.527626,8.81774432 13.7184289,8.82157725 C15.6166723,8.87044707 17.3201989,7.67361562 17.7908459,5.87118171 C18.4884992,3.19675692 16.4415275,0.79542817 13.833889,0.79542817 C13.5511095,0.79542817 13.2800716,0.824175122 13.0158831,0.876877868 C12.9796795,0.884543722 12.9405405,0.901791893 12.9209709,0.932455309 C12.8955306,0.971742811 12.9141216,1.02252909 12.939562,1.0560672 C13.7233212,2.13216145 14.1734202,3.44206424 14.1734202,4.84874844" id="Fill-5" opacity="0.400000006"></path>
            <path d="M19.779109,12.1693515 C19.4317501,11.4439701 18.5931962,10.9466478 17.3172635,10.7022987 C16.7155008,10.5585639 15.0853598,10.3544606 13.5697005,10.3832075 C13.5471956,10.3860822 13.5344754,10.4014139 13.5325184,10.4109962 C13.529583,10.4263279 13.5364323,10.4493255 13.5657866,10.4656155 C14.2663754,10.8048295 16.9738184,12.2805064 16.6333088,15.3928431 C16.6186317,15.528912 16.7291994,15.6438998 16.8671645,15.6247352 C17.5335067,15.5317867 19.2477966,15.1705333 19.779109,14.0474857 C20.0736303,13.453382 20.0736303,12.7634552 19.779109,12.1693515" id="Fill-7"></path>
        </g>
    </g>
</svg>