<?xml version="1.0" encoding="UTF-8"?>
<svg width="24px"  height="24px"  viewBox="0 0 24 24" version="1.1" xmlns="http://www.w3.org/2000/svg" xmlns:xlink="http://www.w3.org/1999/xlink">
    <title>Iconly/Bulk/Edit Square</title>
    <g id="Iconly/Bulk/Edit-Square" stroke="none" stroke-width="1" fill="none" fill-rule="evenodd">
        <g id="Edit-Square" transform="translate(2.000000, 2.000000)" fill="#000000"  fill-rule="nonzero">
            <path d="M14.6643371,19.9896973 L5.33487566,19.9896973 C3.88835459,20.0796045 2.46780697,19.5781221 1.39889983,18.6011305 C0.421898722,17.5312348 -0.079588553,16.1107011 0.0103195242,14.6651931 L0.0103195242,5.33482362 C-0.079588553,3.88931564 0.420899744,2.46878187 1.39790085,1.39888618 C2.46780697,0.421894608 3.88835459,-0.0795877768 5.33487566,0.0103194236 L14.6643371,0.0103194236 C16.1088602,-0.0795877768 17.5284089,0.420895639 18.597316,1.39788722 C19.5733182,2.46878187 20.0758044,3.88831667 19.9898922,5.33482362 L19.9898922,14.6651931 C20.0788013,16.1107011 19.5783131,17.5312348 18.6013119,18.6011305 C17.5314058,19.5781221 16.1108582,20.0796045 14.6643371,19.9896973" id="Fill-1" opacity="0.400000006"></path>
            <path d="M15.0545475,8.39756098 L8.5017703,14.9829268 C8.16098694,15.3146341 7.71310024,15.5 7.24574021,15.5 L4.95762337,15.5 C4.83104669,15.5 4.71420668,15.4512195 4.62657668,15.3634146 C4.53894667,15.2756098 4.5,15.1585366 4.5,15.0317073 L4.55842,12.7195122 C4.56815667,12.2609756 4.75315335,11.8317073 5.07446338,11.5097561 L9.71885373,6.85609756 C9.79674707,6.77804878 9.93306041,6.77804878 10.0109538,6.85609756 L11.6398982,8.47853659 C11.7470015,8.58487805 11.9027882,8.65414634 12.0683116,8.65414634 C12.4285683,8.65414634 12.7109316,8.36146341 12.7109316,8.0102439 C12.7109316,7.83463415 12.642775,7.67853659 12.5356716,7.56146341 C12.5064616,7.52243902 10.9554105,5.97804878 10.9554105,5.97804878 C10.8580438,5.8804878 10.8580438,5.71463415 10.9554105,5.61707317 L11.6077672,4.95365854 C12.2114406,4.34878049 13.1851073,4.34878049 13.7887807,4.95365854 L15.0545475,6.22195122 C15.6484842,6.81707317 15.6484842,7.79268293 15.0545475,8.39756098" id="Fill-4"></path>
        </g>
    </g>
</svg>