<?xml version="1.0" encoding="UTF-8"?>
<svg width="24px"  height="24px"  viewBox="0 0 24 24" version="1.1" xmlns="http://www.w3.org/2000/svg" xmlns:xlink="http://www.w3.org/1999/xlink">
    <title>Iconly/Bold/Lock</title>
    <g id="Iconly/Bold/Lock" stroke="none" stroke-width="1" fill="none" fill-rule="evenodd">
        <g id="Lock" transform="translate(3.500000, 2.000000)" fill="#000000"  fill-rule="nonzero">
            <path d="M8.48475792,0 C11.5534967,0 14.0227137,2.41478684 14.0227137,5.39600517 L14.0227137,5.39600517 L14.0227137,6.92934513 C15.7450687,7.46695816 17,9.02613535 17,10.8884031 L17,10.8884031 L17,15.8253006 C17,18.1307761 15.0886432,20 12.7322176,20 L12.7322176,20 L4.26879857,20 C1.91135684,20 0,18.1307761 0,15.8253006 L0,15.8253006 L0,10.8884031 C0,9.02613535 1.2559474,7.46695816 2.97728631,6.92934513 L2.97728631,6.92934513 L2.97728631,5.39600517 C2.9874477,2.41478684 5.45666467,0 8.48475792,0 Z M8.49491931,11.384279 C8.00717274,11.384279 7.61087866,11.7718374 7.61087866,12.2488324 L7.61087866,12.2488324 L7.61087866,14.4549339 C7.61087866,14.9418662 8.00717274,15.3294246 8.49491931,15.3294246 C8.99282726,15.3294246 9.38912134,14.9418662 9.38912134,14.4549339 L9.38912134,14.4549339 L9.38912134,12.2488324 C9.38912134,11.7718374 8.99282726,11.384279 8.49491931,11.384279 Z M8.50508069,1.73904402 C6.44231919,1.73904402 4.76569038,3.36877671 4.75552899,5.37613038 L4.75552899,5.37613038 L4.75552899,6.71370367 L12.244471,6.71370367 L12.244471,5.39600517 C12.244471,3.3787141 10.5678422,1.73904402 8.50508069,1.73904402 Z"></path>
        </g>
    </g>
</svg>