<?xml version="1.0" encoding="UTF-8"?>
<svg width="24px"  height="24px"  viewBox="0 0 24 24" version="1.1" xmlns="http://www.w3.org/2000/svg" xmlns:xlink="http://www.w3.org/1999/xlink">
    <title>Iconly/Bold/Arrow - Right Square</title>
    <g id="Iconly/Bold/Arrow---Right-Square" stroke="none" stroke-width="1" fill="none" fill-rule="evenodd">
        <g id="Arrow---Right-Square" transform="translate(1.999900, 2.000000)" fill="#000000"  fill-rule="nonzero">
            <path d="M14.08,-1.13686838e-13 C17.62,-1.13686838e-13 20,2.28 20,5.67 L20,5.67 L20,14.34 C20,17.729 17.62,20 14.08,20 L14.08,20 L5.91,20 C2.38,20 3.46575044e-16,17.729 3.46575044e-16,14.34 L3.46575044e-16,14.34 L3.46575044e-16,5.67 C3.46575044e-16,2.28 2.38,-1.13686838e-13 5.91,-1.13686838e-13 L5.91,-1.13686838e-13 Z M10.85,5.72 C10.56,5.43 10.08,5.43 9.79,5.72 C9.5,6.02 9.5,6.49 9.79,6.79 L9.79,6.79 L12.27,9.25 L5.92,9.25 C5.5,9.25 5.17,9.59 5.17,10 C5.17,10.42 5.5,10.75 5.92,10.75 L5.92,10.75 L12.27,10.75 L9.79,13.22 C9.65,13.36 9.57,13.56 9.57,13.75 C9.57,13.939 9.65,14.13 9.79,14.28 C10.08,14.57 10.56,14.57 10.85,14.28 L10.85,14.28 L14.62,10.53 C14.9,10.25 14.9,9.75 14.62,9.47 L14.62,9.47 Z"></path>
        </g>
    </g>
</svg>