<?xml version="1.0" encoding="UTF-8"?>
<svg width="24px"  height="24px"  viewBox="0 0 24 24" version="1.1" xmlns="http://www.w3.org/2000/svg" xmlns:xlink="http://www.w3.org/1999/xlink">
    <title>Iconly/Bulk/Filter 2</title>
    <g id="Iconly/Bulk/Filter-2" stroke="none" stroke-width="1" fill="none" fill-rule="evenodd">
        <g id="Filter-2" transform="translate(3.000000, 3.000000)" fill="#000000"  fill-rule="nonzero">
            <path d="M11.5714983,10.5941066 L17.4266023,4.72013663 C17.7929126,4.35182823 18,3.84877286 18,3.32375872 L18,1.60099369 C18,0.520023511 17.1423455,-1.59872116e-15 16.0844413,-1.59872116e-15 L1.91555869,-1.59872116e-15 C0.857654529,-1.59872116e-15 0,0.520023511 0,1.60099369 L0,3.35470062 C0,3.85176724 0.184620394,4.33086759 0.517718565,4.69418536 L5.89710751,10.5631647 C5.99869756,10.6739567 6.14033755,10.7368386 6.28979215,10.7378367 L11.1915125,10.7518236 C11.3331524,10.7528086 11.4699083,10.6969136 11.5714983,10.5941066" id="Fill-1"></path>
            <path d="M6.05633038,10.6857346 L6.05633038,17.2903326 C6.05633038,17.5308809 6.17745699,17.7574554 6.37575297,17.8872118 C6.48906496,17.9620712 6.61995984,18 6.75085472,18 C6.8495143,18 6.94817388,17.9790394 7.03999566,17.9371181 L11.0059152,16.0885892 C11.2540294,15.9738047 11.4132523,15.7212789 11.4132523,15.4428018 L11.4132523,10.6857346 L6.05633038,10.6857346 Z" id="Fill-4" opacity="0.400000006"></path>
        </g>
    </g>
</svg>