<?xml version="1.0" encoding="UTF-8"?>
<svg width="24px"  height="24px"  viewBox="0 0 24 24" version="1.1" xmlns="http://www.w3.org/2000/svg" xmlns:xlink="http://www.w3.org/1999/xlink">
    <title>Iconly/Bulk/Paper</title>
    <g id="Iconly/Bulk/Paper" stroke="none" stroke-width="1" fill="none" fill-rule="evenodd">
        <g id="Paper" transform="translate(3.500000, 2.000000)" fill="#000000"  fill-rule="nonzero">
            <path d="M15.3088124,7.021 C14.8573009,7.021 14.2592463,7.011 13.5146485,7.011 C11.6987011,7.011 10.2055449,5.508 10.2055449,3.675 L10.2055449,0.459 C10.2055449,0.206 10.0035529,0 9.75304328,0 L4.4636263,0 C1.99516571,0 0,2.026 0,4.509 L0,15.284 C0,17.889 2.09022075,20 4.66957889,20 L12.5462753,20 C15.0058245,20 17,17.987 17,15.502 L17,7.471 C17,7.217 16.7989982,7.012 16.5474984,7.013 C16.1247015,7.016 15.6177413,7.021 15.3088124,7.021" id="Fill-3" opacity="0.400000006"></path>
            <path d="M12.584,0.5673 C12.285,0.2563 11.763,0.4703 11.763,0.9013 L11.763,3.5383 C11.763,4.6443 12.674,5.5543 13.78,5.5543 C14.477,5.5623 15.445,5.5643 16.267,5.5623 C16.688,5.5613 16.902,5.0583 16.61,4.7543 C15.555,3.6573 13.666,1.6913 12.584,0.5673" id="Fill-1" opacity="0.400000006"></path>
            <path d="M10.918,12.8928 C11.329,12.8928 11.663,13.2268 11.663,13.6378 C11.663,14.0488 11.329,14.3818 10.918,14.3818 L5.474,14.3818 C5.063,14.3818 4.73,14.0488 4.73,13.6378 C4.73,13.2268 5.063,12.8928 5.474,12.8928 L10.918,12.8928 Z M8.8589,7.8986 C9.2699,7.8986 9.6039,8.2326 9.6039,8.6436 C9.6039,9.0546 9.2699,9.3876 8.8589,9.3876 L5.4739,9.3876 C5.0629,9.3876 4.7299,9.0546 4.7299,8.6436 C4.7299,8.2326 5.0629,7.8986 5.4739,7.8986 L8.8589,7.8986 Z" id="Combined-Shape"></path>
        </g>
    </g>
</svg>