<svg width="20" height="20" viewBox="0 0 20 20" fill="none" xmlns="http://www.w3.org/2000/svg">
<path d="M5.21716 14.7327L5.57133 12.7849C5.62883 12.4689 5.51799 12.1465 5.27632 11.9249L2.80882 9.65134C2.40799 9.28014 2.3955 8.66734 2.78217 8.28182C2.9405 8.12422 3.15048 8.02262 3.37715 7.99378L6.7855 7.52258C7.118 7.47778 7.40716 7.27938 7.55882 6.99138L9.08467 4.06819C9.34717 3.58179 9.9705 3.39219 10.4772 3.64419C10.6663 3.73779 10.8205 3.88579 10.9188 4.06819L12.7163 7.53633" stroke="black" style="stroke:black;stroke-opacity:1;" stroke-width="1.5" stroke-linecap="round" stroke-linejoin="round"/>
<path d="M6.47791 17.0191L9.52454 15.5031C9.82454 15.3543 10.1804 15.3543 10.4804 15.5031L13.5254 17.0183C13.722 17.1183 13.947 17.1543 14.167 17.1207C14.7254 17.0343 15.1054 16.5303 15.0154 15.9943L14.432 12.7847C14.3737 12.4679 14.4845 12.1455 14.727 11.9239L17.192 9.65035C17.3562 9.49835 17.462 9.29675 17.492 9.07995C17.5645 8.54955 17.1762 8.06235 16.6237 7.99271L15.8345 7.88354" stroke="black" style="stroke:black;stroke-opacity:1;" stroke-width="1.5" stroke-linecap="round" stroke-linejoin="round"/>
<path d="M16.056 4.33203L3.31384 16.5611" stroke="black" style="stroke:black;stroke-opacity:1;" stroke-width="1.5" stroke-linecap="round" stroke-linejoin="round"/>
</svg>
