<?xml version="1.0" encoding="UTF-8"?>
<svg width="24px"  height="24px"  viewBox="0 0 24 24" version="1.1" xmlns="http://www.w3.org/2000/svg" xmlns:xlink="http://www.w3.org/1999/xlink">
    <title>Iconly/Bold/Arrow - Right 3</title>
    <g id="Iconly/Bold/Arrow---Right-3" stroke="none" stroke-width="1" fill="none" fill-rule="evenodd">
        <g id="Arrow---Right-3" transform="translate(3.000000, 6.500000)" fill="#000000"  fill-rule="nonzero">
            <path d="M9.14147403,0.0898969919 C8.90747892,0.216135321 8.76159913,0.456179416 8.76159913,0.717263233 L8.76159913,4.78271124 L0.734294262,4.78271124 C0.328963829,4.78271124 0,5.10404517 0,5.49997447 C0,5.89590378 0.328963829,6.2172377 0.734294262,6.2172377 L8.76159913,6.2172377 L8.76159913,10.2826857 C8.76159913,10.5447259 8.90747892,10.78477 9.14147403,10.9100519 C9.37546913,11.0372466 9.66135436,11.0286395 9.887517,10.8899686 L17.6573293,6.10725734 C17.8707642,5.97528091 18,5.74671302 18,5.49997447 C18,5.25323592 17.8707642,5.02466803 17.6573293,4.8926916 L9.887517,0.109980362 C9.7680718,0.0372976881 9.63198259,0 9.49589339,0 C9.37449007,0 9.2521077,0.0306032313 9.14147403,0.0898969919"></path>
        </g>
    </g>
</svg>