<?xml version="1.0" encoding="UTF-8"?>
<svg width="24px"  height="24px"  viewBox="0 0 24 24" version="1.1" xmlns="http://www.w3.org/2000/svg" xmlns:xlink="http://www.w3.org/1999/xlink">
    <title>Iconly/Bulk/Unlock</title>
    <g id="Iconly/Bulk/Unlock" stroke="none" stroke-width="1" fill="none" fill-rule="evenodd">
        <g id="Unock" transform="translate(3.500000, 2.000000)" fill="#000000"  fill-rule="nonzero">
            <path d="M4.73906754,6.70907464 L4.73906754,5.36725972 C4.74922893,3.37044031 6.42585774,1.73938972 8.49878063,1.73938972 C10.083957,1.73938972 11.5065511,2.72338734 12.0247818,4.19540801 C12.1975254,4.65261902 12.7055947,4.89016996 13.1628571,4.73213398 C13.3864077,4.66156446 13.5693126,4.50253454 13.6709265,4.29380777 C13.7725403,4.08508101 13.7928631,3.84653613 13.711572,3.62786999 C12.9393066,1.4620813 10.846061,-7.10542736e-15 8.47845786,-7.10542736e-15 C5.45036461,-7.10542736e-15 2.98114764,2.41626081 2.96082487,5.38713846 L2.96082487,6.91084385 L4.73906754,6.70907464 Z" id="Fill-1" opacity="0.400000006"></path>
            <path d="M12.7312014,6.71106252 C15.0886432,6.71106252 17,8.58065799 17,10.8865918 L17,10.8865918 L17,15.8244707 C17,18.1304045 15.0886432,20 12.7312014,20 L12.7312014,20 L4.26879857,20 C1.91135684,20 3.55271368e-15,18.1304045 3.55271368e-15,15.8244707 L3.55271368e-15,15.8244707 L3.55271368e-15,10.8865918 C3.55271368e-15,8.58065799 1.91135684,6.71106252 4.26879857,6.71106252 L4.26879857,6.71106252 Z M8.49491931,11.3825663 C8.00717274,11.3825663 7.61087866,11.7702018 7.61087866,12.2472915 L7.61087866,12.2472915 L7.61087866,14.4538316 C7.61087866,14.9408607 8.00717274,15.3284962 8.49491931,15.3284962 C8.99282726,15.3284962 9.38912134,14.9408607 9.38912134,14.4538316 L9.38912134,14.4538316 L9.38912134,12.2472915 C9.38912134,11.7702018 8.99282726,11.3825663 8.49491931,11.3825663 Z" id="Fill-4"></path>
        </g>
    </g>
</svg>