<?xml version="1.0" encoding="UTF-8"?>
<svg width="24px"  height="24px"  viewBox="0 0 24 24" version="1.1" xmlns="http://www.w3.org/2000/svg" xmlns:xlink="http://www.w3.org/1999/xlink">
    <title>Iconly/Bold/Arrow - Down Circle</title>
    <g id="Iconly/Bold/Arrow---Down-Circle" stroke="none" stroke-width="1" fill="none" fill-rule="evenodd">
        <g id="Arrow---Down-Circle" transform="translate(2.000100, 1.999900)" fill="#000000"  fill-rule="nonzero">
            <path d="M10,0 C15.51,0 20,4.48 20,10 C20,15.51 15.51,20 10,20 C4.48,20 0,15.51 0,10 C0,4.48 4.48,0 10,0 Z M7.06,8.03 C6.77,7.73 6.29,7.73 6,8.02 C5.7,8.32 5.7,8.79 6,9.08 L6,9.08 L9.47,12.57 C9.61,12.71 9.8,12.79 10,12.79 C10.2,12.79 10.39,12.71 10.53,12.57 L10.53,12.57 L14,9.08 C14.15,8.94 14.22,8.75 14.22,8.56 C14.22,8.36 14.15,8.17 14,8.02 C13.7,7.73 13.23,7.73 12.94,8.03 L12.94,8.03 L10,10.98 Z"></path>
        </g>
    </g>
</svg>