<?xml version="1.0" encoding="UTF-8"?>
<svg width="24px"  height="24px"  viewBox="0 0 24 24" version="1.1" xmlns="http://www.w3.org/2000/svg" xmlns:xlink="http://www.w3.org/1999/xlink">
    <title>Iconly/Bold/Arrow - Down 2</title>
    <g id="Iconly/Bold/Arrow---Down-2" stroke="none" stroke-width="1" fill="none" fill-rule="evenodd">
        <g id="Arrow---Down-2" transform="translate(6.000000, 7.000000)" fill="#000000"  fill-rule="nonzero">
            <path d="M4.869,9.63078422 C4.811,9.57428154 4.563,9.36093522 4.359,9.16220166 C3.076,7.99707745 0.976,4.95762299 0.335,3.36678032 C0.232,3.12518266 0.014,2.51436922 0,2.18801754 C0,1.87530443 0.072,1.57720409 0.218,1.29274233 C0.422,0.938139308 0.743,0.653677545 1.122,0.497808086 C1.385,0.397467121 2.172,0.241597662 2.186,0.241597662 C3.047,0.0857282026 4.446,0 5.992,0 C7.465,0 8.807,0.0857282026 9.681,0.213346322 C9.695,0.227959084 10.673,0.383828544 11.008,0.554310765 C11.62,0.867023868 12,1.47783731 12,2.13151486 L12,2.18801754 C11.985,2.613736 11.605,3.5090112 11.591,3.5090112 C10.949,5.01412567 8.952,7.98343887 7.625,9.17681442 C7.625,9.17681442 7.284,9.51290794 7.071,9.65903556 C6.765,9.88699464 6.386,10 6.007,10 C5.584,10 5.19,9.87238188 4.869,9.63078422"></path>
        </g>
    </g>
</svg>