<?xml version="1.0" encoding="UTF-8"?>
<svg width="24px"  height="24px"  viewBox="0 0 24 24" version="1.1" xmlns="http://www.w3.org/2000/svg" xmlns:xlink="http://www.w3.org/1999/xlink">
    <title>Iconly/Bold/Login</title>
    <g id="Iconly/Bold/Login" stroke="none" stroke-width="1" fill="none" fill-rule="evenodd">
        <g id="Login" transform="translate(2.500000, 2.000000)" fill="#000000"  fill-rule="nonzero">
            <path d="M4.79052152,10.7699 L0.78150457,10.7699 C0.35522935,10.7699 -1.01696429e-13,10.4299 -1.01696429e-13,9.9999 C-1.01696429e-13,9.5799 0.35522935,9.2299 0.78150457,9.2299 L0.78150457,9.2299 L4.79052152,9.2299 L4.790826,4.45 C4.790826,2 6.85611292,0 9.3860894,0 L9.3860894,0 L14.4253895,0 C16.9450395,0 19,2 19,4.44 L19,4.44 L19,15.56 C19,18.01 16.9450395,20 14.4047366,20 L14.4047366,20 L9.37576296,20 C6.85611292,20 4.790826,18.01 4.790826,15.57 L4.790826,15.57 L4.790826,10.77 L11.1932154,10.77 L9.54098591,12.37 C9.23119288,12.67 9.23119288,13.16 9.54098591,13.46 C9.69588243,13.61 9.90241112,13.68 10.1089398,13.68 C10.3051421,13.68 10.5116708,13.61 10.6665673,13.46 L10.6665673,13.46 L13.6818862,10.55 C13.8367827,10.41 13.9193942,10.21 13.9193942,10 C13.9193942,9.8 13.8367827,9.6 13.6818862,9.46 L13.6818862,9.46 L10.6665673,6.55 C10.3567742,6.25 9.85077895,6.25 9.54098591,6.55 C9.23119288,6.85 9.23119288,7.34 9.54098591,7.64 L9.54098591,7.64 L11.1932154,9.23 L4.790826,9.23 L4.79052152,10.7699 Z"></path>
        </g>
    </g>
</svg>