<?xml version="1.0" encoding="UTF-8"?>
<svg width="24px"  height="24px"  viewBox="0 0 24 24" version="1.1" xmlns="http://www.w3.org/2000/svg" xmlns:xlink="http://www.w3.org/1999/xlink">
    <title>Iconly/Bulk/Chat</title>
    <g id="Iconly/Bulk/Chat" stroke="none" stroke-width="1" fill="none" fill-rule="evenodd">
        <g id="Chat" transform="translate(2.000000, 2.000000)" fill="#000000"  fill-rule="nonzero">
            <path d="M10.02,0 C4.21,0 0,4.74 0,10 C0,11.68 0.49,13.41 1.35,14.99 C1.51,15.25 1.53,15.58 1.42,15.89 L0.75,18.13 C0.6,18.67 1.06,19.07 1.57,18.91 L3.59,18.31 C4.14,18.13 4.57,18.36 5.081,18.67 C6.541,19.53 8.36,19.97 10,19.97 C14.96,19.97 20,16.14 20,9.97 C20,4.65 15.7,0 10.02,0" id="Fill-1" opacity="0.400000006"></path>
            <path d="M5.3701,8.7301 C6.0801,8.7301 6.6501,9.3001 6.6501,10.0101 C6.6501,10.7101 6.0801,11.2801 5.3701,11.2901 C4.6701,11.2901 4.0901,10.7101 4.0901,10.0101 C4.0901,9.3001 4.6601,8.7301 5.3701,8.7301 Z M9.9805,8.7301 C10.6905,8.7301 11.2605,9.3001 11.2605,10.0101 C11.2605,10.7101 10.6905,11.2901 9.9805,11.2901 C9.2705,11.2801 8.7005,10.7101 8.7005,10.0001 C8.7005,9.3001 9.2805,8.7201 9.9805,8.7301 Z M14.5903,8.7301 C15.3003,8.7301 15.8703,9.3001 15.8703,10.0101 C15.8703,10.7101 15.3003,11.2901 14.5903,11.2901 C13.8803,11.2901 13.3103,10.7101 13.3103,10.0101 C13.3103,9.3001 13.8803,8.7301 14.5903,8.7301 Z" id="Combined-Shape"></path>
        </g>
    </g>
</svg>