<?xml version="1.0" encoding="UTF-8"?>
<svg width="24px"  height="24px"  viewBox="0 0 24 24" version="1.1" xmlns="http://www.w3.org/2000/svg" xmlns:xlink="http://www.w3.org/1999/xlink">
    <title>Iconly/Bold/More Circle</title>
    <g id="Iconly/Bold/More-Circle" stroke="none" stroke-width="1" fill="none" fill-rule="evenodd">
        <g id="More-Circle" transform="translate(2.000100, 1.999900)" fill="#000000"  fill-rule="nonzero">
            <path d="M10,-3.01980663e-14 C15.52,-3.01980663e-14 20,4.48 20,10 C20,15.52 15.52,20 10,20 C4.47,20 0,15.52 0,10 C0,4.48 4.47,-3.01980663e-14 10,-3.01980663e-14 Z M14.48,8.801 C13.81,8.801 13.28,9.34 13.28,10 C13.28,10.66 13.81,11.2 14.48,11.2 C15.14,11.2 15.67,10.66 15.67,10 C15.67,9.34 15.14,8.801 14.48,8.801 Z M10,8.801 C9.34,8.801 8.8,9.34 8.8,10 C8.8,10.66 9.34,11.2 10,11.2 C10.66,11.2 11.19,10.66 11.19,10 C11.19,9.34 10.66,8.801 10,8.801 Z M5.52,8.801 C4.86,8.801 4.32,9.34 4.32,10 C4.32,10.66 4.86,11.2 5.52,11.2 C6.18,11.2 6.71,10.66 6.71,10 C6.71,9.34 6.18,8.801 5.52,8.801 Z"></path>
        </g>
    </g>
</svg>