<?xml version="1.0" encoding="UTF-8"?>
<svg width="24px"  height="24px"  viewBox="0 0 24 24" version="1.1" xmlns="http://www.w3.org/2000/svg" xmlns:xlink="http://www.w3.org/1999/xlink">
    <title>Iconly/Bulk/Info Square</title>
    <g id="Iconly/Bulk/Info-Square" stroke="none" stroke-width="1" fill="none" fill-rule="evenodd">
        <path d="M16.34,1.9998 L7.67,1.9998 C4.28,1.9998 2,4.3798 2,7.9198 L2,16.0898 C2,19.6198 4.28,21.9998 7.67,21.9998 L16.34,21.9998 C19.73,21.9998 22,19.6198 22,16.0898 L22,7.9198 C22,4.3798 19.73,1.9998 16.34,1.9998" id="Fill-1" fill="#000000"  fill-rule="nonzero" opacity="0.400000006"></path>
        <path d="M11.9947,10.4871 C12.4767,10.4871 12.8697,10.8801 12.8697,11.3621 L12.8697,15.7821 C12.8697,16.2641 12.4767,16.6571 11.9947,16.6571 C11.5127,16.6571 11.1197,16.2641 11.1197,15.7821 L11.1197,11.3621 C11.1197,10.8801 11.5127,10.4871 11.9947,10.4871 Z M12.0047,7.3143 C12.4877,7.3143 12.8797,7.7073 12.8797,8.1893 C12.8797,8.6713 12.4877,9.0643 11.9947,9.0643 C11.5157,9.0643 11.1247,8.6713 11.1247,8.1893 C11.1247,7.7073 11.5197,7.3143 12.0047,7.3143 Z" id="Combined-Shape" fill="#000000"  fill-rule="nonzero"></path>
    </g>
</svg>