<?xml version="1.0" encoding="UTF-8"?>
<svg width="24px"  height="24px"  viewBox="0 0 24 24" version="1.1" xmlns="http://www.w3.org/2000/svg" xmlns:xlink="http://www.w3.org/1999/xlink">
    <title>Iconly/Bold/Voice</title>
    <g id="Iconly/Bold/Voice" stroke="none" stroke-width="1" fill="none" fill-rule="evenodd">
        <g id="Voice" transform="translate(3.500000, 2.000000)" fill="#000000"  fill-rule="nonzero">
            <path d="M16.0312838,7.82626164 C16.5660152,7.82626164 17,8.25386348 17,8.78286531 C17,13.0866252 13.7005527,16.6404079 9.46920052,17.1177531 L9.46920052,17.1177531 L9.46920052,19.0433963 C9.46920052,19.5714416 9.03521568,20 8.50048436,20 C7.96478432,20 7.53176819,19.5714416 7.53176819,19.0433963 L7.53176819,19.0433963 L7.53176819,17.1177531 C3.29944726,16.6404079 1.77635684e-14,13.0866252 1.77635684e-14,8.78286531 C1.77635684e-14,8.25386348 0.433984842,7.82626164 0.968716166,7.82626164 C1.50344749,7.82626164 1.93743233,8.25386348 1.93743233,8.78286531 C1.93743233,12.35578 4.88136076,15.2628986 8.50048436,15.2628986 C12.1186392,15.2628986 15.0625677,12.35578 15.0625677,8.78286531 C15.0625677,8.25386348 15.4965525,7.82626164 16.0312838,7.82626164 Z M8.6747564,-2.66453526e-15 C11.0781412,-2.66453526e-15 13.0271981,1.92372999 13.0271981,4.29706371 L13.0271981,4.29706371 L13.0271981,8.92032926 C13.0271981,11.2927064 11.0781412,13.217393 8.6747564,13.217393 L8.6747564,13.217393 L8.32504986,13.217393 C5.92166505,13.217393 3.97357684,11.2927064 3.97357684,8.92032926 L3.97357684,8.92032926 L3.97357684,4.29706371 C3.97357684,1.92372999 5.92166505,-2.66453526e-15 8.32504986,-2.66453526e-15 L8.32504986,-2.66453526e-15 Z"></path>
        </g>
    </g>
</svg>