<?xml version="1.0" encoding="UTF-8"?>
<svg width="24px"  height="24px"  viewBox="0 0 24 24" version="1.1" xmlns="http://www.w3.org/2000/svg" xmlns:xlink="http://www.w3.org/1999/xlink">
    <title>Iconly/Bold/Paper Plus</title>
    <g id="Iconly/Bold/Paper-Plus" stroke="none" stroke-width="1" fill="none" fill-rule="evenodd">
        <g id="Paper-Plus" transform="translate(3.500000, 2.000000)" fill="#000000"  fill-rule="nonzero">
            <path d="M9.75247525,0 C10.009901,0 10.2079208,0.21 10.2079208,0.46 L10.2079208,0.46 L10.2079208,3.68 C10.2079208,5.51 11.7029703,7.01 13.5148515,7.02 C14.2673267,7.02 14.8613861,7.03 15.3168317,7.03 C15.6237624,7.03 16.1287129,7.02 16.5544554,7.02 C16.8019802,7.02 17,7.22 17,7.47 L17,7.47 L17,15.51 C17,17.99 15.009901,20 12.5445545,20 L12.5445545,20 L4.67326733,20 C2.0990099,20 7.10542736e-15,17.89 7.10542736e-15,15.29 L7.10542736e-15,15.29 L7.10542736e-15,4.51 C7.10542736e-15,2.03 2,0 4.46534653,0 L4.46534653,0 Z M8.31683168,7.77 C7.91089109,7.77 7.57425743,8.1 7.57425743,8.51 L7.57425743,8.51 L7.57425743,10.24 L5.87128713,10.24 C5.46534653,10.24 5.12871287,10.57 5.12871287,10.99 C5.12871287,11.4 5.46534653,11.73 5.87128713,11.73 L5.87128713,11.73 L7.57425743,11.73 L7.57425743,13.46 C7.57425743,13.87 7.91089109,14.2 8.31683168,14.2 C8.72277228,14.2 9.04950495,13.87 9.04950495,13.46 L9.04950495,13.46 L9.04950495,11.73 L10.7623762,11.73 C11.1683168,11.73 11.5049505,11.4 11.5049505,10.99 C11.5049505,10.57 11.1683168,10.24 10.7623762,10.24 L10.7623762,10.24 L9.04950495,10.24 L9.04950495,8.51 C9.04950495,8.1 8.72277228,7.77 8.31683168,7.77 Z M11.649604,0.9062 C11.649604,0.4752 12.1674257,0.2612 12.4634653,0.5722 C13.5337624,1.6962 15.4040594,3.6612 16.449604,4.7592 C16.7387129,5.0622 16.5268317,5.5652 16.11,5.5662 C15.2961386,5.5692 14.3367327,5.5662 13.6466337,5.5592 C12.5515842,5.5592 11.649604,4.6482 11.649604,3.5422 L11.649604,3.5422 Z"></path>
        </g>
    </g>
</svg>