<?xml version="1.0" encoding="UTF-8"?>
<svg width="24px"  height="24px"  viewBox="0 0 24 24" version="1.1" xmlns="http://www.w3.org/2000/svg" xmlns:xlink="http://www.w3.org/1999/xlink">
    <title>Iconly/Bulk/Login</title>
    <g id="Iconly/Bulk/Login" stroke="none" stroke-width="1" fill="none" fill-rule="evenodd">
        <g id="Login" transform="translate(2.500000, 2.000000)" fill="#000000"  fill-rule="nonzero">
            <path d="M4.7961874,4.446 C4.7961874,1.995 6.85598286,0 9.38762119,0 L14.4199235,0 C16.9453669,0 19,1.99 19,4.436 L19,15.552 C19,18.004 16.941237,20 14.4095987,20 L9.3772964,20 C6.85185294,20 4.7961874,18.009 4.7961874,15.562 L4.7961874,14.622 L4.7961874,4.446 Z" id="Fill-1" opacity="0.400000006"></path>
            <path d="M13.5373964,9.4538 L10.5694888,6.5448 C10.2627441,6.2448 9.76910851,6.2448 9.4633795,6.5468 C9.1586662,6.8488 9.15968191,7.3358 9.46541092,7.6358 L11.0905485,9.2288 L0.782097479,9.2288 C0.350420299,9.2288 8.97060204e-14,9.5738 8.97060204e-14,9.9998 C8.97060204e-14,10.4248 0.350420299,10.7688 0.782097479,10.7688 L11.0905485,10.7688 L9.46541092,12.3628 C9.15968191,12.6628 9.1586662,13.1498 9.4633795,13.4518 C9.61675186,13.6028 9.81684693,13.6788 10.0179577,13.6788 C10.2170371,13.6788 10.4171321,13.6028 10.5694888,13.4538 L13.5373964,10.5448 C13.6846745,10.3998 13.7679628,10.2038 13.7679628,9.9998 C13.7679628,9.7948 13.6846745,9.5988 13.5373964,9.4538" id="Fill-4"></path>
        </g>
    </g>
</svg>