<?xml version="1.0" encoding="UTF-8"?>
<svg width="24px"  height="24px"  viewBox="0 0 24 24" version="1.1" xmlns="http://www.w3.org/2000/svg" xmlns:xlink="http://www.w3.org/1999/xlink">
    <title>Iconly/Bold/Add User</title>
    <g id="Iconly/Bold/Add-User" stroke="none" stroke-width="1" fill="none" fill-rule="evenodd">
        <g id="Add-User" transform="translate(2.000000, 2.500000)" fill="#000000"  fill-rule="nonzero">
            <path d="M7.5,12.5151923 C11.5667957,12.5151923 15,13.1843563 15,15.7687489 C15,18.3531414 11.5447751,19 7.5,19 C3.43320432,19 -1.59872116e-14,18.3298221 -1.59872116e-14,15.7464434 C-1.59872116e-14,13.1620508 3.45422394,12.5151923 7.5,12.5151923 Z M16.9989726,5 C17.4952055,5 17.8979452,5.40944608 17.8979452,5.9116166 L17.8979452,5.9116166 L17.8979452,7.08786248 L19.1010274,7.08786248 C19.5962329,7.08786248 20,7.49730856 20,7.99947908 C20,8.50164959 19.5962329,8.91109568 19.1010274,8.91109568 L19.1010274,8.91109568 L17.8979452,8.91109568 L17.8979452,10.0883834 C17.8979452,10.5905539 17.4952055,11 16.9989726,11 C16.5037671,11 16.1,10.5905539 16.1,10.0883834 L16.1,10.0883834 L16.1,8.91109568 L14.8989726,8.91109568 C14.4027397,8.91109568 14,8.50164959 14,7.99947908 C14,7.49730856 14.4027397,7.08786248 14.8989726,7.08786248 L14.8989726,7.08786248 L16.1,7.08786248 L16.1,5.9116166 C16.1,5.40944608 16.5037671,5 16.9989726,5 Z M7.5,-5.32907052e-15 C10.2545709,-5.32907052e-15 12.4626318,2.23663006 12.4626318,5.02684127 C12.4626318,7.81705248 10.2545709,10.0536825 7.5,10.0536825 C4.74542907,10.0536825 2.53736821,7.81705248 2.53736821,5.02684127 C2.53736821,2.23663006 4.74542907,-5.32907052e-15 7.5,-5.32907052e-15 Z"></path>
        </g>
    </g>
</svg>