<?xml version="1.0" encoding="UTF-8"?>
<svg width="24px"  height="24px"  viewBox="0 0 24 24" version="1.1" xmlns="http://www.w3.org/2000/svg" xmlns:xlink="http://www.w3.org/1999/xlink">
    <title>Iconly/Bulk/Bag 2</title>
    <g id="Iconly/Bulk/Bag-2" stroke="none" stroke-width="1" fill="none" fill-rule="evenodd">
        <g id="Bag-2" transform="translate(2.500000, 2.000000)" fill="#000000"  fill-rule="nonzero">
            <path d="M14.1203038,20 L4.87969616,20 C2.18923219,20 0,17.8310576 0,15.1645627 L0,9.83543733 C0,7.16894242 2.18923219,5 4.87969616,5 L14.1203038,5 C16.8107678,5 19,7.16894242 19,9.83543733 L19,15.1645627 C19,17.8310576 16.8107678,20 14.1203038,20" id="Fill-4" opacity="0.400000006"></path>
            <path d="M13.2551313,8 C12.8439638,8 12.5102626,7.67633955 12.5102626,7.27754365 L12.5102626,4.35689344 C12.5102626,2.75111379 11.1635401,1.4449127 9.50893842,1.4449127 C8.74718605,1.4449127 7.94769367,1.74160144 7.37861399,2.28777845 C6.80854116,2.835882 6.49271684,3.56508128 6.48973736,4.34340759 L6.48973736,7.27754365 C6.48973736,7.67633955 6.1560362,8 5.74486868,8 C5.33370117,8 5,7.67633955 5,7.27754365 L5,4.35689344 C5.00496579,3.1730283 5.47770911,2.08067429 6.32983889,1.2628537 C7.1809755,0.443106562 8.28139484,0.0317880795 9.5119179,0 C11.9848819,0 14,1.95448525 14,4.35689344 L14,7.27754365 C14,7.67633955 13.6662988,8 13.2551313,8" id="Fill-1"></path>
        </g>
    </g>
</svg>