<?xml version="1.0" encoding="UTF-8"?>
<svg width="24px"  height="24px"  viewBox="0 0 24 24" version="1.1" xmlns="http://www.w3.org/2000/svg" xmlns:xlink="http://www.w3.org/1999/xlink">
    <title>Iconly/Bulk/Lock</title>
    <g id="Iconly/Bulk/Lock" stroke="none" stroke-width="1" fill="none" fill-rule="evenodd">
        <g id="Lock" transform="translate(3.500000, 2.000000)" fill="#000000"  fill-rule="nonzero">
            <path d="M12.7312014,6.7138357 C15.0886432,6.7138357 17,8.58304101 17,10.8884936 L17,10.8884936 L17,15.8253421 C17,18.1307947 15.0886432,20 12.7312014,20 L12.7312014,20 L4.26879857,20 C1.91135684,20 5.32907052e-15,18.1307947 5.32907052e-15,15.8253421 L5.32907052e-15,15.8253421 L5.32907052e-15,10.8884936 C5.32907052e-15,8.58304101 1.91135684,6.7138357 4.26879857,6.7138357 L4.26879857,6.7138357 Z M8.49491931,11.3843647 C8.00717274,11.3843647 7.61087866,11.7719192 7.61087866,12.2489094 L7.61087866,12.2489094 L7.61087866,14.454989 C7.61087866,14.9419165 8.00717274,15.329471 8.49491931,15.329471 C8.99282726,15.329471 9.38912134,14.9419165 9.38912134,14.454989 L9.38912134,14.454989 L9.38912134,12.2489094 C9.38912134,11.7719192 8.99282726,11.3843647 8.49491931,11.3843647 Z" id="Fill-1"></path>
            <path d="M14.0228153,5.39595155 L14.0228153,6.8666713 C13.6671668,6.76729835 13.2911955,6.71761187 12.9050628,6.71761187 L12.2445726,6.71761187 L12.2445726,5.39595155 C12.2445726,3.37868053 10.5679438,1.73902674 8.50518231,1.73902674 C6.4424208,1.73902674 4.76579199,3.36874323 4.7556306,5.37607695 L4.7556306,6.71761187 L4.10530185,6.71761187 C3.70900777,6.71761187 3.33303646,6.76729835 2.97738793,6.8766086 L2.97738793,5.39595155 C2.98754931,2.41476285 5.45676629,4.4408921e-15 8.48485953,4.4408921e-15 C11.5535983,4.4408921e-15 14.0228153,2.41476285 14.0228153,5.39595155" id="Fill-4" opacity="0.400000006"></path>
        </g>
    </g>
</svg>