<?xml version="1.0" encoding="UTF-8"?>
<svg width="24px"  height="24px"  viewBox="0 0 24 24" version="1.1" xmlns="http://www.w3.org/2000/svg" xmlns:xlink="http://www.w3.org/1999/xlink">
    <title>Iconly/Two-tone/Volume Off</title>
    <g id="Iconly/Two-tone/Volume-Off" stroke="#000000"  stroke-width="1.5"  fill="none" fill-rule="evenodd" stroke-linecap="round" stroke-linejoin="round">
        <g id="Group-7" transform="translate(4.000000, 4.000000)" stroke="#000000"  stroke-width="1.5" >
            <path d="M2.0948,12.65 C1.8598,12.577 1.6468,12.469 1.4598,12.309 C0.6948,11.656 0.7508,9.912 0.7508,8.633 C0.7508,7.355 0.6948,5.61 1.4598,4.958 C2.1688,4.351 2.6728,4.51 3.9698,4.407 C5.2658,4.304 8.0088,0.349 10.1258,1.599 C10.6108,1.993 10.8958,2.581 11.0638,3.486" id="Stroke-1"></path>
            <path d="M11.2833,10.6676 C11.2463,13.5406 11.0213,14.9396 10.1263,15.6676 C9.1463,16.2466 8.0363,15.7146 6.9913,14.9586" id="Stroke-3"></path>
            <polyline id="Stroke-5" opacity="0.400000006" points="0.7516 16.7496 4.4646 13.0366 11.2836 6.2166 16.7506 0.7496"></polyline>
        </g>
    </g>
</svg>