<?xml version="1.0" encoding="UTF-8"?>
<svg width="24px"  height="24px"  viewBox="0 0 24 24" version="1.1" xmlns="http://www.w3.org/2000/svg" xmlns:xlink="http://www.w3.org/1999/xlink">
    <title>Iconly/Light/Voice 2</title>
    <g id="Iconly/Light/Voice-2" stroke="#000000"  stroke-width="2"  fill="none" fill-rule="evenodd" stroke-linecap="round" stroke-linejoin="round">
        <g id="Voice-2" transform="translate(4.000000, 2.000000)" stroke="#000000"  stroke-width="2" >
            <line x1="8.00020953" y1="20" x2="8.00020953" y2="16.8390306" id="Stroke-1"></line>
            <path d="M8.00020953,12.8480829 L8.00020953,12.8480829 C5.75610267,12.8480829 3.93839707,11.0218152 3.93839707,8.76819031 L3.93839707,4.08094524 C3.93839707,1.82732033 5.75610267,-3.55271368e-15 8.00020953,-3.55271368e-15 C10.2432687,-3.55271368e-15 12.0609743,1.82732033 12.0609743,4.08094524 L12.0609743,8.76819031 C12.0609743,11.0218152 10.2432687,12.8480829 8.00020953,12.8480829 Z" id="Stroke-3"></path>
            <path d="M16,8.80061051 C16,13.2394411 12.4180199,16.8382937 8,16.8382937 C3.58093243,16.8382937 7.10542736e-15,13.2394411 7.10542736e-15,8.80061051" id="Stroke-5"></path>
            <line x1="10.0689366" y1="4.75576959" x2="12.0584599" y2="4.75576959" id="Stroke-7"></line>
            <line x1="9.07040335" y1="8.09347122" x2="12.0604505" y2="8.09347122" id="Stroke-9"></line>
        </g>
    </g>
</svg>