<?xml version="1.0" encoding="UTF-8"?>
<svg width="24px"  height="24px"  viewBox="0 0 24 24" version="1.1" xmlns="http://www.w3.org/2000/svg" xmlns:xlink="http://www.w3.org/1999/xlink">
    <title>Iconly/Light/Graph</title>
    <g id="Iconly/Light/Graph" stroke="#000000"  stroke-width="1.5"  fill="none" fill-rule="evenodd" stroke-linecap="round" stroke-linejoin="round">
        <g id="Graph" transform="translate(2.300000, 2.100000)" stroke="#000000"  stroke-width="1.5" >
            <path d="M14.9778947,11.789176 C15.6526316,11.789176 16.2189474,12.3460181 16.1157895,13.0123339 C15.5105263,16.9323339 12.1547368,19.8428602 8.10736842,19.8428602 C3.62947368,19.8428602 -3.55271368e-15,16.2133865 -3.55271368e-15,11.7365444 C-3.55271368e-15,8.04812338 2.80210526,4.6123339 5.95684211,3.8354918 C6.63473684,3.66812338 7.32947368,4.14496548 7.32947368,4.84286022 C7.32947368,9.57128127 7.48842105,10.7944392 8.38631579,11.4597023 C9.28421053,12.1249655 10.34,11.789176 14.9778947,11.789176 Z" id="Stroke-1"></path>
            <path d="M19.3925267,7.85159824 C19.4462109,4.8137035 15.714632,-0.0831386003 11.1672636,0.00107192599 C10.8135794,0.00738771546 10.5304215,0.302124558 10.514632,0.654756137 C10.3998952,3.15265087 10.554632,6.38949298 10.6409478,7.8568614 C10.6672636,8.3137035 11.0262109,8.67265087 11.4820004,8.69896666 C12.9904215,8.78528245 16.3451583,8.90317719 18.8072636,8.53054561 C19.1420004,8.48001929 19.3872636,8.18949298 19.3925267,7.85159824 Z" id="Stroke-3"></path>
        </g>
    </g>
</svg>