<?xml version="1.0" encoding="UTF-8"?>
<svg width="24px"  height="24px"  viewBox="0 0 24 24" version="1.1" xmlns="http://www.w3.org/2000/svg" xmlns:xlink="http://www.w3.org/1999/xlink">
    <title>Iconly/Bold/Edit Square</title>
    <g id="Iconly/Bold/Edit-Square" stroke="none" stroke-width="1" fill="none" fill-rule="evenodd">
        <g id="Edit-Square" transform="translate(2.000000, 2.000000)" fill="#000000"  fill-rule="nonzero">
            <path d="M14.6652914,0.0103352515 C16.1038147,-0.0795717312 17.5223585,0.419911506 18.5912613,1.39889865 C19.5702563,2.46779278 20.0697436,3.88632517 19.9898256,5.33482656 L19.9898256,5.33482656 L19.9898256,14.6651734 C20.0797333,16.1136748 19.5702563,17.5322072 18.601251,18.6011013 C17.5323483,19.5800885 16.1038147,20.0795717 14.6652914,19.9896647 L14.6652914,19.9896647 L5.33486949,19.9896647 C3.88635644,20.0795717 2.46781264,19.5800885 1.39890991,18.6011013 C0.419914885,17.5322072 -0.0795723715,16.1136748 0.0103353347,14.6651734 L0.0103353347,14.6651734 L0.0103353347,5.33482656 C-0.0795723715,3.88632517 0.419914885,2.46779278 1.39890991,1.39889865 C2.46781264,0.419911506 3.88635644,-0.0795717312 5.33486949,0.0103352515 L5.33486949,0.0103352515 Z M14.4055581,4.57561204 C13.7861939,3.95625283 12.7872194,3.95625283 12.1678552,4.57561204 L12.1678552,4.57561204 L11.4985422,5.25490924 C11.3986448,5.35480589 11.3986448,5.52463019 11.4985422,5.62452684 C11.4985422,5.62452684 11.5181517,5.64401285 11.5530542,5.67870947 L11.7987742,5.92308627 C11.9409122,6.06450374 12.1183227,6.24111115 12.2964731,6.41870519 L12.9005598,7.02250437 C13.0266032,7.14912234 13.1102211,7.23397283 13.1168809,7.24285253 C13.2267681,7.36272851 13.2966964,7.52256314 13.2966964,7.70237711 C13.2966964,8.06200504 13.0069937,8.36169498 12.6373732,8.36169498 C12.4675475,8.36169498 12.3077116,8.29176733 12.1978244,8.18188102 L12.1978244,8.18188102 L10.529537,6.52359667 C10.449619,6.44367935 10.3097626,6.44367935 10.2298446,6.52359667 L10.2298446,6.52359667 L5.46473618,11.2886668 C5.13507459,11.6183257 4.94526943,12.0578709 4.93527968,12.5273852 L4.93527968,12.5273852 L4.87534121,14.8949357 C4.87534121,15.0248014 4.91530019,15.1446773 5.0052079,15.2345843 C5.09511561,15.3244913 5.21499255,15.3744396 5.34485923,15.3744396 L5.34485923,15.3744396 L7.69244934,15.3744396 C8.17195711,15.3744396 8.63148538,15.184636 8.98112646,14.8449874 L8.98112646,14.8449874 L15.7042249,8.1019637 C16.3135994,7.48260448 16.3135994,6.48363801 15.7042249,5.87426846 L15.7042249,5.87426846 Z"></path>
        </g>
    </g>
</svg>