<?xml version="1.0" encoding="UTF-8"?>
<svg width="24px"  height="24px"  viewBox="0 0 24 24" version="1.1" xmlns="http://www.w3.org/2000/svg" xmlns:xlink="http://www.w3.org/1999/xlink">
    <title>Iconly/Light/Hide</title>
    <g id="Iconly/Light/Hide" stroke="#000000"  stroke-width="1.5"  fill="none" fill-rule="evenodd" stroke-linecap="round" stroke-linejoin="round">
        <g id="Hide" transform="translate(2.000000, 3.500000)" stroke="#000000"  stroke-width="1.5" >
            <path d="M7.7606,10.8668 C7.1856,10.2928 6.8356,9.5128 6.8356,8.6378 C6.8356,6.8848 8.2476,5.4718 9.9996,5.4718 C10.8666,5.4718 11.6646,5.8228 12.2296,6.3968" id="Stroke-1"></path>
            <path d="M13.1048,9.1989 C12.8728,10.4889 11.8568,11.5069 10.5678,11.7409" id="Stroke-3"></path>
            <path d="M4.6546,13.9723 C3.0676,12.7263 1.7236,10.9063 0.7496,8.6373 C1.7336,6.3583 3.0866,4.5283 4.6836,3.2723 C6.2706,2.0163 8.1016,1.3343 9.9996,1.3343 C11.9086,1.3343 13.7386,2.0263 15.3356,3.2913" id="Stroke-5"></path>
            <path d="M17.4476,5.4908 C18.1356,6.4048 18.7406,7.4598 19.2496,8.6368 C17.2826,13.1938 13.8066,15.9388 9.9996,15.9388 C9.1366,15.9388 8.2856,15.7988 7.4676,15.5258" id="Stroke-7"></path>
            <line x1="17.887" y1="0.7496" x2="2.113" y2="16.5236" id="Stroke-9"></line>
        </g>
    </g>
</svg>