<?xml version="1.0" encoding="UTF-8"?>
<svg width="24px"  height="24px"  viewBox="0 0 24 24" version="1.1" xmlns="http://www.w3.org/2000/svg" xmlns:xlink="http://www.w3.org/1999/xlink">
    <title>Iconly/Bold/Arrow - Up</title>
    <g id="Iconly/Bold/Arrow---Up" stroke="none" stroke-width="1" fill="none" fill-rule="evenodd">
        <g id="Arrow---Up" transform="translate(6.000000, 3.000000)" fill="#000000"  fill-rule="nonzero">
            <path d="M6.36070466,10.1634443 L6.00660914,10.1649677 C4.53497338,10.1649677 3.19331742,10.0787869 2.31870755,9.94897032 L1.77483018,9.83524442 C1.48678171,9.77197246 1.15880301,9.68879165 0.991371397,9.60206543 C0.378924178,9.28461473 1.77635684e-15,8.66389498 1.77635684e-15,7.9995394 L1.77635684e-15,7.94172192 C0.0143198091,7.50863626 0.394345511,6.59882911 0.407563797,6.59882911 C1.02183092,5.13484685 2.87571834,2.31045764 4.19738844,1.00599741 L4.59418673,0.626928643 C4.70172939,0.527663907 4.82900679,0.41614041 4.92821737,0.346904886 C5.23444098,0.115634962 5.61336516,1.77635684e-15 5.99228933,1.77635684e-15 C6.41527446,1.77635684e-15 6.80851845,0.129816608 7.13016339,0.375268179 L7.55047018,0.764727545 L7.6401689,0.851989673 C8.9234441,2.03561169 11.0218469,5.12611968 11.6640352,6.74282736 L11.7575787,6.98691531 C11.8628603,7.28063902 11.988434,7.69217949 12,7.94172192 C12,8.25917262 11.9261979,8.56244167 11.7807968,8.85152907 C11.5770149,9.2126156 11.2553699,9.50061211 10.8764457,9.65988291 C10.6142831,9.76133623 9.82669359,9.92060702 9.81237378,9.92060702 C9.01825987,10.0666192 7.76518207,10.1512831 6.36070466,10.1634443 Z M5.99955939,18 C5.1612998,18 4.48165963,17.3269172 4.48165963,16.4967455 L4.80881219,12.7975176 C4.80881219,12.1462528 5.3419497,11.6182592 5.99955939,11.6182592 C6.65827061,11.6182592 7.19030659,12.1462528 7.19030659,12.7975176 L7.51745915,16.4967455 C7.51745915,17.3269172 6.83781898,18 5.99955939,18 Z"></path>
        </g>
    </g>
</svg>