<?xml version="1.0" encoding="UTF-8"?>
<svg width="24px"  height="24px"  viewBox="0 0 24 24" version="1.1" xmlns="http://www.w3.org/2000/svg" xmlns:xlink="http://www.w3.org/1999/xlink">
    <title>Iconly/Bulk/Calendar</title>
    <g id="Iconly/Bulk/Calendar" stroke="none" stroke-width="1" fill="none" fill-rule="evenodd">
        <g id="Calendar" transform="translate(3.000000, 2.000000)" fill="#000000"  fill-rule="nonzero">
            <path d="M13.050494,16.09 C12.5960483,16.08 12.2305159,15.7 12.2305159,15.24 C12.2206367,14.78 12.586169,14.401 13.0406147,14.391 L13.050494,14.391 C13.5148189,14.391 13.8902305,14.771 13.8902305,15.24 C13.8902305,15.71 13.5148189,16.09 13.050494,16.09 L13.050494,16.09 Z M9.01975851,12.41 C8.56531284,12.431 8.18990121,12.07 8.1701427,11.611 C8.1701427,11.151 8.52579583,10.771 8.98024149,10.75 C9.4248079,10.75 9.79034029,11.101 9.80021954,11.55 C9.81997805,12.011 9.46432492,12.391 9.01975851,12.41 L9.01975851,12.41 Z M9.01975851,16.04 C8.56531284,16.061 8.18990121,15.7 8.1701427,15.24 C8.1701427,14.78 8.52579583,14.401 8.98024149,14.38 C9.4248079,14.38 9.79034029,14.731 9.80021954,15.181 C9.81997805,15.641 9.46432492,16.021 9.01975851,16.04 L9.01975851,16.04 Z M4.95938529,12.41 C4.50493963,12.431 4.12952799,12.07 4.10976948,11.611 C4.10976948,11.151 4.46542261,10.771 4.91986828,10.75 C5.36443469,10.75 5.72996707,11.101 5.73984632,11.55 C5.75960483,12.011 5.4039517,12.391 4.95938529,12.41 L4.95938529,12.41 Z M4.94950604,16.04 C4.49506037,16.061 4.11964874,15.7 4.09989023,15.24 C4.09989023,14.78 4.45554336,14.401 4.90998902,14.38 C5.35455543,14.38 5.72008782,14.731 5.72996707,15.181 C5.74972558,15.641 5.39407245,16.021 4.94950604,16.04 L4.94950604,16.04 Z M12.2403952,11.601 C12.2403952,11.141 12.5960483,10.771 13.050494,10.761 C13.4950604,10.761 13.8507135,11.12 13.870472,11.561 C13.8803513,12.021 13.5246981,12.401 13.0801317,12.41 C12.6256861,12.42 12.2502744,12.07 12.2403952,11.611 L12.2403952,11.601 Z M1.77635684e-15,7.257 L1.77635684e-15,14.87 C1.77635684e-15,18.03 1.99560922,20 5.1273326,20 L12.8627881,20 C16.0241493,20 18,18.07 18,14.931 L18,7.257 L1.77635684e-15,7.257 Z" id="Fill-1"></path>
            <path d="M0.00335894621,7.2569 C0.0162019759,6.6699 0.0655982437,5.5049 0.158463227,5.1299 C0.632667398,3.0209 2.24298573,1.6809 4.54485181,1.4899 L13.4559385,1.4899 C15.7380461,1.6909 17.3681229,3.0399 17.8423271,5.1299 C17.9342042,5.4949 17.9836004,6.6689 17.9964435,7.2569 L0.00335894621,7.2569 Z" id="Fill-4" opacity="0.400000006"></path>
            <path d="M5.30486279,4.59 C5.73954995,4.59 6.06556531,4.261 6.06556531,3.82 L6.06556531,0.771 C6.06556531,0.33 5.73954995,3.10862447e-15 5.30486279,3.10862447e-15 C4.87017563,3.10862447e-15 4.54416026,0.33 4.54416026,0.771 L4.54416026,3.82 C4.54416026,4.261 4.87017563,4.59 5.30486279,4.59" id="Fill-6"></path>
            <path d="M12.6949396,4.59 C13.1197475,4.59 13.4556422,4.261 13.4556422,3.82 L13.4556422,0.771 C13.4556422,0.33 13.1197475,3.10862447e-15 12.6949396,3.10862447e-15 C12.2602525,3.10862447e-15 11.9342371,0.33 11.9342371,0.771 L11.9342371,3.82 C11.9342371,4.261 12.2602525,4.59 12.6949396,4.59" id="Fill-9"></path>
        </g>
    </g>
</svg>