<?xml version="1.0" encoding="UTF-8"?>
<svg width="24px"  height="24px"  viewBox="0 0 24 24" version="1.1" xmlns="http://www.w3.org/2000/svg" xmlns:xlink="http://www.w3.org/1999/xlink">
    <title>Iconly/Bulk/Star</title>
    <g id="Iconly/Bulk/Star" stroke="none" stroke-width="1" fill="none" fill-rule="evenodd">
        <g id="Star" transform="translate(2.000000, 2.500000)" fill="#000000"  fill-rule="nonzero">
            <path d="M10.9763014,0.613614058 L13.2027793,5.0878891 C13.3668145,5.41205393 13.6798817,5.63716839 14.0409592,5.68719383 L19.0420326,6.41556418 C19.3340953,6.45658504 19.5991522,6.61066339 19.7781906,6.84578294 C19.9552286,7.07790096 20.031245,7.37205053 19.9882357,7.66119755 C19.9532282,7.90131965 19.8402039,8.12343259 19.6671668,8.29351907 L16.043389,11.8063052 C15.7783321,12.0514299 15.6583063,12.4146145 15.7223201,12.7697951 L16.6145116,17.7083062 C16.709532,18.3046094 16.3144472,18.8668953 15.7223201,18.9799528 C15.4782677,19.0189727 15.228214,18.9779518 15.0081668,18.8658948 L10.5472093,16.541713 C10.2161382,16.3746281 9.8250543,16.3746281 9.49398324,16.541713 L5.03302574,18.8658948 C4.4849081,19.1570429 3.80576233,18.9589421 3.50069685,18.4186674 C3.38767259,18.203558 3.347664,17.9584334 3.38467194,17.7193118 L4.27686344,12.7798002 C4.34087718,12.4256201 4.21985121,12.0604344 3.95579453,11.8153098 L0.332016723,8.30452467 C-0.0990758059,7.88831304 -0.112078597,7.20296455 0.303010498,6.77174529 C0.31201243,6.76274071 0.322014577,6.75273563 0.332016723,6.74273054 C0.504053649,6.56764151 0.730102168,6.45658504 0.974154551,6.42757029 L5.97522798,5.69819942 C6.33530526,5.64717348 6.64837246,5.42406003 6.81340788,5.09789419 L8.9598686,0.613614058 C9.1509096,0.229418705 9.54699462,-0.00970288141 9.97708693,0.000302205888 L10.1111157,0.000302205888 C10.4841958,0.0453250987 10.8092656,0.276442615 10.9763014,0.613614058" id="Fill-1" opacity="0.400000006"></path>
            <path d="M9.99201234,16.4171164 C9.79831148,16.4231213 9.60960292,16.475164 9.43986505,16.5682403 L5.00072073,18.8871415 C4.45755957,19.146354 3.80756341,18.9451891 3.50303371,18.4257632 C3.39020796,18.2135893 3.34927118,17.9703899 3.38721258,17.7321946 L4.2738433,12.8031534 C4.33375078,12.4448597 4.21393582,12.080561 3.95333828,11.8283542 L0.327937233,8.31847657 C-0.102398171,7.89713112 -0.110385835,7.20556413 0.310963446,6.77421048 C0.316954194,6.76820555 0.321946485,6.76320145 0.327937233,6.75819735 C0.499672011,6.58805786 0.72132969,6.47596595 0.959961155,6.44093724 L5.96523117,5.70433332 C6.32767143,5.65829557 6.6421857,5.43211013 6.80193899,5.10384099 L8.977579,0.563118196 C9.1842598,0.196817877 9.58064763,-0.0213610007 10,0.00165787172 C9.99201234,0.298901573 9.99201234,16.2149506 9.99201234,16.4171164" id="Fill-4"></path>
        </g>
    </g>
</svg>