<?xml version="1.0" encoding="UTF-8"?>
<svg width="24px"  height="24px"  viewBox="0 0 24 24" version="1.1" xmlns="http://www.w3.org/2000/svg" xmlns:xlink="http://www.w3.org/1999/xlink">
    <title>Iconly/Two-tone/Buy</title>
    <g id="Iconly/Two-tone/Buy" stroke="#000000"  stroke-width="1.5"  fill="none" fill-rule="evenodd" stroke-linecap="round" stroke-linejoin="round">
        <g id="Buy" transform="translate(2.000000, 2.500000)" stroke="#000000"  stroke-width="1.5" >
            <path d="M5.4223,17.3203 C5.8443,17.3203 6.1873,17.6633 6.1873,18.0853 C6.1873,18.5073 5.8443,18.8493 5.4223,18.8493 C5.0003,18.8493 4.6583,18.5073 4.6583,18.0853 C4.6583,17.6633 5.0003,17.3203 5.4223,17.3203 Z" id="Stroke-1" opacity="0.400000006"></path>
            <path d="M16.6747,17.3203 C17.0967,17.3203 17.4397,17.6633 17.4397,18.0853 C17.4397,18.5073 17.0967,18.8493 16.6747,18.8493 C16.2527,18.8493 15.9097,18.5073 15.9097,18.0853 C15.9097,17.6633 16.2527,17.3203 16.6747,17.3203 Z" id="Stroke-3" opacity="0.400000006"></path>
            <path d="M0.7499,0.75 L2.8299,1.11 L3.7929,12.583 C3.8709,13.518 4.6519,14.236 5.5899,14.236 L16.5019,14.236 C17.3979,14.236 18.1579,13.578 18.2869,12.69 L19.2359,6.132 C19.3529,5.323 18.7259,4.599 17.9089,4.599 L3.1639,4.599" id="Stroke-5"></path>
            <line x1="12.1254" y1="8.295" x2="14.8984" y2="8.295" id="Stroke-7" opacity="0.400000006"></line>
        </g>
    </g>
</svg>