<?xml version="1.0" encoding="UTF-8"?>
<svg width="24px"  height="24px"  viewBox="0 0 24 24" version="1.1" xmlns="http://www.w3.org/2000/svg" xmlns:xlink="http://www.w3.org/1999/xlink">
    <title>Iconly/Bold/Shield Fail</title>
    <g id="Iconly/Bold/Shield-Fail" stroke="none" stroke-width="1" fill="none" fill-rule="evenodd">
        <g id="Shield-Fail" transform="translate(3.500000, 2.000000)" fill="#000000"  fill-rule="nonzero">
            <path d="M7.84079844,0.103698074 C8.23332699,-0.0345660248 8.66611487,-0.0345660248 9.06870826,0.103698074 L9.06870826,0.103698074 L15.7014343,2.32867141 C16.446232,2.57382053 16.9494738,3.26121864 16.9494738,4.02608387 L16.9494738,4.02608387 L16.9999,10.6637412 C17.0098628,12.6739639 16.2751299,14.6253509 14.926442,16.1560619 C14.3124871,16.8620914 13.5173652,17.4602552 12.5108817,17.9995832 L12.5108817,17.9995832 L8.93786541,19.9117463 C8.82715223,19.9705821 8.70637421,20 8.5855962,20 C8.46481818,20 8.33397533,19.9705821 8.22326215,19.9117463 L8.22326215,19.9117463 L4.62005135,18.0486131 C3.60350306,17.519091 2.80838112,16.9307331 2.18436137,16.2345096 C0.815543864,14.7243911 0.0506164319,12.7730042 0.0405515973,10.7627815 L0.0405515973,10.7627815 L0.000143979871,4.12316291 C-0.00977257585,3.35829768 0.493469156,2.67286077 1.22820208,2.41692509 L1.22820208,2.41692509 Z M7.13626001,7.35913119 C6.84437981,7.07475822 6.37133258,7.07475822 6.06938754,7.35913119 C5.77750734,7.65429072 5.77750734,8.11517105 6.06938754,8.39954402 L6.06938754,8.39954402 L7.42814022,9.72236863 L6.06938754,11.0471544 C5.77750734,11.3315274 5.77750734,11.8022137 6.06938754,12.0865867 C6.22036006,12.2336761 6.41159192,12.3013373 6.60282378,12.3013373 C6.80412047,12.3013373 6.99535233,12.2336761 7.13626001,12.0865867 L7.13626001,12.0865867 L8.49501269,10.7627815 L9.85376536,12.0865867 C10.0047379,12.2336761 10.1959697,12.3013373 10.3872016,12.3013373 C10.5784335,12.3013373 10.7797301,12.2336761 10.9206378,12.0865867 C11.212518,11.8022137 11.212518,11.3315274 10.9206378,11.0471544 L10.9206378,11.0471544 L9.56188516,9.72236863 L10.9206378,8.39954402 C11.212518,8.11517105 11.212518,7.65429072 10.9206378,7.35913119 C10.6287576,7.07475822 10.1456456,7.07475822 9.85376536,7.35913119 L9.85376536,7.35913119 L8.49501269,8.68391699 Z"></path>
        </g>
    </g>
</svg>