<?xml version="1.0" encoding="UTF-8"?>
<svg width="24px"  height="24px"  viewBox="0 0 24 24" version="1.1" xmlns="http://www.w3.org/2000/svg" xmlns:xlink="http://www.w3.org/1999/xlink">
    <title>Iconly/Light/Password</title>
    <g id="Iconly/Light/Password" stroke="#000000"  stroke-width="1.5"  fill="none" fill-rule="evenodd" stroke-linecap="round" stroke-linejoin="round">
        <g id="Password" transform="translate(2.000000, 2.000000)" stroke="#000000"  stroke-width="1.5" >
            <path d="M14.3341,0.7501 L5.6651,0.7501 C2.6441,0.7501 0.7501,2.8891 0.7501,5.9161 L0.7501,14.0841 C0.7501,17.1111 2.6351,19.2501 5.6651,19.2501 L14.3331,19.2501 C17.3641,19.2501 19.2501,17.1111 19.2501,14.0841 L19.2501,5.9161 C19.2501,2.8891 17.3641,0.7501 14.3341,0.7501 Z" id="Stroke-1"></path>
            <path d="M8.6891,10.0001 C8.6891,11.0231 7.8601,11.8521 6.8371,11.8521 C5.8141,11.8521 4.9851,11.0231 4.9851,10.0001 C4.9851,8.9771 5.8141,8.1481 6.8371,8.1481 L6.8401,8.1481 C7.8611,8.1491 8.6891,8.9781 8.6891,10.0001 Z" id="Stroke-3"></path>
            <polyline id="Stroke-5" points="8.692 10.0001 15.01 10.0001 15.01 11.8521"></polyline>
            <line x1="12.1818" y1="11.8522" x2="12.1818" y2="10.0002" id="Stroke-7"></line>
        </g>
    </g>
</svg>