<?xml version="1.0" encoding="UTF-8"?>
<svg width="24px"  height="24px"  viewBox="0 0 24 24" version="1.1" xmlns="http://www.w3.org/2000/svg" xmlns:xlink="http://www.w3.org/1999/xlink">
    <title>Iconly/Light/Discount</title>
    <g id="Iconly/Light/Discount" stroke="#000000"  stroke-width="1.5"  fill="none" fill-rule="evenodd" stroke-linecap="round" stroke-linejoin="round">
        <g id="Discount" transform="translate(2.000000, 2.000000)" stroke="#000000" >
            <path d="M2.7949,5.056 C2.7949,3.807 3.8069,2.795 5.0559,2.794 L6.0849,2.794 C6.6819,2.794 7.2539,2.557 7.6779,2.137 L8.3969,1.417 C9.2779,0.531 10.7099,0.527 11.5959,1.408 L11.5969,1.409 L11.6059,1.417 L12.3259,2.137 C12.7499,2.558 13.3219,2.794 13.9189,2.794 L14.9469,2.794 C16.1959,2.794 17.2089,3.806 17.2089,5.056 L17.2089,6.083 C17.2089,6.68 17.4449,7.253 17.8659,7.677 L18.5859,8.397 C19.4719,9.278 19.4769,10.71 18.5959,11.596 C18.5959,11.596 18.5949,11.597 18.5949,11.597 L18.5859,11.606 L17.8659,12.326 C17.4449,12.749 17.2089,13.321 17.2089,13.918 L17.2089,14.947 C17.2089,16.196 16.1969,17.208 14.9479,17.208 L14.9469,17.208 L13.9169,17.208 C13.3199,17.208 12.7469,17.445 12.3239,17.866 L11.6039,18.585 C10.7239,19.471 9.2929,19.476 8.4069,18.597 C8.4059,18.596 8.4049,18.595 8.4039,18.594 L8.3949,18.585 L7.6759,17.866 C7.2529,17.445 6.6799,17.209 6.0829,17.208 L5.0559,17.208 C3.8069,17.208 2.7949,16.196 2.7949,14.947 L2.7949,13.916 C2.7949,13.319 2.5579,12.747 2.1369,12.324 L1.4179,11.604 C0.5319,10.724 0.5269,9.293 1.4069,8.407 C1.4069,8.406 1.4079,8.405 1.4089,8.404 L1.4179,8.395 L2.1369,7.675 C2.5579,7.251 2.7949,6.679 2.7949,6.081 L2.7949,5.056" id="Stroke-1" stroke-width="1.5" ></path>
            <line x1="7.4316" y1="12.5717" x2="12.5716" y2="7.4317" id="Stroke-3" stroke-width="1.5" ></line>
            <line x1="12.4955" y1="12.5" x2="12.5045" y2="12.5" id="Stroke-11" stroke-width="1.5" ></line>
            <line x1="7.4955" y1="7.5" x2="7.5045" y2="7.5" id="Stroke-11" stroke-width="1.5" ></line>
        </g>
    </g>
</svg>