<?xml version="1.0" encoding="UTF-8"?>
<svg width="24px"  height="24px"  viewBox="0 0 24 24" version="1.1" xmlns="http://www.w3.org/2000/svg" xmlns:xlink="http://www.w3.org/1999/xlink">
    <title>Iconly/Bold/Time Square</title>
    <g id="Iconly/Bold/Time-Square" stroke="none" stroke-width="1" fill="none" fill-rule="evenodd">
        <g id="Time-Square" transform="translate(1.999900, 2.000100)" fill="#000000"  fill-rule="nonzero">
            <path d="M14.34,0 C17.73,0 20,2.379 20,5.919 L20,5.919 L20,14.089 C20,17.62 17.73,20 14.34,20 L14.34,20 L5.67,20 C2.28,20 0,17.62 0,14.089 L0,14.089 L0,5.919 C0,2.379 2.28,0 5.67,0 L5.67,0 Z M9.65,4.919 C9.24,4.919 8.9,5.26 8.9,5.669 L8.9,5.669 L8.9,10.72 C8.9,10.98 9.04,11.23 9.27,11.36 L9.27,11.36 L13.19,13.7 C13.31,13.78 13.45,13.81 13.58,13.81 C13.83,13.81 14.08,13.68 14.22,13.44 C14.44,13.089 14.32,12.629 13.96,12.41 L13.96,12.41 L10.4,10.29 L10.4,5.669 C10.4,5.26 10.07,4.919 9.65,4.919 Z"></path>
        </g>
    </g>
</svg>