<?xml version="1.0" encoding="UTF-8"?>
<svg width="24px"  height="24px"  viewBox="0 0 24 24" version="1.1" xmlns="http://www.w3.org/2000/svg" xmlns:xlink="http://www.w3.org/1999/xlink">
    <title>Iconly/Light/Ticket Star</title>
    <g id="Iconly/Light/Ticket-Star" stroke="#000000"  stroke-width="1.5"  fill="none" fill-rule="evenodd" stroke-linecap="round" stroke-linejoin="round">
        <g id="Ticket-Star" transform="translate(2.000000, 3.000000)" stroke="#000000"  stroke-width="1.5" >
            <path d="M15.8572,17.4171 C17.7302,17.4171 19.2492,15.8991 19.2501995,14.0261 L19.2501995,14.0241 L19.2501995,11.3241 C18.0132,11.3241 17.0112,10.3221 17.0102,9.0851 C17.0102,7.8491 18.0122,6.8461 19.2492,6.8461 L19.2501995,6.8461 L19.2501995,4.1461 C19.2522,2.2721 17.7352,0.7521 15.8622,0.7501 L15.8562,0.7501 L4.1442,0.7501 C2.2702,0.7501 0.7512,2.2681 0.750199507,4.1421 L0.750199507,4.1431 L0.750199507,6.9331 C1.9442,6.8911 2.9452,7.8251 2.9872,9.0191 C2.9882,9.0411 2.9892,9.0631 2.9892,9.0851 C2.9902,10.3201 1.9912,11.3221 0.7562,11.3241 L0.750199507,11.3241 L0.750199507,14.0241 C0.7492,15.8971 2.2682,17.4171 4.1412,17.4171 L4.1422,17.4171 L15.8572,17.4171 Z" id="Stroke-1"></path>
            <path d="M10.3713,6.0631 L10.9873,7.3101 C11.0473,7.4321 11.1633,7.5171 11.2983,7.5371 L12.6753,7.7381 C13.0163,7.7881 13.1513,8.2061 12.9053,8.4451 L11.9093,9.4151 C11.8113,9.5101 11.7673,9.6471 11.7893,9.7821 L12.0243,11.1521 C12.0823,11.4911 11.7273,11.7491 11.4233,11.5891 L10.1923,10.9421 C10.0713,10.8781 9.9273,10.8781 9.8063,10.9421 L8.5763,11.5891 C8.2713,11.7491 7.9163,11.4911 7.9743,11.1521 L8.2093,9.7821 C8.2323,9.6471 8.1873,9.5101 8.0893,9.4151 L7.0943,8.4451 C6.8483,8.2061 6.9833,7.7881 7.3233,7.7381 L8.7003,7.5371 C8.8353,7.5171 8.9523,7.4321 9.0123,7.3101 L9.6273,6.0631 C9.7793,5.7551 10.2193,5.7551 10.3713,6.0631 Z" id="Stroke-3"></path>
        </g>
    </g>
</svg>