<?xml version="1.0" encoding="UTF-8"?>
<svg width="24px"  height="24px"  viewBox="0 0 24 24" version="1.1" xmlns="http://www.w3.org/2000/svg" xmlns:xlink="http://www.w3.org/1999/xlink">
    <title>Iconly/Bold/3 User</title>
    <g id="Iconly/Bold/3-User" stroke="none" stroke-width="1" fill="none" fill-rule="evenodd">
        <g id="3-User" transform="translate(1.000000, 4.000000)" fill="#000000"  fill-rule="nonzero">
            <path d="M10.9490292,10.5396211 C14.3802124,10.5396211 17.3099701,11.0835876 17.3099701,13.2603542 C17.3099701,15.4362202 14.3990159,16 10.9490292,16 C7.51784599,16 4.58808829,15.4560335 4.58808829,13.2801675 C4.58808829,11.1034009 7.49904253,10.5396211 10.9490292,10.5396211 Z M16.4350721,9.22887796 C17.7468371,9.20456157 19.1570964,9.38468293 19.6782208,9.51256909 C20.7822523,9.72961533 21.5084239,10.1727139 21.8092792,10.8166477 C22.0635736,11.3453039 22.0635736,11.9586171 21.8092792,12.4863727 C21.3490422,13.4851456 19.8653599,13.8057616 19.2887206,13.8886175 C19.169632,13.9066296 19.0738239,13.8030598 19.0863596,13.6832791 C19.3809471,10.9157145 17.0376781,9.60353038 16.4314905,9.30182711 C16.4055238,9.288318 16.4001514,9.26760405 16.4028376,9.25499555 C16.4046284,9.24598949 16.4153733,9.23157978 16.4350721,9.22887796 Z M5.31858262,9.22701175 L5.56559944,9.2292382 C5.5852983,9.23194002 5.59514773,9.24634973 5.59693854,9.25445519 C5.59962474,9.26796429 5.59425233,9.28777764 5.56918105,9.30218735 C4.96209801,9.60389062 2.6188291,10.9160747 2.91341659,13.6827387 C2.92595223,13.8034201 2.83103954,13.9060892 2.71195098,13.8889777 C2.13531163,13.8061219 0.651629328,13.4855059 0.191392331,12.4867329 C-0.0637974436,11.9580768 -0.0637974436,11.3456641 0.191392331,10.817008 C0.492247644,10.1730741 1.21752385,9.72997557 2.3215554,9.51202873 C2.84357518,9.38504317 4.25293906,9.20492182 5.56559944,9.2292382 Z M10.9490292,4.4408921e-15 C13.2851349,4.4408921e-15 15.1583174,1.88226818 15.1583174,4.23285188 C15.1583174,6.58253498 13.2851349,8.46660437 10.9490292,8.46660437 C8.61292351,8.46660437 6.73974103,6.58253498 6.73974103,4.23285188 C6.73974103,1.88226818 8.61292351,4.4408921e-15 10.9490292,4.4408921e-15 Z M16.6633998,0.705895597 C18.9198147,0.705895597 20.6918166,2.84123428 20.0883152,5.2197368 C19.680907,6.82101566 18.2061787,7.88463227 16.5631147,7.84140315 C16.3983606,7.83690011 16.2362927,7.8215898 16.0795972,7.79457159 C15.9658811,7.77475824 15.9085753,7.64597147 15.9730443,7.55050715 C16.5998262,6.62288217 16.9570919,5.50703036 16.9570919,4.30922334 C16.9570919,3.05918112 16.5666963,1.89379595 15.8888765,0.938252147 C15.8673868,0.908532124 15.8512695,0.862601178 15.8727592,0.82837812 C15.8906673,0.800459309 15.9237972,0.786049601 15.9551363,0.778844747 C16.1834639,0.732013194 16.4180595,0.705895597 16.6633998,0.705895597 Z M5.33592864,0.705805536 C5.58126899,0.705805536 5.8158645,0.731923133 6.0450876,0.778754686 C6.07553129,0.78595954 6.10955659,0.801269856 6.12746465,0.828288059 C6.14805891,0.862511117 6.13283706,0.908442063 6.1113474,0.938162087 C5.43352754,1.89370588 5.04313196,3.05909106 5.04313196,4.30913328 C5.04313196,5.5069403 5.40039764,6.62279211 6.02717954,7.55041709 C6.09164854,7.64588141 6.03434276,7.77466818 5.92062662,7.79448153 C5.76303574,7.82240034 5.60186325,7.83681005 5.43710915,7.84131308 C3.79404516,7.88454221 2.31931689,6.8209256 1.91190865,5.21964674 C1.30751182,2.84114422 3.0795138,0.705805536 5.33592864,0.705805536 Z" id="3-Friends"></path>
        </g>
    </g>
</svg>