<?xml version="1.0" encoding="UTF-8"?>
<svg width="24px"  height="24px"  viewBox="0 0 24 24" version="1.1" xmlns="http://www.w3.org/2000/svg" xmlns:xlink="http://www.w3.org/1999/xlink">
    <title>Iconly/Bulk/Volume Up</title>
    <g id="Iconly/Bulk/Volume-Up" stroke="none" stroke-width="1" fill="none" fill-rule="evenodd">
        <g id="Volume-Up" transform="translate(1.000000, 3.000000)" fill="#000000"  fill-rule="nonzero">
            <path d="M12.3570976,3.45057014 C12.3067649,2.96422925 12.254335,2.45963716 12.1253576,1.95611866 C11.7740774,0.751539242 10.8009789,9.50978128e-06 9.75762445,9.50978128e-06 C9.17565285,-0.00212809548 8.43953742,0.35645437 8.02219563,0.719331237 L4.56287255,3.61697817 L2.75194471,3.61697817 C1.41917731,3.61697817 0.347510691,4.64441356 0.145131377,6.12705543 C-0.0268386089,7.55064929 -0.068782508,10.2378706 0.145131377,11.8042533 C0.330733131,13.370636 1.35416427,14.3830409 2.75194471,14.3830409 L4.56287255,14.3830409 L8.08930587,17.3236319 C8.451072,17.6381967 9.08966786,17.9989264 9.67688245,17.9989264 C9.71463196,18.0000095 9.74818707,18.0000095 9.78174219,18.0000095 C10.84502,18.0000095 11.7814176,17.2205663 12.1326977,16.0192076 C12.2658696,15.5081739 12.3120079,15.0293483 12.3570976,14.5666266 L12.4042845,14.1081993 C12.5846433,12.621263 12.5846433,5.36909369 12.4042845,3.89289342 L12.3570976,3.45057014 Z" id="Fill-1"></path>
            <path d="M16.4065713,3.49458774 C16.118207,3.06944207 15.5467214,2.96315565 15.128331,3.2583957 C14.714135,3.55578296 14.6113725,4.14196866 14.8997368,4.56604074 C15.7019138,5.74807456 16.1433734,7.32197245 16.1433734,9.00000955 C16.1433734,10.6769731 15.7019138,12.2519445 14.8997368,13.4339784 C14.6113725,13.8580504 14.714135,14.4442361 15.1293796,14.7416234 C15.284572,14.8511306 15.4659794,14.909105 15.6526298,14.909105 C15.9535772,14.909105 16.2346014,14.7577274 16.4065713,14.5054314 C17.4195165,13.0131271 17.978419,11.0581011 17.978419,9.00000955 C17.978419,6.94191798 17.4195165,4.98689202 16.4065713,3.49458774" id="Fill-4" opacity="0.400000006"></path>
            <path d="M19.5672539,0.457265429 C19.2809867,0.033193351 18.7074039,-0.0752402689 18.2900621,0.221073385 C17.8758661,0.51846064 17.7731036,1.10464635 18.0604193,1.52871842 C19.4173044,3.52776199 20.1649544,6.18170168 20.1649544,8.99990219 C20.1649544,11.8191763 19.4173044,14.473116 18.0604193,16.4721596 C17.7731036,16.8973052 17.8758661,17.4824173 18.2911107,17.7798046 C18.4463031,17.8893118 18.6266619,17.9472862 18.8133123,17.9472862 C19.1142597,17.9472862 19.3963325,17.7959086 19.5672539,17.5436126 C21.1359557,15.2342985 22,12.2003044 22,8.99990219 C22,5.80164721 21.1359557,2.76657945 19.5672539,0.457265429" id="Fill-6" opacity="0.400000006"></path>
        </g>
    </g>
</svg>