<?xml version="1.0" encoding="UTF-8"?>
<svg width="24px"  height="24px"  viewBox="0 0 24 24" version="1.1" xmlns="http://www.w3.org/2000/svg" xmlns:xlink="http://www.w3.org/1999/xlink">
    <title>Iconly/Bulk/Hide</title>
    <g id="Iconly/Bulk/Hide" stroke="none" stroke-width="1" fill="none" fill-rule="evenodd">
        <g id="Hide" transform="translate(2.000000, 3.500000)" fill="#000000"  fill-rule="nonzero">
            <path d="M10,0.381890835 L9.9902439,0.381890835 C5.86341463,0.381890835 2.14634146,3.30588099 0.0585365854,8.20873317 C-0.0195121951,8.39578978 -0.0195121951,8.61238164 0.0585365854,8.78959317 C0.731707317,10.3736673 1.5804878,11.7529637 2.55609756,12.8949935 L6.16585366,9.25231215 C6.12682927,9.01603011 6.09756098,8.76005791 6.09756098,8.50408571 C6.09756098,6.32832199 7.84390244,4.56605183 10,4.56605183 C10.2536585,4.56605183 10.5073171,4.59558709 10.7414634,4.63496742 L14,1.34572463 C12.7512195,0.716623715 11.395122,0.381890835 10,0.381890835 M19.9414634,8.20873317 C19.0439024,6.10188504 17.8439024,4.34945997 16.4292683,3.04990879 L13.2195122,6.28894165 C13.6390244,6.91902707 13.8926829,7.68694368 13.8926829,8.50408571 C13.8926829,10.6700043 12.1463415,12.4322745 10,12.4322745 C9.1902439,12.4322745 8.42926829,12.1753178 7.80487805,11.7529637 L4.71219512,14.8738555 C6.30243902,16.0060402 8.10731707,16.6262806 9.9902439,16.6262806 L10,16.6262806 C14.1365854,16.6262806 17.8536585,13.6924453 19.9414634,8.78959317 C20.0195122,8.61238164 20.0195122,8.39578978 19.9414634,8.20873317" id="Fill-1" opacity="0.400000006"></path>
            <path d="M18.2050732,0.214130592 C18.4977561,0.499638048 18.4977561,0.972202114 18.2050732,1.25770957 L16.4294634,3.04951498 L13.2197073,6.28854785 L11.8056004,7.715 L12.1563902,7.36205589 C12.332,7.69678877 12.429561,8.09059215 12.429561,8.50408571 C12.429561,9.85286231 11.336878,10.9555118 10.0002927,10.9555118 C9.59093596,10.9555118 9.20105341,10.8572528 8.86955544,10.6803674 L2.81970732,16.7843926 C2.67336585,16.9310844 2.488,17 2.30263415,17 C2.11726829,17 1.92214634,16.9310844 1.78556098,16.7843926 C1.54165854,16.5382655 1.50263415,16.1434776 1.6977561,15.8579702 L1.72702439,15.8185898 L12.1953171,5.25579847 L15.288,2.13490662 L16.1562927,1.25770957 C16.1758049,1.2380194 16.1953171,1.21832923 16.2050732,1.19863906 C16.2245854,1.17894889 16.2440976,1.15925872 16.2538537,1.13956855 L17.1709268,0.214130592 C17.4636098,-0.0713768641 17.9221463,-0.0713768641 18.2050732,0.214130592 Z" id="Combined-Shape"></path>
        </g>
    </g>
</svg>