<?xml version="1.0" encoding="UTF-8"?>
<svg width="24px"  height="24px"  viewBox="0 0 24 24" version="1.1" xmlns="http://www.w3.org/2000/svg" xmlns:xlink="http://www.w3.org/1999/xlink">
    <title>Iconly/Bulk/Arrow - Down 3</title>
    <defs>
        <polygon id="path-1" points="0.000233631017 0.534221053 10.8966316 0.534221053 10.8966316 9.47368421 0.000233631017 9.47368421"></polygon>
    </defs>
    <g id="Iconly/Bulk/Arrow---Down-3" stroke="none" stroke-width="1" fill="none" fill-rule="evenodd">
        <g id="Arrow---Down-3" transform="translate(6.500000, 3.000000)">
            <path d="M6.15922105,0.710905263 L6.15922105,9.18890526 C6.15922105,9.58111579 5.84090526,9.89943158 5.44869474,9.89943158 C5.05648421,9.89943158 4.73816842,9.58111579 4.73816842,9.18890526 L4.73816842,0.710905263 C4.73816842,0.318694737 5.05648421,0.000378947368 5.44869474,0.000378947368 C5.84090526,0.000378947368 6.15922105,0.318694737 6.15922105,0.710905263" id="Fill-1" fill="#000000"  fill-rule="nonzero" opacity="0.400000006"></path>
            <g id="Group-5" transform="translate(0.000000, 7.944347)">
                <mask id="mask-2" fill="white">
                    <use xlink:href="#path-1"></use>
                </mask>
                <g id="Clip-4"></g>
                <path d="M10.8969158,1.24474737 C10.8969158,1.37737895 10.8599684,1.50811579 10.7879684,1.62369474 L6.05017895,9.14201053 C5.91944211,9.34853684 5.69302105,9.47453684 5.4486,9.47453684 C5.20417895,9.47453684 4.97775789,9.34853684 4.84702105,9.14201053 L0.109231579,1.62369474 C-0.0281368421,1.40485263 -0.0366631579,1.12822105 0.0893368421,0.9018 C0.214389474,0.674431579 0.452178947,0.534221053 0.710810526,0.534221053 L10.1863895,0.534221053 C10.4450211,0.534221053 10.6828105,0.674431579 10.8078632,0.9018 C10.8675474,1.00885263 10.8969158,1.12727368 10.8969158,1.24474737" id="Fill-3" fill="#000000"  fill-rule="nonzero" mask="url(#mask-2)"></path>
            </g>
        </g>
    </g>
</svg>