<?xml version="1.0" encoding="UTF-8"?>
<svg width="24px"  height="24px"  viewBox="0 0 24 24" version="1.1" xmlns="http://www.w3.org/2000/svg" xmlns:xlink="http://www.w3.org/1999/xlink">
    <title>Iconly/Bulk/Ticket</title>
    <g id="Iconly/Bulk/Ticket" stroke="none" stroke-width="1" fill="none" fill-rule="evenodd">
        <g id="Ticket" transform="translate(2.000000, 4.000000)" fill="#000000"  fill-rule="nonzero">
            <path d="M11.7504836,5.70301215 L11.7504836,3.68316599 C11.3539652,3.68316599 11.0251451,3.36374846 11.0251451,2.97856849 L11.0251451,0.573542364 C11.0251451,0.253185368 10.7640232,0.000469731666 10.4352031,0.000469731666 L3.79110251,0.000469731666 C1.70212766,0.000469731666 -3.01980663e-14,1.65298573 -3.01980663e-14,3.68316599 L-3.01980663e-14,6.11543656 C-3.01980663e-14,6.30426869 0.0773694391,6.48276672 0.212765957,6.61429159 C0.348162476,6.74487699 0.531914894,6.82003406 0.725338491,6.82003406 C1.46034816,6.82003406 2.0212766,7.32734425 2.0212766,7.99436322 C2.0212766,8.69050555 1.45067698,9.24478891 0.735009671,9.25324408 C0.338491296,9.25324408 -3.01980663e-14,9.52568845 -3.01980663e-14,9.92026305 L-3.01980663e-14,12.3262286 C-3.01980663e-14,14.3554694 1.70212766,15.9995303 3.78143133,15.9995303 L10.4352031,15.9995303 C10.7640232,15.9995303 11.0251451,15.7449357 11.0251451,15.4264576 L11.0251451,13.3962774 C11.0251451,13.0026422 11.3539652,12.6916799 11.7504836,12.6916799 L11.7504836,10.8700605 C11.3539652,10.8700605 11.0251451,10.5497035 11.0251451,10.165463 L11.0251451,6.40760965 C11.0251451,6.02242969 11.3539652,5.70301215 11.7504836,5.70301215" id="Fill-1" opacity="0.400000006"></path>
            <path d="M17.9787234,7.99483295 C17.9787234,8.69003582 18.5589942,9.24431918 19.2649903,9.25371382 C19.6615087,9.25371382 20,9.52615818 20,9.91133815 L20,12.3257589 C20,14.3559392 18.3075435,16 16.2185687,16 L13.065764,16 C12.7466151,16 12.4758221,15.7454054 12.4758221,15.4259879 L12.4758221,13.3967471 C12.4758221,13.0021725 12.1566731,12.6921496 11.7504836,12.6921496 L11.7504836,10.8705302 C12.1566731,10.8705302 12.4758221,10.5501732 12.4758221,10.1659327 L12.4758221,6.40807938 C12.4758221,6.02195996 12.1566731,5.70348189 11.7504836,5.70348189 L11.7504836,3.68269626 C12.1566731,3.68269626 12.4758221,3.36327873 12.4758221,2.97809876 L12.4758221,0.574012096 C12.4758221,0.2536551 12.7466151,0 13.065764,0 L16.2185687,0 C18.3075435,0 20,1.64406083 20,3.67330163 L20,6.04074922 C20,6.22864189 19.9226306,6.40807938 19.787234,6.53866479 C19.6518375,6.67018965 19.4680851,6.74534672 19.2746615,6.74534672 C18.5589942,6.74534672 17.9787234,7.30996418 17.9787234,7.99483295" id="Fill-4"></path>
        </g>
    </g>
</svg>