<?xml version="1.0" encoding="UTF-8"?>
<svg width="24px"  height="24px"  viewBox="0 0 24 24" version="1.1" xmlns="http://www.w3.org/2000/svg" xmlns:xlink="http://www.w3.org/1999/xlink">
    <title>Iconly/Bulk/Voice</title>
    <g id="Iconly/Bulk/Voice" stroke="none" stroke-width="1" fill="none" fill-rule="evenodd">
        <g id="Voice" transform="translate(3.500000, 2.000000)" fill="#000000"  fill-rule="nonzero">
            <path d="M16.0312838,7.82567934 C15.4965525,7.82567934 15.0625677,8.25330164 15.0625677,8.78232877 C15.0625677,12.3554144 12.1186392,15.262672 8.50048436,15.262672 C4.88136076,15.262672 1.93743233,12.3554144 1.93743233,8.78232877 C1.93743233,8.25330164 1.50344749,7.82567934 0.968716166,7.82567934 C0.433984842,7.82567934 0,8.25330164 0,8.78232877 C0,13.0872512 3.29944726,16.6412038 7.53176819,17.1185719 L7.53176819,19.0433506 C7.53176819,19.5714211 7.96478432,20 8.50048436,20 C9.03521568,20 9.46920052,19.5714211 9.46920052,19.0433506 L9.46920052,17.1185719 C13.7005527,16.6412038 17,13.0872512 17,8.78232877 C17,8.25330164 16.5660152,7.82567934 16.0312838,7.82567934" id="Fill-1" opacity="0.400000006"></path>
            <path d="M8.3245655,13.2170685 L8.67524075,13.2170685 C11.0776568,13.2170685 13.0267138,11.2932465 13.0267138,8.92075594 L13.0267138,4.29726924 C13.0267138,1.92286536 11.0776568,6.21724894e-15 8.67524075,6.21724894e-15 L8.3245655,6.21724894e-15 C5.92214941,6.21724894e-15 3.97309248,1.92286536 3.97309248,4.29726924 L3.97309248,8.92075594 C3.97309248,11.2932465 5.92214941,13.2170685 8.3245655,13.2170685" id="Fill-4"></path>
        </g>
    </g>
</svg>