<?xml version="1.0" encoding="UTF-8"?>
<svg width="24px"  height="24px"  viewBox="0 0 24 24" version="1.1" xmlns="http://www.w3.org/2000/svg" xmlns:xlink="http://www.w3.org/1999/xlink">
    <title>Iconly/Two-tone/Filter</title>
    <g id="Iconly/Two-tone/Filter" stroke="#000000"  stroke-width="1.5"  fill="none" fill-rule="evenodd" stroke-linecap="round" stroke-linejoin="round">
        <g id="Filter" transform="translate(4.000000, 4.000000)" stroke="#000000"  stroke-width="1.5" >
            <line x1="7" y1="13.5" x2="0" y2="13.5" id="Stroke-1" opacity="0.400000006"></line>
            <path d="M16,13.5 C16,14.880719 14.880719,16 13.5,16 C12.119281,16 11,14.880719 11,13.5 C11,12.1182598 12.119281,11 13.5,11 C14.880719,11 16,12.1182598 16,13.5 Z" id="Stroke-3"></path>
            <line x1="9" y1="2.5" x2="16" y2="2.5" id="Stroke-5" opacity="0.400000006"></line>
            <path d="M0,2.5 C0,3.8817402 1.11928105,5 2.5,5 C3.88071895,5 5,3.8817402 5,2.5 C5,1.11928105 3.88071895,0 2.5,0 C1.11928105,0 0,1.11928105 0,2.5 Z" id="Stroke-7"></path>
        </g>
    </g>
</svg>