<?xml version="1.0" encoding="UTF-8"?>
<svg width="24px"  height="24px"  viewBox="0 0 24 24" version="1.1" xmlns="http://www.w3.org/2000/svg" xmlns:xlink="http://www.w3.org/1999/xlink">
    <title>Iconly/Bulk/Logout</title>
    <g id="Iconly/Bulk/Logout" stroke="none" stroke-width="1" fill="none" fill-rule="evenodd">
        <g id="Logout" transform="translate(2.000000, 2.000000)" fill="#000000"  fill-rule="nonzero">
            <path d="M0,4.447 C0,1.996 2.03023915,0 4.52453297,0 L9.48564367,0 C11.9748492,0 14,1.99 14,4.437 L14,15.553 C14,18.005 11.9697608,20 9.47444937,20 L4.51537399,20 C2.02515083,20 0,18.01 0,15.563 L0,14.623 L0,4.447 Z" id="Fill-1" opacity="0.400000006"></path>
            <path d="M19.7789205,9.4548 L16.9331308,6.5458 C16.6390074,6.2458 16.165683,6.2458 15.8725336,6.5478 C15.580358,6.8498 15.5813319,7.3368 15.8744814,7.6368 L17.4337248,9.2298 L15.93876,9.2298 L7.54845244,9.2298 C7.1345371,9.2298 6.79853523,9.5748 6.79853523,9.9998 C6.79853523,10.4258 7.1345371,10.7698 7.54845244,10.7698 L17.4337248,10.7698 L15.8744814,12.3628 C15.5813319,12.6628 15.580358,13.1498 15.8725336,13.4518 C16.0195952,13.6028 16.2114572,13.6788 16.404293,13.6788 C16.5951811,13.6788 16.787043,13.6028 16.9331308,13.4538 L19.7789205,10.5458 C19.9201387,10.4008 20,10.2048 20,9.9998 C20,9.7958 19.9201387,9.5998 19.7789205,9.4548" id="Fill-3"></path>
        </g>
    </g>
</svg>