<?xml version="1.0" encoding="UTF-8"?>
<svg width="24px"  height="24px"  viewBox="0 0 24 24" version="1.1" xmlns="http://www.w3.org/2000/svg" xmlns:xlink="http://www.w3.org/1999/xlink">
    <title>Iconly/Light/Image 2</title>
    <g id="Iconly/Light/Image-2" stroke="#000000"  stroke-width="1.5"  fill="none" fill-rule="evenodd" stroke-linecap="round" stroke-linejoin="round">
        <g id="Image-2" transform="translate(2.000000, 2.000000)" stroke="#000000"  stroke-width="1.5" >
            <path d="M14.3027,0.7498 L5.6507,0.7498 C2.6387,0.7498 0.7497,2.8838 0.7497,5.9038 L0.7497,14.0498 C0.7497,17.0698 2.6307,19.2038 5.6507,19.2038 L14.2977,19.2038 C17.3227,19.2038 19.2027064,17.0698 19.2027064,14.0498 L19.2027064,5.9038 C19.2067,2.8838 17.3257,0.7498 14.3027,0.7498 Z" id="Stroke-1"></path>
            <path d="M8.7031,6.785 C8.7031,7.805 7.8771,8.631 6.8571,8.631 C5.8381,8.631 5.0111,7.805 5.0111,6.785 C5.0111,5.765 5.8381,4.939 6.8571,4.939 C7.8761,4.94 8.7021,5.766 8.7031,6.785 Z" id="Stroke-3"></path>
            <path d="M19.207,12.951 C18.284,12.001 16.509,10.082 14.579,10.082 C12.648,10.082 11.535,14.315 9.678,14.315 C7.821,14.315 6.134,12.401 4.646,13.628 C3.158,14.854 1.75,17.361 1.75,17.361" id="Stroke-5"></path>
        </g>
    </g>
</svg>