<?xml version="1.0" encoding="UTF-8"?>
<svg width="24px"  height="24px"  viewBox="0 0 24 24" version="1.1" xmlns="http://www.w3.org/2000/svg" xmlns:xlink="http://www.w3.org/1999/xlink">
    <title>Iconly/Bulk/Swap</title>
    <g id="Iconly/Bulk/Swap" stroke="none" stroke-width="1" fill="none" fill-rule="evenodd">
        <g id="Swap" transform="translate(2.000000, 3.000000)" fill="#000000"  fill-rule="nonzero">
            <path d="M4.70553126,9.89052811 C4.18941732,9.89052811 3.77161081,10.3145504 3.77161081,10.8383427 L3.51413901,15.4170709 C3.51413901,16.0845794 4.04780783,16.625 4.70553126,16.625 C5.36325468,16.625 5.89575318,16.0845794 5.89575318,15.4170709 L5.6394517,10.8383427 C5.6394517,10.3145504 5.22164519,9.89052811 4.70553126,9.89052811" id="Fill-1" opacity="0.400000006"></path>
            <path d="M5.98036778,0.673447189 C5.98036778,0.673447189 5.71236304,0.397892078 5.54617669,0.277930586 C5.30508946,0.0926435287 5.00782656,-8.8817842e-16 4.71173398,-8.8817842e-16 C4.37936129,-8.8817842e-16 4.07039513,0.104520904 3.81877496,0.301685337 C3.77313223,0.348007101 3.57885805,0.522604521 3.41852334,0.685324565 C2.41204266,1.63670234 0.765393449,4.12026155 0.262153108,5.42083417 C0.182570914,5.6179986 0.0105329374,6.11684837 -1.0658141e-14,6.38408932 C-1.0658141e-14,6.63826515 0.056175666,6.88293909 0.170867651,7.11454791 C0.331202364,7.40435587 0.582822535,7.63715243 0.880085434,7.76424035 C1.08606288,7.84619424 1.70282488,7.97328216 1.71452814,7.97328216 C2.38980646,8.10155781 3.4875726,8.17044659 4.70003072,8.17044659 C5.85514285,8.17044659 6.90726626,8.10155781 7.59307752,7.99703691 C7.60478078,7.98515953 8.37017423,7.85807161 8.63349767,7.71791858 C9.11333148,7.46255501 9.41176471,6.96370524 9.41176471,6.43041108 L9.41176471,6.38408932 C9.40006144,6.03608222 9.10162822,5.30443589 9.09109528,5.30443589 C8.58785494,4.07393979 7.02078792,1.64857972 5.98036778,0.673447189" id="Fill-3"></path>
            <path d="M15.2947028,8.10961624 C15.8108167,8.10961624 16.2286233,7.68558484 16.2286233,7.16178136 L16.4849247,2.58295498 C16.4849247,1.91543217 15.9524262,1.375 15.2947028,1.375 C14.6369794,1.375 14.1033106,1.91543217 14.1033106,2.58295498 L14.3607824,7.16178136 C14.3607824,7.68558484 14.7785889,8.10961624 15.2947028,8.10961624" id="Fill-6" opacity="0.400000006"></path>
            <path d="M19.8291323,10.8852996 C19.6687976,10.5954854 19.4171775,10.3638716 19.1199146,10.2355932 C18.9139371,10.1536376 18.2960048,10.0265469 18.2854719,10.0265469 C17.6101935,9.89826855 16.5124274,9.82937829 15.2999693,9.82937829 C14.1448571,9.82937829 13.0927337,9.89826855 12.4069225,10.0027917 C12.3952192,10.0146693 11.6298258,10.1429477 11.3665023,10.281916 C10.8854982,10.537285 10.5882353,11.0361455 10.5882353,11.5706389 L10.5882353,11.6169616 C10.5999386,11.9649762 10.8972015,12.6954504 10.9089047,12.6954504 C11.4121451,13.9259729 12.9780418,16.3525727 14.0196322,17.3265384 C14.0196322,17.3265384 14.287637,17.6020994 14.4538233,17.7208757 C14.6937402,17.9073545 14.9910031,18 15.2894363,18 C15.6206387,18 15.9284345,17.8954769 16.181225,17.6983082 C16.2268678,17.6519854 16.4211419,17.4773843 16.5814767,17.3158485 C17.586787,16.3632626 19.2346066,13.8796501 19.7366766,12.5802374 C19.8174291,12.3830688 19.9894671,11.8830205 20,11.6169616 C20,11.3615926 19.9438243,11.1169134 19.8291323,10.8852996" id="Fill-8"></path>
        </g>
    </g>
</svg>