<?xml version="1.0" encoding="UTF-8"?>
<svg width="24px"  height="24px"  viewBox="0 0 24 24" version="1.1" xmlns="http://www.w3.org/2000/svg" xmlns:xlink="http://www.w3.org/1999/xlink">
    <title>Iconly/Bulk/More Square</title>
    <g id="Iconly/Bulk/More-Square" stroke="none" stroke-width="1" fill="none" fill-rule="evenodd">
        <path d="M16.3401,1.9998 L7.6701,1.9998 C4.2801,1.9998 2.0001,4.3798 2.0001,7.9198 L2.0001,16.0898 C2.0001,19.6198 4.2801,21.9998 7.6701,21.9998 L16.3401,21.9998 C19.7301,21.9998 22.0001,19.6198 22.0001,16.0898 L22.0001,7.9198 C22.0001,4.3798 19.7301,1.9998 16.3401,1.9998" id="Fill-1" fill="#000000"  fill-rule="nonzero" opacity="0.400000006"></path>
        <path d="M7.5212,10.8035 C8.1822,10.8035 8.7192,11.3405 8.7192,11.9995 C8.7192,12.6595 8.1822,13.1975 7.5212,13.1975 C6.8602,13.1975 6.3232,12.6595 6.3232,11.9995 C6.3232,11.3405 6.8602,10.8035 7.5212,10.8035 Z M12.0002,10.8035 C12.6612,10.8035 13.1982,11.3405 13.1982,11.9995 C13.1982,12.6595 12.6612,13.1975 12.0002,13.1975 C11.3392,13.1975 10.8022,12.6595 10.8022,11.9995 C10.8022,11.3405 11.3392,10.8035 12.0002,10.8035 Z M16.4797,10.8035 C17.1407,10.8035 17.6777,11.3405 17.6777,11.9995 C17.6777,12.6595 17.1407,13.1975 16.4797,13.1975 C15.8187,13.1975 15.2817,12.6595 15.2817,11.9995 C15.2817,11.3405 15.8187,10.8035 16.4797,10.8035 Z" id="Combined-Shape" fill="#000000"  fill-rule="nonzero"></path>
    </g>
</svg>