<?xml version="1.0" encoding="UTF-8"?>
<svg width="24px"  height="24px"  viewBox="0 0 24 24" version="1.1" xmlns="http://www.w3.org/2000/svg" xmlns:xlink="http://www.w3.org/1999/xlink">
    <title>Iconly/Bulk/Discount</title>
    <g id="Iconly/Bulk/Discount" stroke="none" stroke-width="1" fill="none" fill-rule="evenodd">
        <path d="M11.9991,21.9982 C11.2301,21.9982 10.4621,21.7062 9.8751,21.1232 L9.1451,20.3932 C8.8621,20.1112 8.4831,19.9552 8.0811,19.9542 L7.0541,19.9542 C5.3941,19.9542 4.0431,18.6032 4.0431,16.9432 L4.0431,15.9152 C4.0421,15.5142 3.8861,15.1352 3.6031,14.8502 L2.8851,14.1332 C1.7091,12.9642 1.7041,11.0532 2.8741,9.8762 L3.6041,9.1452 C3.8861,8.8622 4.0421,8.4832 4.0431,8.0812 L4.0431,7.0552 C4.0431,5.3942 5.3941,4.0432 7.0541,4.0432 L8.0821,4.0432 C8.4831,4.0432 8.8611,3.8872 9.1461,3.6022 L9.8651,2.8852 C11.0341,1.7092 12.9441,1.7032 14.1221,2.8742 L14.8521,3.6042 C15.1361,3.8872 15.5141,4.0432 15.9151,4.0432 L16.9431,4.0432 C18.6031,4.0432 19.9541,5.3942 19.9541,7.0552 L19.9541,8.0822 C19.9551,8.4832 20.1111,8.8622 20.3941,9.1472 L21.1121,9.8652 C21.6811,10.4312 21.9961,11.1852 21.9991097,11.9902 C22.0011,12.7902 21.6931,13.5432 21.1321,14.1122 C21.1221,14.1222 21.1131,14.1332 21.1031,14.1422 L20.3931,14.8522 C20.1111,15.1352 19.9551,15.5142 19.9541,15.9162 L19.9541,16.9432 C19.9541,18.6032 18.6031,19.9542 16.9431,19.9542 L15.9151,19.9542 C15.5141,19.9552 15.1351,20.1112 14.8511,20.3942 L14.1321,21.1122 C13.5461,21.7022 12.7721,21.9982 11.9991,21.9982" id="Fill-1" fill="#000000"  fill-rule="nonzero" opacity="0.400000006"></path>
        <path d="M13.9418,13.9579 C14.1978,13.7019 14.5818,13.6279 14.9058,13.7639 C15.0008,13.7959 15.1068,13.8639 15.1948,13.9509 C15.3548,14.1109 15.4418,14.3299 15.4418,14.5699 C15.4418,14.8089 15.3548,15.0289 15.1958,15.1879 C15.0168,15.3549 14.7988,15.4449 14.5768,15.4449 C14.3428,15.4449 14.1328,15.3599 13.9518,15.1919 C13.8728,15.1129 13.8128,15.0219 13.7628,14.9099 C13.7088,14.7879 13.7018,14.6579 13.7018,14.5699 C13.7018,14.4819 13.7088,14.3509 13.7628,14.2289 C13.8138,14.1159 13.8888,14.0199 13.9418,13.9579 Z M13.9535,8.8098 C14.2945,8.4698 14.8495,8.4698 15.1905,8.8098 C15.5315,9.1518 15.5315,9.7058 15.1905,10.0478 L15.1905,10.0478 L10.0505,15.1878 C9.8855,15.3528 9.6665,15.4438 9.4325,15.4438 C9.1985,15.4438 8.9795,15.3528 8.8135,15.1878 C8.4725,14.8458 8.4725,14.2908 8.8135,13.9498 L8.8135,13.9498 Z M9.1068,8.6209 C9.4088,8.4829 9.8098,8.5639 10.0478,8.8139 C10.1328,8.8989 10.1978,8.9919 10.2408,9.0889 C10.2878,9.1929 10.3118,9.3109 10.3118,9.4299 C10.3118,9.6679 10.2168,9.8889 10.0428,10.0509 C9.8778,10.2159 9.6638,10.3049 9.4268,10.3049 C9.2048,10.3049 8.9868,10.2139 8.8118,10.0499 C8.6458,9.8849 8.5518,9.6589 8.5518,9.4299 C8.5518,9.2119 8.6438,8.9879 8.8058,8.8149 C8.8948,8.7249 9.0008,8.6569 9.1068,8.6209 Z" id="Combined-Shape" fill="#000000"  fill-rule="nonzero"></path>
    </g>
</svg>