<?xml version="1.0" encoding="UTF-8"?>
<svg width="24px"  height="24px"  viewBox="0 0 24 24" version="1.1" xmlns="http://www.w3.org/2000/svg" xmlns:xlink="http://www.w3.org/1999/xlink">
    <title>Iconly/Bold/Paper</title>
    <g id="Iconly/Bold/Paper" stroke="none" stroke-width="1" fill="none" fill-rule="evenodd">
        <g id="Paper" transform="translate(3.500000, 2.000000)" fill="#000000"  fill-rule="nonzero">
            <path d="M9.75247525,0 C10.009901,0 10.2079208,0.21 10.2079208,0.46 L10.2079208,0.46 L10.2079208,3.68 C10.2079208,5.51 11.7029703,7.01 13.5148515,7.02 C14.2673267,7.02 14.8613861,7.03 15.3168317,7.03 L15.4855152,7.02925926 C15.789879,7.02694444 16.19967,7.02 16.5544554,7.02 C16.8019802,7.02 17,7.22 17,7.47 L17,7.47 L17,15.51 C17,17.99 15.009901,20 12.5544554,20 L12.5544554,20 L4.67326733,20 C2.0990099,20 8.8817842e-15,17.89 8.8817842e-15,15.29 L8.8817842e-15,15.29 L8.8817842e-15,4.51 C8.8817842e-15,2.03 2,0 4.46534653,0 L4.46534653,0 Z M10.8118812,12.9 L5.42574257,12.9 C5.01980198,12.9 4.68316832,13.23 4.68316832,13.64 C4.68316832,14.05 5.01980198,14.39 5.42574257,14.39 L5.42574257,14.39 L10.8118812,14.39 C11.2178218,14.39 11.5544554,14.05 11.5544554,13.64 C11.5544554,13.23 11.2178218,12.9 10.8118812,12.9 L10.8118812,12.9 Z M8.77227723,7.9 L5.42574257,7.9 C5.01980198,7.9 4.68316832,8.24 4.68316832,8.65 C4.68316832,9.06 5.01980198,9.39 5.42574257,9.39 L5.42574257,9.39 L8.77227723,9.39 C9.17821782,9.39 9.51485149,9.06 9.51485149,8.65 C9.51485149,8.24 9.17821782,7.9 8.77227723,7.9 L8.77227723,7.9 Z M11.6506931,0.906 C11.6506931,0.475 12.1685149,0.261 12.4645545,0.572 C13.5348515,1.696 15.4051485,3.661 16.4506931,4.759 C16.739802,5.062 16.5279208,5.565 16.1110891,5.566 C15.2972277,5.569 14.3378218,5.566 13.6477228,5.559 C12.5526733,5.559 11.6506931,4.648 11.6506931,3.542 L11.6506931,3.542 Z"></path>
        </g>
    </g>
</svg>