<?xml version="1.0" encoding="UTF-8"?>
<svg width="24px"  height="24px"  viewBox="0 0 24 24" version="1.1" xmlns="http://www.w3.org/2000/svg" xmlns:xlink="http://www.w3.org/1999/xlink">
    <title>Iconly/Bold/Arrow - Left Square</title>
    <g id="Iconly/Bold/Arrow---Left-Square" stroke="none" stroke-width="1" fill="none" fill-rule="evenodd">
        <g id="Arrow---Left-Square" transform="translate(1.999900, 2.000000)" fill="#000000"  fill-rule="nonzero">
            <path d="M14.09,-1.13686838e-13 C17.62,-1.13686838e-13 20,2.271 20,5.66 L20,5.66 L20,14.33 C20,17.72 17.62,20 14.09,20 L14.09,20 L5.92,20 C2.38,20 3.47187368e-16,17.72 3.47187368e-16,14.33 L3.47187368e-16,14.33 L3.47187368e-16,5.66 C3.47187368e-16,2.271 2.38,-1.13686838e-13 5.92,-1.13686838e-13 L5.92,-1.13686838e-13 Z M10.21,5.72 C9.92,5.43 9.44,5.43 9.15,5.72 L9.15,5.72 L5.38,9.47 C5.1,9.75 5.1,10.25 5.38,10.53 L5.38,10.53 L9.15,14.28 C9.44,14.57 9.92,14.57 10.21,14.28 C10.5,13.98 10.5,13.51 10.21,13.21 L10.21,13.21 L7.73,10.75 L14.08,10.75 C14.5,10.75 14.83,10.41 14.83,10 C14.83,9.58 14.5,9.25 14.08,9.25 L14.08,9.25 L7.73,9.25 L10.21,6.78 C10.35,6.64 10.43,6.44 10.43,6.25 C10.43,6.061 10.35,5.87 10.21,5.72 Z"></path>
        </g>
    </g>
</svg>