<?xml version="1.0" encoding="UTF-8"?>
<svg width="24px"  height="24px"  viewBox="0 0 24 24" version="1.1" xmlns="http://www.w3.org/2000/svg" xmlns:xlink="http://www.w3.org/1999/xlink">
    <title>Iconly/Bulk/Scan</title>
    <g id="Iconly/Bulk/Scan" stroke="none" stroke-width="1" fill="none" fill-rule="evenodd">
        <g id="Scan" transform="translate(1.000000, 3.000000)" fill="#000000"  fill-rule="nonzero">
            <path d="M13.7625,3.74265775 C14.3675,3.74265775 14.9485,3.98094366 15.3715,4.40554366 C15.7975,4.83406606 16.0335,5.40967853 16.0325032,6.0088254 L16.0325032,6.0088254 L16.0325032,7.25418798 C16.0275,7.40029745 15.9085,7.5189501 15.7595,7.52287251 L15.7595,7.52287251 L6.2395,7.52287251 C6.0915,7.5179695 5.9725,7.39931685 5.96941152,7.25418798 L5.96941152,7.25418798 L5.96941152,6.0088254 C5.9585,4.76836583 6.9745,3.75540556 8.2385,3.74265775 L8.2385,3.74265775 Z M16.1936,0.000294180136 C18.3906,0.000294180136 20.1766,1.75164659 20.1766,3.90602579 L20.1766,3.90602579 L20.1766,5.76230245 C20.1766,6.17415464 19.8366,6.50952 19.4156,6.50952 C18.9956,6.50952 18.6546,6.17415464 18.6546,5.76230245 L18.6546,5.76230245 L18.6546,3.90602579 C18.6546,2.57535097 17.5506,1.49276807 16.1936,1.49276807 L16.1936,1.49276807 L14.6006,1.49276807 C14.1806,1.49276807 13.8396,1.15936392 13.8396,0.747511726 C13.8396,0.334678935 14.1806,0.000294180136 14.6006,0.000294180136 L14.6006,0.000294180136 Z M7.4277,3.55271368e-15 C7.8477,3.55271368e-15 8.1887,0.334384755 8.1887,0.747217546 C8.1887,1.15906974 7.8487,1.49345449 7.4277,1.49345449 L7.4277,1.49345449 L5.7987,1.49443509 C4.4467,1.49639629 3.3467,2.57603739 3.3467,3.90278981 L3.3467,3.90278981 L3.3467,5.76200827 C3.3467,6.17386046 3.0047,6.50922582 2.5847,6.50922582 C2.1647,6.50922582 1.8237,6.17386046 1.8237,5.76200827 L1.8237,5.76200827 L1.8237,3.90278981 C1.8237,1.75331361 3.6067,0.00294180136 5.7977,0.000980600454 L5.7977,0.000980600454 Z" id="Combined-Shape" opacity="0.400000006"></path>
            <path d="M21.239,9.04123425 L0.762,9.04123425 C0.342,9.04123425 0,9.375619 0,9.7884518 C0,10.200304 0.342,10.5337081 0.762,10.5337081 L1.823,10.5337081 L1.823,14.0972102 C1.823,16.2466864 3.607,17.9970582 5.798,17.9990194 L7.427,18 L7.427,18 C7.848,18 8.188,17.6656152 8.189,17.2527825 C8.189,16.8409303 7.848,16.5065455 7.428,16.5065455 L5.8,16.5055649 C4.447,16.5036037 3.346,15.4239626 3.346,14.0972102 L3.346,10.5337081 L5.969,10.5337081 L5.969,11.5250952 C5.959,12.7655548 6.974,13.7794956 8.238,13.7912628 L13.762,13.7912628 C15.027,13.7794956 16.042,12.7655548 16.032,11.5250952 L16.032,10.5337081 L18.655,10.5337081 L18.655,14.0932878 C18.655,15.4249432 17.551,16.5065455 16.194,16.5065455 L14.601,16.5065455 C14.18,16.5065455 13.839,16.8409303 13.839,17.2527825 C13.839,17.6656152 14.18,18 14.601,18 L16.194,18 C18.39,18 20.177,16.2486476 20.177,14.0932878 L20.177,10.5337081 L21.239,10.5337081 C21.659,10.5337081 22,10.200304 22,9.7884518 C22,9.375619 21.659,9.04123425 21.239,9.04123425" id="Fill-7"></path>
        </g>
    </g>
</svg>