<?xml version="1.0" encoding="UTF-8"?>
<svg width="24px"  height="24px"  viewBox="0 0 24 24" version="1.1" xmlns="http://www.w3.org/2000/svg" xmlns:xlink="http://www.w3.org/1999/xlink">
    <title>Iconly/Light/Work</title>
    <g id="Iconly/Light/Work" stroke="#000000"  stroke-width="2"  fill="none" fill-rule="evenodd" stroke-linecap="round" stroke-linejoin="round">
        <g id="Work" transform="translate(2.000000, 2.000000)" stroke="#000000"  stroke-width="2" >
            <line x1="9.9951" y1="14.6768" x2="9.9951" y2="12.1398" id="Stroke-1"></line>
            <g id="Group-8" transform="translate(0.000000, 0.739900)">
                <path d="M16.1899,2.5903 C17.8799,2.5903 19.2399,3.9603 19.2399,5.6503 L19.2399,9.0903 C16.7799,10.5303 13.5299,11.4003 9.9899,11.4003 C6.4499,11.4003 3.2099,10.5303 0.7499,9.0903 L0.7499,5.6403 C0.7499,3.9503 2.1199,2.5903 3.8099,2.5903 L16.1899,2.5903 Z" id="Stroke-2"></path>
                <path d="M13.4951,2.5859 L13.4951,2.2199 C13.4951,0.9999 12.5051,0.0099 11.2851,0.0099 L8.7051,0.0099 C7.4851,0.0099 6.4951,0.9999 6.4951,2.2199 L6.4951,2.5859" id="Stroke-4"></path>
                <path d="M0.7744,12.7431 L0.9634,15.2521 C1.0914,16.9431 2.5004,18.2501 4.1954,18.2501 L15.7944,18.2501 C17.4894,18.2501 18.8984,16.9431 19.0264,15.2521 L19.2154,12.7431" id="Stroke-6"></path>
            </g>
        </g>
    </g>
</svg>