<svg width="24" height="25" viewBox="0 0 24 25" fill="none" xmlns="http://www.w3.org/2000/svg">
<path fill-rule="evenodd" clip-rule="evenodd" d="M20.0182 9.50202L19.0682 9.36202C18.9182 9.33202 18.7582 9.38202 18.6482 9.50202L7.18819 20.882C7.00819 21.062 6.98819 21.332 7.12819 21.532C7.26819 21.732 7.52819 21.802 7.74819 21.692L11.6582 19.822C11.8782 19.712 12.1282 19.712 12.3482 19.822L15.9882 21.712C16.2382 21.842 16.5082 21.912 16.7982 21.912C16.8882 21.912 16.9882 21.912 17.0782 21.892C18.0182 21.742 18.6582 20.852 18.5082 19.902L17.8082 15.892C17.7682 15.662 17.8482 15.432 18.0182 15.262L20.9782 12.422C21.2482 12.152 21.4382 11.802 21.4882 11.422C21.6082 10.482 20.9482 9.62202 20.0182 9.50202Z" fill="black"/>
<path fill-rule="evenodd" clip-rule="evenodd" d="M19.7981 4.89159C19.4981 4.60159 19.0281 4.60159 18.7381 4.89159L15.2781 8.34159L13.5481 4.86159C13.3781 4.53159 13.1081 4.26159 12.8081 4.12159C12.3881 3.90159 11.9181 3.86159 11.4781 4.00159C11.0381 4.14159 10.6681 4.44159 10.4581 4.87159L8.6181 8.52159C8.5181 8.73159 8.3081 8.88159 8.0681 8.90159L3.9781 9.50159C3.6081 9.55159 3.2481 9.73159 2.9781 10.0016C2.6581 10.3316 2.4881 10.7616 2.4981 11.2216C2.5081 11.6816 2.6981 12.1116 3.0181 12.4216L5.9881 15.2816C6.1581 15.4316 6.2281 15.6716 6.1881 15.8916L5.8681 17.7516L3.4481 20.1716C3.1481 20.4616 3.1481 20.9416 3.4481 21.2316C3.5881 21.3816 3.7881 21.4516 3.9781 21.4516C4.1681 21.4516 4.3581 21.3816 4.5081 21.2316L19.7981 5.95159C20.0881 5.66159 20.0881 5.18159 19.7981 4.89159Z" fill="black"/>
</svg>