<?xml version="1.0" encoding="UTF-8"?>
<svg width="24px"  height="24px"  viewBox="0 0 24 24" version="1.1" xmlns="http://www.w3.org/2000/svg" xmlns:xlink="http://www.w3.org/1999/xlink">
    <title>Iconly/Bulk/Calling</title>
    <g id="Iconly/Bulk/Calling" stroke="none" stroke-width="1" fill="none" fill-rule="evenodd">
        <g id="Group" transform="translate(13.000000, 2.000000)" fill="#000000"  fill-rule="nonzero" opacity="0.400000006">
            <g id="Calling" transform="translate(0.000217, 0.000000)">
                <path d="M1.41809107,3.48993846 C0.942050064,3.40199885 0.504849228,3.70579022 0.414222175,4.17047109 C0.323595122,4.63515197 0.628341036,5.0888404 1.09143532,5.17977794 C2.48569766,5.45159127 3.56226737,6.53085008 3.83514443,7.92988928 L3.83514443,7.93088859 C3.91282476,8.33361201 4.26736576,8.62641093 4.67568545,8.62641093 C4.73046004,8.62641093 4.78523463,8.62141436 4.84100513,8.61142123 C5.30409941,8.51848505 5.60884532,8.06579594 5.51821827,7.60011575 C5.11089448,5.51055078 3.50251327,3.89665914 1.41809107,3.48993846" id="Fill-1"></path>
                <path d="M1.35584721,0.00792976387 C1.13276523,-0.0240482749 0.908687357,0.04190643 0.730420957,0.183808977 C0.547175049,0.327710151 0.432646356,0.535567403 0.407748814,0.768407498 C0.354966025,1.23908426 0.694568497,1.6647919 1.16463409,1.71775552 C4.40629405,2.07950709 6.92592529,4.60477283 7.2904253,7.85653965 C7.33922448,8.29224043 7.7047204,8.62101464 8.14092533,8.62101464 C8.17379009,8.62101464 8.20565894,8.61901601 8.2385237,8.61501876 C8.46658518,8.59003591 8.66974912,8.47711346 8.81315896,8.297237 C8.9555729,8.11736053 9.02030651,7.89351426 8.99441307,7.66467142 C8.54028191,3.60745775 5.40020392,0.458620247 1.35584721,0.00792976387" id="Fill-3"></path>
            </g>
        </g>
        <g id="Call" transform="translate(2.000000, 3.000000)" fill="#000000" >
            <path d="M9.03174073,9.97238745 C13.0208243,13.9603606 13.9257751,9.34671782 16.4656491,11.8848116 C18.9142765,14.3327574 20.32162,14.8232052 17.2192381,17.9247236 C16.8306352,18.2370218 14.3616115,21.9942591 5.68460336,13.3196663 C-2.99347825,4.64400029 0.761584769,2.17244427 1.07396994,1.78394958 C4.18386634,-1.32615434 4.6658627,0.0893829491 7.11449014,2.53732879 C9.6543641,5.07649576 5.04265719,5.9844143 9.03174073,9.97238745 Z" id="Stroke-1"></path>
        </g>
    </g>
</svg>