<?xml version="1.0" encoding="UTF-8"?>
<svg width="24px"  height="24px"  viewBox="0 0 24 24" version="1.1" xmlns="http://www.w3.org/2000/svg" xmlns:xlink="http://www.w3.org/1999/xlink">
    <title>Iconly/Bulk/Image</title>
    <g id="Iconly/Bulk/Image" stroke="none" stroke-width="1" fill="none" fill-rule="evenodd">
        <g id="Image" transform="translate(2.000000, 2.000000)" fill="#000000"  fill-rule="nonzero">
            <path d="M14.3328156,20 L5.66618229,20 C2.27689532,20 0,17.6228892 0,14.0842812 L0,5.91672095 C0,2.37811294 2.27689532,0 5.66618229,0 L14.3338177,0 C17.7231047,0 20,2.37811294 20,5.91672095 L20,14.0842812 C20,17.6228892 17.7231047,20 14.3328156,20" id="Fill-1" opacity="0.400000006"></path>
            <path d="M13.4284,11.0896 C13.6504,10.7986 14.4744,9.8886 15.5394,10.5366 C16.2184,10.9446 16.7894,11.4966 17.4004,12.0876 C17.6334,12.3136 17.8004,12.5716 17.9104,12.8466 C18.2434,13.6786 18.0704,14.6786 17.7144,15.5026 C17.2924,16.4836 16.4844,17.2246 15.4664,17.5486 C15.0144,17.6936 14.5404,17.7556 14.0674,17.7556 L14.0674,17.7556 L5.6864,17.7556 C4.8524,17.7556 4.1144,17.5616 3.5094,17.1976 C3.1304,16.9696 3.0634,16.4446 3.3444,16.1026 C3.8144,15.5326 4.2784,14.9606 4.7464,14.3836 C5.6384,13.2796 6.2394,12.9596 6.9074,13.2406 C7.1784,13.3566 7.4504,13.5316 7.7304,13.7156 C8.4764,14.2096 9.5134,14.8876 10.8794,14.1516 C11.8194,13.6376 12.3624,12.7556 12.8364,11.9916 C13.0304,11.6806 13.2144,11.3706 13.4284,11.0896 Z M6.76,4.189 C8.13,4.189 9.245,5.305 9.245,6.675 C9.245,8.045 8.13,9.16 6.76,9.16 C5.389,9.16 4.275,8.045 4.275,6.675 C4.275,5.305 5.389,4.189 6.76,4.189 Z" id="Combined-Shape"></path>
        </g>
    </g>
</svg>