<?xml version="1.0" encoding="UTF-8"?>
<svg width="24px"  height="24px"  viewBox="0 0 24 24" version="1.1" xmlns="http://www.w3.org/2000/svg" xmlns:xlink="http://www.w3.org/1999/xlink">
    <title>Iconly/Bulk/Shield Fail</title>
    <g id="Iconly/Bulk/Shield-Fail" stroke="none" stroke-width="1" fill="none" fill-rule="evenodd">
        <g id="Shield-Fail" transform="translate(3.500038, 2.000000)" fill="#000000"  fill-rule="nonzero">
            <path d="M8.5859952,20 C8.46215928,20 8.33933016,19.9715629 8.22757579,19.9137082 L4.62626619,18.0496082 C3.60336136,17.5200901 2.80396527,16.9258531 2.18075849,16.2335571 C0.813529407,14.7195275 0.0544051575,12.7759998 0.0413168084,10.7599085 L7.10542736e-15,4.12426184 C-0.0049958116,3.35842173 0.488334271,2.67102874 1.2273226,2.41215321 L7.8399593,0.106788142 C8.23361657,-0.0334361044 8.67157287,-0.0353972827 9.07026412,0.0999240185 L15.7080707,2.32684195 C16.4510862,2.574931 16.9534775,3.25742105 16.9575047,4.02228057 L16.9997901,10.6628302 C17.0128784,12.6759797 16.2799309,14.6273521 14.9348513,16.1580518 C14.3166785,16.8601536 13.5253368,17.4632159 12.5135067,18.0025399 L8.94441461,19.9088052 C8.83366704,19.9686211 8.70983112,19.9990194 8.5859952,20" id="Fill-1" opacity="0.400000006"></path>
            <path d="M9.56772206,9.72489671 L10.92589,8.40208196 C11.2208812,8.11476934 11.2208812,7.64997009 10.92589,7.36265747 C10.6308987,7.07534486 10.1526706,7.07534486 9.85767934,7.36265747 L8.49951142,8.68449163 L7.14235029,7.36265747 C6.84735904,7.07534486 6.3691309,7.07534486 6.07413964,7.36265747 C5.77914839,7.64997009 5.77914839,8.11476934 6.07413964,8.40208196 L7.43230756,9.72489671 L6.07413964,11.0477115 C5.77914839,11.3350241 5.77914839,11.7998233 6.07413964,12.0871359 C6.22213867,12.2312825 6.41544352,12.3028656 6.60874836,12.3028656 C6.80104642,12.3028656 6.99435127,12.2312825 7.14235029,12.0871359 L8.49951142,10.7653018 L9.85767934,12.0871359 C10.0056784,12.2312825 10.1979764,12.3028656 10.3912813,12.3028656 C10.5845861,12.3028656 10.777891,12.2312825 10.92589,12.0871359 C11.2208812,11.7998233 11.2208812,11.3350241 10.92589,11.0477115 L9.56772206,9.72489671 Z" id="Fill-4"></path>
        </g>
    </g>
</svg>