<?xml version="1.0" encoding="UTF-8"?>
<svg width="24px"  height="24px"  viewBox="0 0 24 24" version="1.1" xmlns="http://www.w3.org/2000/svg" xmlns:xlink="http://www.w3.org/1999/xlink">
    <title>Iconly/Bold/Upload</title>
    <g id="Iconly/Bold/Upload" stroke="none" stroke-width="1" fill="none" fill-rule="evenodd">
        <g id="Upload" transform="translate(2.000000, 2.000000)" fill="#000000"  fill-rule="nonzero">
            <path d="M1.77635684e-15,11.2874674 C1.77635684e-15,8.87583953 1.8779102,6.89627143 4.23116222,6.78512193 L4.44,6.7802 L9.23,6.7802 L9.23,12.8848512 C9.23,13.3223512 9.57,13.6682814 10,13.6682814 C10.385,13.6682814 10.7111806,13.3776039 10.7628704,12.9921713 L10.77,12.8848512 L10.77,6.7802 L15.55,6.7802 C17.93,6.7802 19.8853469,8.69086445 19.9951382,11.0944886 L20,11.3078163 L20,16.2627581 C20,18.6842698 18.1220898,20.6641203 15.7688378,20.7752778 L15.56,20.7802 L4.45,20.7802 C2.06028571,20.7802 0.114097959,18.8599342 0.00483801749,16.4650885 L1.77635684e-15,16.2525837 L1.77635684e-15,11.2874674 Z M6.5502,4.24 C6.26838182,3.96727273 6.24276198,3.53752066 6.46582735,3.23624343 L6.5402,3.15 L9.4502,0.23 C9.6002,0.08 9.7902,-1.42108547e-14 10.0002,-1.42108547e-14 C10.1602,-1.42108547e-14 10.3202,0.0512 10.44948,0.14848 L10.5402,0.23 L13.4502,3.15 C13.6002,3.3 13.6802,3.5 13.6802,3.69 C13.6802,3.89 13.6002,4.09 13.4502,4.24 C13.1774727,4.51272727 12.7477207,4.53752066 12.4464434,4.31438017 L12.3602,4.24 L10.7702,2.64 L10.7702,6.78 L9.2302,6.78 L9.2302,2.64 L7.6402,4.24 C7.3402,4.54 6.8502,4.54 6.5502,4.24 Z"></path>
        </g>
    </g>
</svg>