<?xml version="1.0" encoding="UTF-8"?>
<svg width="24px"  height="24px"  viewBox="0 0 24 24" version="1.1" xmlns="http://www.w3.org/2000/svg" xmlns:xlink="http://www.w3.org/1999/xlink">
    <title>Iconly/Bold/Edit</title>
    <g id="Iconly/Bold/Edit" stroke="none" stroke-width="1" fill="none" fill-rule="evenodd">
        <g id="Edit" transform="translate(3.000000, 3.000000)" fill="#000000"  fill-rule="nonzero">
            <path d="M16.989778,15.9532516 C17.5468857,15.9532516 18,16.412265 18,16.9766258 C18,17.5420615 17.5468857,18 16.989778,18 L16.989778,18 L11.2796888,18 C10.7225811,18 10.2694668,17.5420615 10.2694668,16.9766258 C10.2694668,16.412265 10.7225811,15.9532516 11.2796888,15.9532516 L11.2796888,15.9532516 Z M13.0298561,0.699063657 L14.5048652,1.87078412 C15.109725,2.34377219 15.5129649,2.96725648 15.6509154,3.62298994 C15.810089,4.34429676 15.6403038,5.0527039 15.1627829,5.66543845 L6.37639783,17.027902 C5.97315794,17.543889 5.37890967,17.8341317 4.74221511,17.8448814 L1.24039498,17.8878803 C1.04938661,17.8878803 0.890212963,17.7588836 0.847766658,17.5761382 L0.051898447,14.1254752 C-0.086052043,13.4912412 0.051898447,12.8355077 0.455138341,12.3302704 L6.68413354,4.26797368 C6.7902493,4.13897694 6.98125767,4.11855245 7.10859659,4.21422504 L9.7296559,6.29967247 C9.89944111,6.43941894 10.1328958,6.51466705 10.376962,6.48241786 C10.8969293,6.41791948 11.2471113,5.94493141 11.1940534,5.43969415 C11.1622187,5.18170065 11.0348798,4.96670607 10.8650945,4.80546013 C10.8120367,4.76246122 8.31831627,2.76301162 8.31831627,2.76301162 C8.15914263,2.63401488 8.1273079,2.39752084 8.25464681,2.23734988 L9.24152339,0.957057153 C10.1541189,-0.214663308 11.7458554,-0.322160598 13.0298561,0.699063657 Z"></path>
        </g>
    </g>
</svg>