<svg width="24px"  height="24px"  viewBox="0 0 24 24" fill="none" xmlns="http://www.w3.org/2000/svg">
<path fill-rule="evenodd" clip-rule="evenodd" d="M15.6978 9.10172C15.3987 9.09772 15.0707 9.09672 14.6957 9.09672H9.30375C8.92775 9.09672 8.59975 9.09772 8.30075 9.10172V7.48972C8.33475 5.47772 9.93875 3.88272 11.9527 3.85672H11.9987C14.0177 3.85672 15.6727 5.48472 15.6978 7.49772V9.10172ZM12.7498 16.4367C12.7498 16.8507 12.4137 17.1867 11.9998 17.1867C11.5858 17.1867 11.2498 16.8507 11.2498 16.4367V14.2667C11.2498 13.8527 11.5858 13.5167 11.9998 13.5167C12.4137 13.5167 12.7498 13.8527 12.7498 14.2667V16.4367ZM19.5597 11.0787C19.2118 10.3607 18.6288 9.78072 17.9228 9.44772C17.7008 9.33972 17.4637 9.26772 17.1978 9.21572V7.48872C17.1617 4.62372 14.7968 2.29372 11.9338 2.35672C9.10375 2.39272 6.84875 4.63672 6.80075 7.47672V9.21572C6.53675 9.26672 6.30075 9.33772 6.08075 9.44472C5.37075 9.77972 4.78775 10.3597 4.43675 11.0817C4.09375 11.8047 4.09375 12.6407 4.09375 14.3067V16.4367C4.09375 18.1117 4.09375 18.9527 4.43775 19.6617C4.78075 20.3837 5.34775 20.9517 6.08175 21.3087C6.79875 21.6467 7.63575 21.6467 9.30375 21.6467H14.6958C16.3638 21.6467 17.1998 21.6467 17.9228 21.3057C18.6418 20.9557 19.2227 20.3717 19.5588 19.6657C19.9058 18.9527 19.9058 18.1117 19.9058 16.4367V14.3067C19.9058 12.6407 19.9057 11.8047 19.5597 11.0787Z" fill="#000000" />
</svg>