<?xml version="1.0" encoding="UTF-8"?>
<svg width="24px"  height="24px"  viewBox="0 0 24 24" version="1.1" xmlns="http://www.w3.org/2000/svg" xmlns:xlink="http://www.w3.org/1999/xlink">
    <title>Iconly/Bold/Ticket Star</title>
    <g id="Iconly/Bold/Ticket-Star" stroke="none" stroke-width="1" fill="none" fill-rule="evenodd">
        <g id="Ticket-Star" transform="translate(2.000000, 3.000000)" fill="#000000"  fill-rule="nonzero">
            <path d="M15.856,-3.01980663e-14 C18.14,-3.01980663e-14 19.999,1.84201255 19.999,4.10514147 L19.999,4.10514147 L20,6.78245073 C20,6.97864142 19.921,7.16888693 19.781,7.30760762 C19.64,7.44731917 19.45,7.52559727 19.25,7.52559727 C18.429,7.52559727 17.761,8.18749312 17.761,9.00099086 C17.761,9.81448861 18.429,10.4763845 19.25,10.4763845 C19.664,10.4763845 20,10.8093141 20,11.219531 L20,11.219531 L20,13.8958494 C20,16.1589783 18.142,18 15.858,18 L15.858,18 L4.143,18 C1.859,18 0,16.1589783 0,13.8958494 L0,13.8958494 L0,11.219531 C0,10.8093141 0.336,10.4763845 0.75,10.4763845 C1.572,10.4763845 2.24,9.81448861 2.24,9.00099086 C2.24,8.20830122 1.599,7.61180227 0.75,7.61180227 C0.551,7.61180227 0.361,7.53352417 0.22,7.39381262 C0.079,7.25410107 0,7.06484642 0,6.86865573 L0,6.86865573 L0.002,4.10514147 C0.002,1.84201255 1.86,-3.01980663e-14 4.144,-3.01980663e-14 L4.144,-3.01980663e-14 Z M10.002,5.15347352 C9.718,5.15347352 9.464,5.31002973 9.337,5.56170869 L9.337,5.56170869 L8.608,7.02521193 L6.982,7.26004624 C6.701,7.29968072 6.471,7.48992624 6.382,7.75745899 C6.294,8.02499174 6.365,8.31432346 6.569,8.51051415 L6.569,8.51051415 L7.748,9.64802378 L7.47,11.2561929 C7.422,11.5336343 7.535,11.8090939 7.765,11.9745679 C7.895,12.066718 8.046,12.1142794 8.199,12.1142794 C8.316,12.1142794 8.434,12.0855444 8.542,12.0290653 L8.542,12.0290653 L10,11.270065 L11.455,12.0270836 C11.707,12.1608499 12.006,12.1400418 12.235,11.973577 C12.466,11.8090939 12.579,11.5336343 12.531,11.2561929 L12.531,11.2561929 L12.252,9.64802378 L13.431,8.51051415 C13.636,8.31432346 13.707,8.02499174 13.618,7.75745899 C13.53,7.48992624 13.3,7.29968072 13.022,7.2610371 L13.022,7.2610371 L11.393,7.02521193 L10.664,5.56269955 C10.539,5.31102059 10.285,5.15446438 10.002,5.15347352 L10.002,5.15347352 Z"></path>
        </g>
    </g>
</svg>