<?xml version="1.0" encoding="UTF-8"?>
<svg width="24px"  height="24px"  viewBox="0 0 24 24" version="1.1" xmlns="http://www.w3.org/2000/svg" xmlns:xlink="http://www.w3.org/1999/xlink">
    <title>Iconly/Bulk/Password</title>
    <g id="Iconly/Bulk/Password" stroke="none" stroke-width="1" fill="none" fill-rule="evenodd">
        <g id="Password" transform="translate(2.000400, 1.999800)" fill="#000000"  fill-rule="nonzero">
            <path d="M14.334,0 L5.665,0 C2.276,0 0,2.378 0,5.917 L0,14.084 C0,17.622 2.276,20 5.665,20 L14.333,20 C17.722,20 20,17.622 20,14.084 L20,5.917 C20,2.378 17.723,0 14.334,0" id="Fill-1" opacity="0.400000006"></path>
            <path d="M6.8438,7.3987 C8.0138,7.3987 8.9938,8.1787 9.3138,9.2487 L9.3138,9.2487 L15.0138,9.2487 C15.4238,9.2487 15.7638,9.5887 15.7638,9.9987 L15.7638,9.9987 L15.7638,11.8487 C15.7638,12.2687 15.4238,12.5987 15.0138,12.5987 C14.5938,12.5987 14.2638,12.2687 14.2638,11.8487 L14.2638,11.8487 L14.2638,10.7487 L12.9338,10.7487 L12.9338,11.8487 C12.9338,12.2687 12.5938,12.5987 12.1838,12.5987 C11.7638,12.5987 11.4338,12.2687 11.4338,11.8487 L11.4338,11.8487 L11.4338,10.7487 L9.3138,10.7487 C8.9938,11.8187 8.0138,12.5987 6.8438,12.5987 C5.4038,12.5987 4.2338,11.4387 4.2338,9.9987 C4.2338,8.5687 5.4038,7.3987 6.8438,7.3987 Z M6.8438,8.8987 C6.2338,8.8987 5.7338,9.3887 5.7338,9.9987 C5.7338,10.6087 6.2338,11.0987 6.8438,11.0987 C7.4438,11.0987 7.9438,10.6087 7.9438,9.9987 C7.9438,9.3887 7.4438,8.8987 6.8438,8.8987 Z" id="Combined-Shape"></path>
        </g>
    </g>
</svg>