<svg height="24" viewBox="0 0 24 24" width="24" xmlns="http://www.w3.org/2000/svg"><g style="stroke:#000;stroke-width:1.5;fill:none;fill-rule:evenodd;stroke-linecap:round;stroke-linejoin:round" transform="translate(1 3.5)"><path d="m16.8877 7.3967c1.395-.196 2.469-1.392 2.472-2.841 0-1.428-1.041-2.612-2.406-2.836"/><path d="m18.7285 10.7503c1.351.202 2.294.675 2.294 1.65 0 .671-.444 1.107-1.162 1.381"/><path d="m10.8867 11.1638c-3.214 0-5.959.487-5.959 2.432 0 1.944 2.728 2.445 5.959 2.445 3.214 0 5.958-.482 5.958-2.428s-2.727-2.449-5.958-2.449z"/><path d="m10.8867 8.3879c2.109 0 3.819-1.709 3.819-3.819 0-2.109-1.71-3.819-3.819-3.819s-3.81902817 1.71-3.81902817 3.819c-.00797183 2.102 1.68902817 3.812 3.79102817 3.819z"/><path d="m4.8848 7.3967c-1.396-.196-2.469-1.392-2.472-2.841 0-1.428 1.041-2.612 2.406-2.836"/><path d="m3.0439 10.7503c-1.351.202-2.294.675-2.294 1.65 0 .671.444 1.107 1.162 1.381"/></g></svg>