<?xml version="1.0" encoding="UTF-8"?>
<svg width="24px"  height="24px"  viewBox="0 0 24 24" version="1.1" xmlns="http://www.w3.org/2000/svg" xmlns:xlink="http://www.w3.org/1999/xlink">
    <title>Iconly/Bulk/Call Missed</title>
    <g id="Iconly/Bulk/Call-Missed" stroke="none" stroke-width="1" fill="none" fill-rule="evenodd">
        <g id="Call-Missed" transform="translate(2.000217, 2.000000)" fill="#000000" >
            <path d="M17.3370406,3.91772424 L19.7405684,1.50518023 C19.908139,1.33698103 20,1.11406642 20,0.877979583 C20,0.641892748 19.908139,0.418978139 19.7405684,0.250778935 C19.4064366,-0.0835929782 18.8259963,-0.0835929782 18.4918645,0.250778935 L16.0883367,2.6643362 L13.6837995,0.250778935 C13.3496677,-0.0835929782 12.7692274,-0.0835929782 12.4350956,0.250778935 C12.2685345,0.418978139 12.1766735,0.641892748 12.1766735,0.877979583 C12.1766735,1.11406642 12.2685345,1.33698103 12.4350956,1.50518023 L14.8386234,3.91772424 L12.4350956,6.33026826 C12.2685345,6.49846746 12.1766735,6.72138207 12.1766735,6.95746891 C12.1766735,7.19355574 12.2685345,7.41647035 12.4350956,7.58466955 C12.7692274,7.91904147 13.3496677,7.91904147 13.6837995,7.58466955 L16.0883367,5.17111229 L18.4918645,7.58466955 C18.6594351,7.75185551 18.8805072,7.8440611 19.1167212,7.8440611 C19.3529352,7.8440611 19.5740073,7.75185551 19.7405684,7.58466955 C19.908139,7.41647035 20,7.19355574 20,6.95746891 C20,6.72138207 19.908139,6.49846746 19.7405684,6.33026826 L17.3370406,3.91772424 Z" id="Fill-4" fill-rule="nonzero" opacity="0.400000006"></path>
            <path d="M9.03152401,10.9723874 C13.0206075,14.9603606 13.9255584,10.3467178 16.4654324,12.8848116 C18.9140598,15.3327574 20.3214033,15.8232052 17.2190213,18.9247236 C16.8304185,19.2370218 14.3613948,22.9942591 5.68438665,14.3196663 C-2.99369497,5.64400029 0.761368056,3.17244427 1.07375323,2.78394958 C4.18364962,-0.326154344 4.66564599,1.08938295 7.11427342,3.53732879 C9.65414738,6.07649576 5.04244048,6.9844143 9.03152401,10.9723874 Z" id="Stroke-1"></path>
        </g>
    </g>
</svg>