<?xml version="1.0" encoding="UTF-8"?>
<svg width="24px"  height="24px"  viewBox="0 0 24 24" version="1.1" xmlns="http://www.w3.org/2000/svg" xmlns:xlink="http://www.w3.org/1999/xlink">
    <title>Iconly/Bold/Password</title>
    <g id="Iconly/Bold/Password" stroke="none" stroke-width="1" fill="none" fill-rule="evenodd">
        <g id="Password" transform="translate(1.999700, 1.999200)" fill="#000000"  fill-rule="nonzero">
            <path d="M14.335,0 C17.723,0 20,2.378 20,5.917 L20,5.917 L20,14.084 C20,17.623 17.723,20 14.334,20 L14.334,20 L5.666,20 C2.277,20 0,17.623 0,14.084 L0,14.084 L0,5.917 C0,2.378 2.277,0 5.666,0 L5.666,0 Z M6.841,7.399 C5.407,7.399 4.24,8.566 4.24,10 C4.24,11.435 5.407,12.602 6.841,12.602 C8.013,12.602 8.995,11.818 9.319,10.75 L9.319,10.75 L11.431,10.75 L11.431,11.852 C11.431,12.266 11.767,12.602 12.181,12.602 C12.595,12.602 12.931,12.266 12.931,11.852 L12.931,11.852 L12.931,10.75 L14.261,10.75 L14.261,11.852 C14.261,12.266 14.597,12.602 15.011,12.602 C15.425,12.602 15.761,12.266 15.761,11.852 L15.761,11.852 L15.761,10 C15.761,9.586 15.425,9.25 15.011,9.25 L15.011,9.25 L9.319,9.25 C8.995,8.183 8.013,7.399 6.841,7.399 Z M6.8411,8.8989 C7.4481,8.8989 7.9431,9.3929 7.9431,10.0009 C7.9431,10.6079 7.4481,11.1019 6.8411,11.1019 C6.2341,11.1019 5.7391,10.6079 5.7391,10.0009 C5.7391,9.3929 6.2341,8.8989 6.8411,8.8989 Z"></path>
        </g>
    </g>
</svg>