<?xml version="1.0" encoding="UTF-8"?>
<svg width="24px"  height="24px"  viewBox="0 0 24 24" version="1.1" xmlns="http://www.w3.org/2000/svg" xmlns:xlink="http://www.w3.org/1999/xlink">
    <title>Iconly/Bulk/Work</title>
    <g id="Iconly/Bulk/Work" stroke="none" stroke-width="1" fill="none" fill-rule="evenodd">
        <g id="Work" transform="translate(2.000200, 2.000400)" fill="#000000"  fill-rule="nonzero">
            <path d="M3.55271368e-15,9.0781 C0.05,11.4161 0.19,15.4151 0.21,15.8561 C0.281,16.7991 0.642,17.7521 1.204,18.4241 C1.986,19.3671 2.949,19.7881 4.292,19.7881 C6.148,19.7981 8.194,19.7981 10.181,19.7981 C12.176,19.7981 14.112,19.7981 15.747,19.7881 C17.071,19.7881 18.064,19.3561 18.836,18.4241 C19.398,17.7521 19.759,16.7891 19.81,15.8561 C19.83,15.4851 19.93,11.1441 19.99,9.0781 L3.55271368e-15,9.0781 Z" id="Fill-1" opacity="0.400000006"></path>
            <path d="M9.2452,13.3838 L9.2452,14.6778 C9.2452,15.0918 9.5812,15.4278 9.9952,15.4278 C10.4092,15.4278 10.7452,15.0918 10.7452,14.6778 L10.7452,13.3838 C10.7452,12.9698 10.4092,12.6338 9.9952,12.6338 C9.5812,12.6338 9.2452,12.9698 9.2452,13.3838" id="Fill-4"></path>
            <path d="M11.2861,8.8817842e-15 C12.7871,8.8817842e-15 14.0181,1.129 14.2061,2.581 L14.2061,2.581 L16.1831,2.581 C18.2821,2.581 19.9901,4.289 19.9901,6.389 L19.9901,6.389 L19.9901,9.855 C19.9901,10.107 19.8631,10.342 19.6541,10.481 C17.5921,11.846 15.1441,12.755 12.5761,13.11 C12.5411,13.115 12.5071,13.117 12.4731,13.117 C12.1341,13.117 11.8311,12.888 11.7461,12.552 C11.5441,11.756 10.8211,11.199 9.9901,11.199 C9.1481,11.199 8.4331,11.744 8.2111,12.556 C8.1111,12.919 7.7621,13.151 7.3841,13.101 C4.8331,12.745 2.3951,11.84 0.3371,10.481 C0.1261,10.343 0.0001,10.107 0.0001,9.855 L0.0001,9.855 L0.0001,6.389 C0.0001,4.289 1.7121,2.581 3.8171,2.581 L3.8171,2.581 L5.7841,2.581 C5.9721,1.129 7.2021,8.8817842e-15 8.7041,8.8817842e-15 L8.7041,8.8817842e-15 Z M11.2861,1.5 L8.7041,1.5 C8.0311,1.5 7.4691,1.96 7.3011,2.581 L7.3011,2.581 L12.6881,2.581 C12.5201,1.96 11.9581,1.5 11.2861,1.5 L11.2861,1.5 Z" id="Fill-6"></path>
        </g>
    </g>
</svg>