<?xml version="1.0" encoding="UTF-8"?>
<svg width="24px"  height="24px"  viewBox="0 0 24 24" version="1.1" xmlns="http://www.w3.org/2000/svg" xmlns:xlink="http://www.w3.org/1999/xlink">
    <title>Iconly/Bold/Arrow - Down 3</title>
    <g id="Iconly/Bold/Arrow---Down-3" stroke="none" stroke-width="1" fill="none" fill-rule="evenodd">
        <g id="Arrow---Down-3" transform="translate(6.500000, 3.000000)" fill="#000000"  fill-rule="nonzero">
            <path d="M10.910103,9.14147403 C10.7838647,8.90747892 10.5438206,8.76159913 10.2827368,8.76159913 L6.21728876,8.76159913 L6.21728876,0.734294262 C6.21728876,0.328963829 5.89595483,0 5.50002553,0 C5.10409622,0 4.7827623,0.328963829 4.7827623,0.734294262 L4.7827623,8.76159913 L0.717314292,8.76159913 C0.455274124,8.76159913 0.215230029,8.90747892 0.0899480509,9.14147403 C-0.037246629,9.37546913 -0.0286394702,9.66135436 0.110031421,9.887517 L4.89274266,17.6573293 C5.02471909,17.8707642 5.25328698,18 5.50002553,18 C5.74676408,18 5.97533197,17.8707642 6.1073084,17.6573293 L10.8900196,9.887517 C10.9627023,9.7680718 11,9.63198259 11,9.49589339 C11,9.37449007 10.9693968,9.2521077 10.910103,9.14147403"></path>
        </g>
    </g>
</svg>