<?xml version="1.0" encoding="UTF-8"?>
<svg width="24px"  height="24px"  viewBox="0 0 24 24" version="1.1" xmlns="http://www.w3.org/2000/svg" xmlns:xlink="http://www.w3.org/1999/xlink">
    <title>Iconly/Two-tone/Ticket Star</title>
    <g id="Iconly/Two-tone/Ticket-Star" stroke="#000000"  stroke-width="2"  fill="none" fill-rule="evenodd" stroke-linecap="round" stroke-linejoin="round">
        <g id="Ticket-Star" transform="translate(2.000000, 3.000000)" stroke="#000000"  stroke-width="2" >
            <path d="M15.8573,17.4168 C17.7323,17.4168 19.2503,15.8978 19.2503,14.0238 L19.2503,11.3238 C18.0103,11.3238 17.0103,10.3238 17.0103,9.0848 C17.0103,7.8448 18.0103,6.8458 19.2503,6.8458 L19.2483,4.1428 C19.2483,2.2688 17.7303,0.7498 15.8563,0.7498 L4.1443,0.7498 C2.2703,0.7498 0.7513,2.2688 0.7513,4.1428 L0.7503,6.9328 C1.9893,6.9328 2.9893,7.8448 2.9893,9.0848 C2.9893,10.3238 1.9893,11.3238 0.7503,11.3238 L0.7503,14.0238 C0.7503,15.8978 2.2683,17.4168 4.1423,17.4168 L15.8573,17.4168 Z" id="Stroke-1"></path>
            <path d="M9.9998,10.8543 L11.7398,11.7693 C11.9028,11.8543 12.0938,11.7163 12.0628,11.5353 L11.7298,9.5963 L13.1388,8.2253 C13.2708,8.0963 13.1978,7.8733 13.0158,7.8463 L11.0698,7.5633 L10.1988,5.7993 C10.1178,5.6343 9.8828,5.6343 9.8008,5.7993 L8.9298,7.5633 L6.9848,7.8463 C6.8028,7.8733 6.7298,8.0963 6.8618,8.2253 L8.2698,9.5963 L7.9368,11.5353 C7.9058,11.7163 8.0968,11.8543 8.2598,11.7693 L9.9998,10.8543 L9.9998,10.8543 Z" id="Stroke-3" opacity="0.400000006"></path>
        </g>
    </g>
</svg>