<?xml version="1.0" encoding="UTF-8"?>
<svg width="24px"  height="24px"  viewBox="0 0 24 24" version="1.1" xmlns="http://www.w3.org/2000/svg" xmlns:xlink="http://www.w3.org/1999/xlink">
    <title>Iconly/Bulk/Volume Off</title>
    <g id="Iconly/Bulk/Volume-Off" stroke="none" stroke-width="1" fill="none" fill-rule="evenodd">
        <g id="Volume-Off" transform="translate(3.000000, 3.000000)" fill="#000000"  fill-rule="nonzero">
            <path d="M12.4160713,10.5198084 L12.48745,10.5272118 C12.8770253,10.6267111 12.9521879,11.1845422 12.9468948,11.6227625 C12.9288981,12.8950833 12.8854943,13.7799919 12.8177421,14.327238 L12.8177421,14.327238 L12.7701038,14.7781603 C12.7245828,15.2343752 12.6780032,15.7064675 12.5435573,16.210315 C12.1899754,17.3937215 11.2446202,18.1621948 10.171171,18.1621948 C10.1351776,18.1621948 10.1002429,18.1621948 10.0642495,18.1611363 C9.47141761,18.1611363 8.82671289,17.8054792 8.46148608,17.4953378 L8.46148608,17.4953378 L7.16043173,16.4887013 C6.66711088,16.1214008 6.81214298,15.5339315 7.08950363,15.194152 C7.36686428,14.855431 11.7368825,10.8733423 11.8808559,10.7315029 C12.0248294,10.590722 12.3434766,10.4912227 12.48745,10.5272118 Z M10.1501043,0.418189432 C11.2087327,0.418189432 12.1826709,1.16020012 12.5320183,2.34572361 C12.66964,2.84216158 12.7225714,3.34071655 12.7649165,3.81598445 L12.7649165,3.81598445 L12.8496068,4.49448495 C12.8707794,4.65220191 12.891952,4.78980732 12.9025382,4.98139638 L12.9025382,4.98139638 L3.29019202,14.5926047 L3.06788005,14.5926047 C1.65990423,14.5926047 0.633034644,13.5976118 0.442481525,12.0521972 C0.230755838,10.5067827 0.273100975,7.86052487 0.442481525,6.45271572 C0.643620929,4.99198141 1.72342194,3.98640345 3.06788005,3.98640345 L3.06788005,3.98640345 L4.89930725,3.98640345 L8.3927811,1.12738652 C8.81623247,0.768553964 9.56785866,0.429832966 10.1501043,0.418189432 Z" id="Combined-Shape" opacity="0.400000006"></path>
            <path d="M18.7275354,0.269787294 C18.3538395,-0.0911622697 17.7800629,-0.0890452635 17.4201292,0.270845797 L0.270348541,17.4185963 C-0.090643756,17.7795459 -0.090643756,18.3543131 0.273524427,18.7321987 C0.459843032,18.9047347 0.690624031,19 0.924580916,19 C1.16383094,19 1.40943274,18.8994422 1.57987192,18.7290232 L18.728594,1.58127266 C19.0906449,1.21926459 19.0906449,0.632853864 18.7275354,0.269787294" id="Fill-5"></path>
        </g>
    </g>
</svg>