<?xml version="1.0" encoding="UTF-8"?>
<svg width="24px"  height="24px"  viewBox="0 0 24 24" version="1.1" xmlns="http://www.w3.org/2000/svg" xmlns:xlink="http://www.w3.org/1999/xlink">
    <title>Iconly/Two-tone/Edit Square</title>
    <g id="Iconly/Two-tone/Edit-Square" stroke="#000000"  stroke-width="2"  fill="none" fill-rule="evenodd" stroke-linecap="round" stroke-linejoin="round">
        <g id="Edit-Square" transform="translate(2.000000, 2.000000)" stroke="#000000"  stroke-width="2" >
            <path d="M9.4923,0.789 L5.7533,0.789 C2.6783,0.789 0.7503,2.966 0.7503,6.048 L0.7503,14.362 C0.7503,17.444 2.6693,19.621 5.7533,19.621 L14.5773,19.621 C17.6623,19.621 19.5813,17.444 19.5813,14.362 L19.5813,10.334" id="Stroke-1" opacity="0.400000006"></path>
            <path d="M6.8278,8.9209 L14.3008,1.4479 C15.2318,0.5179 16.7408,0.5179 17.6718,1.4479 L18.8888,2.6649 C19.8198,3.5959 19.8198,5.1059 18.8888,6.0359 L11.3798,13.5449 C10.9728,13.9519 10.4208,14.1809 9.8448,14.1809 L6.0988,14.1809 L6.1928,10.4009 C6.2068,9.8449 6.4338,9.3149 6.8278,8.9209 Z" id="Stroke-3"></path>
            <line x1="13.1652" y1="2.6025" x2="17.7312" y2="7.1685" id="Stroke-5"></line>
        </g>
    </g>
</svg>