<?xml version="1.0" encoding="UTF-8"?>
<svg width="24px"  height="24px"  viewBox="0 0 24 24" version="1.1" xmlns="http://www.w3.org/2000/svg" xmlns:xlink="http://www.w3.org/1999/xlink">
    <title>Iconly/Light/Paper Plus</title>
    <g id="Iconly/Light/Paper-Plus" stroke="#000000"  stroke-width="1.5"  fill="none" fill-rule="evenodd" stroke-linecap="round" stroke-linejoin="round">
        <g id="Paper-Plus" transform="translate(3.500000, 2.000000)" stroke="#000000"  stroke-width="1.5" >
            <path d="M11.2366,0.761871154 L4.5846,0.761871154 C2.5046,0.7539 0.7996,2.4109 0.7506,4.4909 L0.7506,15.3399 C0.7156,17.3899 2.3486,19.0809 4.3996,19.1169 C4.4606,19.1169 4.5226,19.1169 4.5846,19.1149 L12.5726,19.1149 C14.6416,19.0939 16.3056,17.4089 16.3026041,15.3399 L16.3026041,6.0399 L11.2366,0.761871154 Z" id="Stroke-1"></path>
            <path d="M10.9743,0.7501 L10.9743,3.6591 C10.9743,5.0791 12.1233,6.2301 13.5433,6.2341 L16.2973,6.2341" id="Stroke-3"></path>
            <line x1="10.7937" y1="10.9142" x2="5.8937" y2="10.9142" id="Stroke-5"></line>
            <line x1="8.3445" y1="13.3639" x2="8.3445" y2="8.4639" id="Stroke-7"></line>
        </g>
    </g>
</svg>