<?xml version="1.0" encoding="UTF-8"?>
<svg width="24px"  height="24px"  viewBox="0 0 24 24" version="1.1" xmlns="http://www.w3.org/2000/svg" xmlns:xlink="http://www.w3.org/1999/xlink">
    <title>Iconly/Bold/Paper Upload</title>
    <g id="Iconly/Bold/Paper-Upload" stroke="none" stroke-width="1" fill="none" fill-rule="evenodd">
        <g id="Paper-Upload" transform="translate(3.500000, 2.000000)" fill="#000000"  fill-rule="nonzero">
            <path d="M9.75247525,0 C10,0 10.2079208,0.21 10.2079208,0.46 L10.2079208,0.46 L10.2079208,3.68 C10.2079208,5.51 11.6930693,7.01 13.5148515,7.02 C14.2574257,7.02 14.8514851,7.03 15.3069307,7.03 C15.6138614,7.03 16.1188119,7.02 16.5445545,7.02 C16.7920792,7.02 17,7.22 17,7.47 L17,7.47 L17,15.51 C17,17.99 15,20 12.5445545,20 L12.5445545,20 L4.67326733,20 C2.08910891,20 -2.13162821e-14,17.89 -2.13162821e-14,15.29 L-2.13162821e-14,15.29 L-2.13162821e-14,4.51 C-2.13162821e-14,2.03 1.99009901,0 4.46534653,0 L4.46534653,0 Z M8.13861386,6.74 C8.03960396,6.74 7.94059406,6.76 7.85148515,6.8 C7.76237624,6.84 7.68316832,6.89 7.61386139,6.96 L7.61386139,6.96 L4.78217822,9.84 C4.4950495,10.13 4.4950495,10.6 4.78217822,10.89 C5.06930693,11.18 5.53465347,11.18 5.82178218,10.89 L5.82178218,10.89 L7.3960396,9.29 L7.3960396,14.12 C7.3960396,14.53 7.72277228,14.86 8.13861386,14.86 C8.54455446,14.86 8.87128713,14.53 8.87128713,14.12 L8.87128713,14.12 L8.87128713,9.29 L10.4455446,10.89 C10.7326733,11.18 11.1980198,11.18 11.4851485,10.89 C11.7821782,10.6 11.7821782,10.13 11.4950495,9.84 L11.4950495,9.84 L8.65346535,6.96 C8.58415842,6.89 8.5049505,6.84 8.41584158,6.8 C8.32673267,6.76 8.23762376,6.74 8.13861386,6.74 Z M11.6452475,0.906 C11.6452475,0.475 12.1620792,0.261 12.4581188,0.572 C13.5294059,1.696 15.399703,3.661 16.4452475,4.759 C16.7333663,5.062 16.5214851,5.565 16.1046535,5.566 C15.2907921,5.569 14.3323762,5.566 13.6422772,5.559 C12.5472277,5.559 11.6452475,4.648 11.6452475,3.542 L11.6452475,3.542 Z"></path>
        </g>
    </g>
</svg>