<?xml version="1.0" encoding="UTF-8"?>
<svg width="24px"  height="24px"  viewBox="0 0 24 24" version="1.1" xmlns="http://www.w3.org/2000/svg" xmlns:xlink="http://www.w3.org/1999/xlink">
    <title>Iconly/Two-tone/Volume Up</title>
    <g id="Iconly/Two-tone/Volume-Up" stroke="#000000"  stroke-width="2"  fill="none" fill-rule="evenodd" stroke-linecap="round" stroke-linejoin="round">
        <g id="Volume-Up" transform="translate(2.500000, 5.000000)" stroke="#000000"  stroke-width="2" >
            <path d="M0.00185460474,7.00013683 C-0.00093541396,8.22978846 -0.0558057818,9.90699383 0.704939318,10.5339278 C1.41453408,11.1187074 1.91394742,10.968028 3.20944611,11.0630996 C4.5058748,11.159068 7.24195314,14.9700015 9.35120728,13.7645662 C10.4393146,12.9089224 10.5202251,11.1151198 10.5202251,7.00013683 C10.5202251,2.88515382 10.4393146,1.09135128 9.35120728,0.235707477 C7.24195314,-0.970624727 4.5058748,2.84120566 3.20944611,2.93717409 C1.91394742,3.03224563 1.41453408,2.88156621 0.704939318,3.46634584 C-0.0558057818,4.09327982 -0.00093541396,5.77048519 0.00185460474,7.00013683 Z" id="Stroke-1"></path>
            <path d="M17.0843021,0.903988042 C19.6343792,4.57500493 19.6427493,9.41737486 17.0843021,13.095567" id="Stroke-3" opacity="0.400000006"></path>
            <path d="M14.5812833,3.31441037 C15.8925921,5.60509621 15.8925921,8.40253126 14.5812833,10.6860419" id="Stroke-5" opacity="0.400000006"></path>
        </g>
    </g>
</svg>