<?xml version="1.0" encoding="UTF-8"?>
<svg width="24px"  height="24px"  viewBox="0 0 24 24" version="1.1" xmlns="http://www.w3.org/2000/svg" xmlns:xlink="http://www.w3.org/1999/xlink">
    <title>Iconly/Bulk/Shield Done</title>
    <g id="Iconly/Bulk/Shield-Done" stroke="none" stroke-width="1" fill="none" fill-rule="evenodd">
        <g id="Shield-Done" transform="translate(3.500038, 2.000000)" fill="#000000"  fill-rule="nonzero">
            <path d="M8.58649359,20 C8.462665,20 8.33883642,19.9715629 8.22708867,19.9137082 L4.62599225,18.0496082 C3.60415471,17.5200901 2.80480594,16.9258531 2.18062932,16.2335571 C0.814487908,14.7195275 0.0544018601,12.7759998 0.0423210222,10.7599085 L4.08562073e-14,4.12426184 C-0.00499559268,3.35842173 0.489312023,2.67102874 1.2282566,2.41215321 L7.84050185,0.106788142 C8.23312908,-0.0334361044 8.67105946,-0.0353972827 9.07073384,0.0999240185 L15.7081475,2.32684195 C16.451119,2.574931 16.9534805,3.25742105 16.9575075,4.02228057 L16.9997904,10.6628302 C17.012878,12.6759797 16.2789671,14.6273521 14.9339671,16.1580518 C14.3168377,16.8601536 13.5245361,17.4632159 12.5127659,18.0025399 L8.94388504,19.9088052 C8.83314403,19.9686211 8.71032218,19.9990194 8.58649359,20" id="Fill-1" opacity="0.400000006"></path>
            <path d="M7.81915904,12.3209186 C7.62586564,12.321889 7.43257223,12.2522672 7.28357523,12.1091011 L5.36674896,10.2655936 C5.07076843,9.97926153 5.06774822,9.51446228 5.36070854,9.22616907 C5.65366886,8.93689528 6.13186869,8.93395351 6.42885595,9.21930495 L7.80808494,10.5450615 L11.1756185,7.22478664 C11.4695855,6.93551285 11.9477854,6.93257108 12.2437659,7.21792252 C12.5407532,7.50425455 12.5437734,7.97003439 12.2508131,8.257347 L8.35172264,12.102237 C8.20473912,12.2473642 8.01245245,12.3199278 7.81915904,12.3209186" id="Fill-4"></path>
        </g>
    </g>
</svg>