<?xml version="1.0" encoding="UTF-8"?>
<svg width="24px"  height="24px"  viewBox="0 0 24 24" version="1.1" xmlns="http://www.w3.org/2000/svg" xmlns:xlink="http://www.w3.org/1999/xlink">
    <title>Iconly/Bold/Arrow - Left</title>
    <g id="Iconly/Bold/Arrow---Left" stroke="none" stroke-width="1" fill="none" fill-rule="evenodd">
        <g id="Arrow---Left" transform="translate(3.000000, 6.000000)" fill="#000000"  fill-rule="nonzero">
            <path d="M10.1634443,5.63929534 L10.1649677,5.99339086 C10.1649677,7.46502662 10.0787869,8.80668258 9.94897032,9.68129245 L9.83524442,10.2251698 C9.77197246,10.5132183 9.68879165,10.841197 9.60206543,11.0086286 C9.28461473,11.6210758 8.66389498,12 7.9995394,12 L7.94172192,12 C7.50863626,11.9856802 6.59882911,11.6056545 6.59882911,11.5924362 C5.13484685,10.9781691 2.31045764,9.12428166 1.00599741,7.80261156 L0.626928643,7.40581327 C0.527663907,7.29827061 0.41614041,7.17099321 0.346904886,7.07178263 C0.115634962,6.76555902 1.77635684e-15,6.38663484 1.77635684e-15,6.00771067 C1.77635684e-15,5.58472554 0.129816608,5.19148155 0.375268179,4.86983661 L0.764727545,4.44952982 L0.851989673,4.3598311 C2.03561169,3.0765559 5.12611968,0.978153112 6.74282736,0.335964751 L6.98691531,0.242421287 C7.28063902,0.13713971 7.69217949,0.0115659996 7.94172192,0 C8.25917262,0 8.56244167,0.0738020929 8.85152907,0.219203231 C9.2126156,0.422985129 9.50061211,0.744630072 9.65988291,1.12355425 C9.76133623,1.38571691 9.92060702,2.17330641 9.92060702,2.18762622 C10.0666192,2.98174013 10.1512831,4.23481793 10.1634443,5.63929534 Z M18,6.00044061 C18,6.8387002 17.3269172,7.51834037 16.4967455,7.51834037 L12.7975176,7.19118781 C12.1462528,7.19118781 11.6182592,6.6580503 11.6182592,6.00044061 C11.6182592,5.34172939 12.1462528,4.80969341 12.7975176,4.80969341 L16.4967455,4.48254085 C17.3269172,4.48254085 18,5.16218102 18,6.00044061 Z"></path>
        </g>
    </g>
</svg>