<?xml version="1.0" encoding="UTF-8"?>
<svg width="24px"  height="24px"  viewBox="0 0 24 24" version="1.1" xmlns="http://www.w3.org/2000/svg" xmlns:xlink="http://www.w3.org/1999/xlink">
    <title>Iconly/Two-tone/Discount</title>
    <g id="Iconly/Two-tone/Discount" stroke="#000000"  stroke-width="1.5"  fill="none" fill-rule="evenodd">
        <g id="Discount" transform="translate(2.000000, 2.000000)">
            <path d="M2.7943,5.0558 C2.7943,3.8068 3.8073,2.7938 5.0553,2.7938 L6.0843,2.7938 C6.6803,2.7938 7.2533,2.5578 7.6773,2.1368 L8.3963,1.4168 C9.2773,0.5318 10.7093,0.5278 11.5943,1.4088 L11.6033,1.4168 L12.3233,2.1368 C12.7463,2.5578 13.3193,2.7938 13.9163,2.7938 L14.9443,2.7938 C16.1933,2.7938 17.2063,3.8068 17.2063,5.0558 L17.2063,6.0828 C17.2063,6.6808 17.4423,7.2528 17.8633,7.6768 L18.5833,8.3968 C19.4683,9.2778 19.4733,10.7088 18.5923,11.5948 L18.5833,11.6038 L17.8633,12.3238 C17.4423,12.7458 17.2063,13.3198 17.2063,13.9158 L17.2063,14.9448 C17.2063,16.1938 16.1933,17.2058 14.9443,17.2058 L13.9163,17.2058 C13.3193,17.2058 12.7463,17.4428 12.3233,17.8638 L11.6033,18.5828 C10.7233,19.4688 9.2913,19.4728 8.4053,18.5918 C8.4023,18.5888 8.3993,18.5858 8.3963,18.5828 L7.6773,17.8638 C7.2533,17.4428 6.6803,17.2058 6.0843,17.2058 L5.0553,17.2058 C3.8073,17.2058 2.7943,16.1938 2.7943,14.9448 L2.7943,13.9158 C2.7943,13.3198 2.5573,12.7458 2.1363,12.3238 L1.4173,11.6038 C0.5313,10.7228 0.5273,9.2908 1.4083,8.4058 L1.4173,8.3968 L2.1363,7.6768 C2.5573,7.2528 2.7943,6.6808 2.7943,6.0828 L2.7943,5.0558" id="Stroke-1" stroke="#000000"  stroke-width="1.5"  stroke-linecap="round" stroke-linejoin="round"></path>
            <line x1="7.43" y1="12.5695" x2="12.57" y2="7.4295" id="Stroke-3" stroke="#000000"  stroke-width="1.5"  opacity="0.400000006" stroke-linecap="round" stroke-linejoin="round"></line>
            <path d="M12.5667,13.3224 C12.3667,13.3224 12.1767,13.2424 12.0367,13.1024 C11.9667,13.0324 11.9167,12.9424 11.8767,12.8524 C11.8367,12.7624 11.8167,12.6734 11.8167,12.5724 C11.8167,12.4724 11.8367,12.3724 11.8767,12.2824 C11.9167,12.1924 11.9667,12.1124 12.0367,12.0424 C12.3167,11.7624 12.8167,11.7624 13.0967,12.0424 C13.1667,12.1124 13.2267,12.1924 13.2667,12.2824 C13.2967,12.3724 13.3167,12.4724 13.3167,12.5724 C13.3167,12.6734 13.2967,12.7624 13.2667,12.8524 C13.2267,12.9424 13.1667,13.0324 13.0967,13.1024 C12.9567,13.2424 12.7667,13.3224 12.5667,13.3224" id="Fill-5" fill="#000000" fill-rule="nonzero" opacity="0.400000006"></path>
            <path d="M7.4266,8.1828 C7.3266,8.1828 7.2366,8.1618 7.1466,8.1218 C7.0566,8.0818 6.9666,8.0328 6.8966,7.9628 C6.8266,7.8828 6.7766,7.8028 6.7366,7.7128 C6.6966,7.6218 6.6766,7.5328 6.6766,7.4328 C6.6766,7.3318 6.6966,7.2328 6.7366,7.1428 C6.7766,7.0528 6.8266,6.9628 6.8966,6.9028 C7.1866,6.6218 7.6766,6.6218 7.9566,6.9028 C8.0966,7.0418 8.1766,7.2328 8.1766,7.4328 C8.1766,7.5328 8.1666,7.6218 8.1266,7.7128 C8.0866,7.8028 8.0266,7.8828 7.9566,7.9628 C7.8866,8.0328 7.8066,8.0818 7.7166,8.1218 C7.6266,8.1618 7.5266,8.1828 7.4266,8.1828" id="Fill-7" fill="#000000" fill-rule="nonzero" opacity="0.400000006"></path>
        </g>
    </g>
</svg>