<?xml version="1.0" encoding="UTF-8"?>
<svg width="24px"  height="24px"  viewBox="0 0 24 24" version="1.1" xmlns="http://www.w3.org/2000/svg" xmlns:xlink="http://www.w3.org/1999/xlink">
    <title>Iconly/Bold/Arrow - Up Square</title>
    <g id="Iconly/Bold/Arrow---Up-Square" stroke="none" stroke-width="1" fill="none" fill-rule="evenodd">
        <g id="Arrow---Up-Square" transform="translate(1.999900, 2.000000)" fill="#000000"  fill-rule="nonzero">
            <path d="M14.34,-8.52651283e-14 C17.729,-8.52651283e-14 20,2.38 20,5.92 L20,5.92 L20,14.09 C20,17.62 17.729,20 14.34,20 L14.34,20 L5.67,20 C2.28,20 3.61883129e-16,17.62 3.61883129e-16,14.09 L3.61883129e-16,14.09 L3.61883129e-16,5.92 C3.61883129e-16,2.38 2.28,-8.52651283e-14 5.67,-8.52651283e-14 L5.67,-8.52651283e-14 Z M10.53,5.38 C10.25,5.1 9.75,5.1 9.47,5.38 L9.47,5.38 L5.72,9.15 C5.43,9.44 5.43,9.92 5.72,10.21 C6.02,10.5 6.49,10.5 6.79,10.21 L6.79,10.21 L9.25,7.73 L9.25,14.08 C9.25,14.5 9.59,14.83 10,14.83 C10.42,14.83 10.75,14.5 10.75,14.08 L10.75,14.08 L10.75,7.73 L13.22,10.21 C13.36,10.35 13.56,10.43 13.75,10.43 C13.939,10.43 14.13,10.35 14.28,10.21 C14.57,9.92 14.57,9.44 14.28,9.15 L14.28,9.15 Z"></path>
        </g>
    </g>
</svg>