<?xml version="1.0" encoding="UTF-8"?>
<svg width="24px"  height="24px"  viewBox="0 0 24 24" version="1.1" xmlns="http://www.w3.org/2000/svg" xmlns:xlink="http://www.w3.org/1999/xlink">
    <title>Iconly/Bulk/More Circle</title>
    <g id="Iconly/Bulk/More-Circle" stroke="none" stroke-width="1" fill="none" fill-rule="evenodd">
        <g id="Group" transform="translate(2.000200, 1.999800)" fill="#000000"  fill-rule="nonzero">
            <path d="M20,10 C20,15.524 15.523,20 10,20 C4.477,20 0,15.524 0,10 C0,4.478 4.477,0 10,0 C15.523,0 20,4.478 20,10" id="Fill-1" opacity="0.400000006"></path>
            <path d="M5.5209,8.8037 C6.1819,8.8037 6.7189,9.3407 6.7189,9.9997 C6.7189,10.6597 6.1819,11.1977 5.5209,11.1977 C4.8599,11.1977 4.3229,10.6597 4.3229,9.9997 C4.3229,9.3407 4.8599,8.8037 5.5209,8.8037 Z M10,8.8037 C10.661,8.8037 11.198,9.3407 11.198,9.9997 C11.198,10.6597 10.661,11.1977 10,11.1977 C9.339,11.1977 8.802,10.6597 8.802,9.9997 C8.802,9.3407 9.339,8.8037 10,8.8037 Z M14.4794,8.8037 C15.1404,8.8037 15.6774,9.3407 15.6774,9.9997 C15.6774,10.6597 15.1404,11.1977 14.4794,11.1977 C13.8184,11.1977 13.2814,10.6597 13.2814,9.9997 C13.2814,9.3407 13.8184,8.8037 14.4794,8.8037 Z" id="Combined-Shape"></path>
        </g>
    </g>
</svg>