<?xml version="1.0" encoding="UTF-8"?>
<svg width="24px"  height="24px"  viewBox="0 0 24 24" version="1.1" xmlns="http://www.w3.org/2000/svg" xmlns:xlink="http://www.w3.org/1999/xlink">
    <title>Iconly/Bulk/Arrow - Left Square</title>
    <g id="Iconly/Bulk/Arrow---Left-Square" stroke="none" stroke-width="1" fill="none" fill-rule="evenodd">
        <g id="Arrow---Left-Square" transform="translate(12.000000, 12.000000) rotate(-270.000000) translate(-12.000000, -12.000000) translate(2.000000, 2.000000)" fill="#000000"  fill-rule="nonzero">
            <path d="M-0.0001,5.9159 L-0.0001,14.0839 C-0.0001,17.6229 2.2759,19.9999 5.6649,19.9999 L14.3349,19.9999 C17.7239,19.9999 19.9999,17.6229 19.9999,14.0839 L19.9999,5.9159 C19.9999,2.3779 17.7229,-0.0001 14.3339,-0.0001 L5.6649,-0.0001 C2.2759,-0.0001 -0.0001,2.3779 -0.0001,5.9159" id="Fill-1" opacity="0.400000006"></path>
            <path d="M5.7206,10.8554 L9.4686,14.6204 C9.7506,14.9034 10.2496,14.9034 10.5326,14.6204 L14.2806,10.8554 C14.5726,10.5614 14.5716,10.0864 14.2776,9.7944 C13.9836,9.5024 13.5096,9.5024 13.2166,9.7964 L10.7496,12.2734 L10.7496,5.9184 C10.7496,5.5034 10.4136,5.1684 9.9996,5.1684 C9.5856,5.1684 9.2496,5.5034 9.2496,5.9184 L9.2496,12.2734 L6.7836,9.7964 C6.6366,9.6494 6.4446,9.5764 6.2516,9.5764 C6.0606,9.5764 5.8686,9.6494 5.7226,9.7944 C5.4296,10.0864 5.4286,10.5614 5.7206,10.8554" id="Fill-4"></path>
        </g>
    </g>
</svg>