<?xml version="1.0" encoding="UTF-8"?>
<svg width="24px"  height="24px"  viewBox="0 0 24 24" version="1.1" xmlns="http://www.w3.org/2000/svg" xmlns:xlink="http://www.w3.org/1999/xlink">
    <title>Iconly/Bulk/Ticket Star</title>
    <g id="Iconly/Bulk/Ticket-Star" stroke="none" stroke-width="1" fill="none" fill-rule="evenodd">
        <g id="Ticket-Star" transform="translate(2.000000, 3.000000)" fill="#000000"  fill-rule="nonzero">
            <path d="M19.25,10.4763845 C18.429,10.4763845 17.761,9.81448861 17.761,9.00099086 C17.761,8.18650226 18.429,7.52460641 19.25,7.52460641 C19.449,7.52460641 19.64,7.44632831 19.78,7.30760762 C19.921,7.16789607 20,6.97864142 20,6.78145987 L19.999,4.10415061 C19.999,1.84102169 18.14,0 15.856,0 L4.144,0 C1.86,0 0.001,1.84102169 0.001,4.10415061 L0,6.86766487 C0,7.06484642 0.079,7.25410107 0.22,7.39381262 C0.36,7.5325333 0.551,7.61081141 0.75,7.61081141 C1.599,7.61081141 2.239,8.20830122 2.239,9.00099086 C2.239,9.81448861 1.571,10.4763845 0.75,10.4763845 C0.336,10.4763845 0,10.8093141 0,11.219531 L0,13.8948585 C0,16.1579874 1.858,18 4.143,18 L15.857,18 C18.142,18 20,16.1579874 20,13.8948585 L20,11.219531 C20,10.8093141 19.664,10.4763845 19.25,10.4763845" id="Fill-1" opacity="0.400000006"></path>
            <path d="M13.4305,8.5886 L12.2515,9.7366 L12.5305,11.3596 C12.5785,11.6406 12.4655,11.9176 12.2345,12.0836 C12.0055,12.2516 11.7065,12.2726 11.4545,12.1386 L9.9995,11.3736 L8.5415,12.1396 C8.4335,12.1966 8.3155,12.2266 8.1985,12.2266 C8.0455,12.2266 7.8945,12.1786 7.7645,12.0846 C7.5345,11.9176 7.4215,11.6406 7.4695,11.3596 L7.7475,9.7366 L6.5685,8.5886 C6.3645,8.3906 6.2935,8.0996 6.3815,7.8286 C6.4705,7.5586 6.7005,7.3666 6.9815,7.3266 L8.6075,7.0896 L9.3365,5.6126 C9.4635,5.3586 9.7175,5.2006 9.9995,5.2006 L10.0015,5.2006 C10.2845,5.2016 10.5385,5.3596 10.6635,5.6136 L11.3925,7.0896 L13.0215,7.3276 C13.2995,7.3666 13.5295,7.5586 13.6175,7.8286 C13.7065,8.0996 13.6355,8.3906 13.4305,8.5886" id="Fill-4"></path>
        </g>
    </g>
</svg>