<?xml version="1.0" encoding="UTF-8"?>
<svg width="24px"  height="24px"  viewBox="0 0 24 24" version="1.1" xmlns="http://www.w3.org/2000/svg" xmlns:xlink="http://www.w3.org/1999/xlink">
    <title>Iconly/Bulk/Video</title>
    <g id="Iconly/Bulk/Video" stroke="none" stroke-width="1" fill="none" fill-rule="evenodd">
        <g id="Video" transform="translate(2.000000, 5.000000)" fill="#000000"  fill-rule="nonzero">
            <path d="M19.3309933,2.44253807 C18.9119891,2.17857868 18.396984,2.15522843 17.9579796,2.37857868 L16.4759648,3.12680203 C15.9279593,3.40294416 15.5879559,3.9613198 15.5879559,4.58263959 L15.5879559,10.4161421 C15.5879559,11.0374619 15.9279593,11.5948223 16.4759648,11.8729949 L17.9569796,12.620203 C18.1579816,12.7237563 18.3729837,12.7735025 18.5879859,12.7735025 C18.8459885,12.7735025 19.101991,12.7004061 19.3309933,12.5572589 C19.7499975,12.2943147 20,11.8384772 20,11.3389848 L20,3.66182741 C20,3.16233503 19.7499975,2.70649746 19.3309933,2.44253807" id="Fill-1" opacity="0.400000006"></path>
            <path d="M9.90509905,15 L4.11304113,15 C1.69101691,15 0,13.3299492 0,10.9390863 L0,4.06091371 C0,1.66903553 1.69101691,8.8817842e-16 4.11304113,8.8817842e-16 L9.90509905,8.8817842e-16 C12.3271233,8.8817842e-16 14.0181402,1.66903553 14.0181402,4.06091371 L14.0181402,10.9390863 C14.0181402,13.3299492 12.3271233,15 9.90509905,15" id="Fill-3"></path>
        </g>
    </g>
</svg>