<?xml version="1.0" encoding="UTF-8"?>
<svg width="24px"  height="24px"  viewBox="0 0 24 24" version="1.1" xmlns="http://www.w3.org/2000/svg" xmlns:xlink="http://www.w3.org/1999/xlink">
    <title>Iconly/Bold/Location</title>
    <g id="Iconly/Bold/Location" stroke="none" stroke-width="1" fill="none" fill-rule="evenodd">
        <g id="Location" transform="translate(3.500000, 2.000000)" fill="#000000"  fill-rule="nonzero">
            <path d="M8.49344564,0 C13.1561184,0 17,3.71789185 17,8.31775805 C17,10.6356906 16.1570081,12.787628 14.7695,14.611575 C13.2388042,16.6235165 11.3521561,18.3764655 9.22854262,19.7524254 C8.74251142,20.0704162 8.3038733,20.0944155 7.77044902,19.7524254 C5.63473516,18.3764655 3.74808708,16.6235165 2.23050003,14.611575 C0.84198351,12.787628 0,10.6356906 0,8.31775805 C0,3.71789185 3.84388161,0 8.49344564,0 Z M8.49344564,5.77683196 C6.95165787,5.77683196 5.6942286,7.04779499 5.6942286,8.57675052 C5.6942286,10.1177057 6.95165787,11.3296704 8.49344564,11.3296704 C10.0362418,11.3296704 11.3057714,10.1177057 11.3057714,8.57675052 C11.3057714,7.04779499 10.0362418,5.77683196 8.49344564,5.77683196 Z"></path>
        </g>
    </g>
</svg>