<?xml version="1.0" encoding="UTF-8"?>
<svg width="24px"  height="24px"  viewBox="0 0 24 24" version="1.1" xmlns="http://www.w3.org/2000/svg" xmlns:xlink="http://www.w3.org/1999/xlink">
    <title>Iconly/Bold/Shield Done</title>
    <g id="Iconly/Bold/Shield-Done" stroke="none" stroke-width="1" fill="none" fill-rule="evenodd">
        <g id="Shield-Done" transform="translate(3.500000, 2.000000)" fill="#000000"  fill-rule="nonzero">
            <path d="M9.07075879,0.0995641968 L15.708183,2.32651721 C16.4511557,2.57461017 16.953518,3.25711096 16.9575449,4.02198254 L16.9998279,10.6626368 C17.0129155,12.675818 16.2790035,14.6282017 14.9350081,16.1579449 C14.3168709,16.8600578 13.5245681,17.4631296 12.5127963,18.0024621 L8.94491652,19.909738 C8.8331686,19.9685743 8.71034655,19.998973 8.58651777,19.9999774 C8.46268898,20.0009343 8.3388602,19.9715161 8.22811901,19.9136604 L4.62701688,18.0505117 C3.60417099,17.5200047 2.80482095,16.9257583 2.18064334,16.2334514 C0.814499758,14.719398 0.055419243,12.7758397 0.0423316479,10.7597166 L2.41764636e-05,4.12396542 C-0.00397830397,3.35811323 0.489323357,2.67070942 1.22826911,2.41281041 L7.84052485,0.106428429 C8.2331527,-0.0328174223 8.67108377,-0.035759236 9.07075879,0.0995641968 Z M12.2448026,7.21865543 C11.9478149,6.93329949 11.4696143,6.9352607 11.1766535,7.22453905 L11.1766535,7.22453905 L7.80810788,10.5448662 L6.42887671,9.21908878 C6.13188897,8.93373285 5.65469512,8.93667466 5.3607276,9.22595301 C5.06776682,9.51523137 5.07078703,9.98003794 5.36777476,10.2653939 L5.36777476,10.2653939 L7.28359734,12.1089305 C7.43259457,12.2520988 7.62588829,12.3227023 7.819182,12.3207808 C8.01247571,12.3197605 8.20476269,12.2471957 8.35174645,12.1020663 L8.35174645,12.1020663 L12.250843,8.25809629 C12.5438038,7.96881793 12.5407836,7.50401136 12.2448026,7.21865543 Z"></path>
        </g>
    </g>
</svg>