<?xml version="1.0" encoding="UTF-8"?>
<svg width="24px"  height="24px"  viewBox="0 0 24 24" version="1.1" xmlns="http://www.w3.org/2000/svg" xmlns:xlink="http://www.w3.org/1999/xlink">
    <title>Iconly/Bulk/Close Square</title>
    <g id="Iconly/Bulk/Close-Square" stroke="none" stroke-width="1" fill="none" fill-rule="evenodd">
        <g id="Group" transform="translate(1.999900, 1.999800)" fill="#000000"  fill-rule="nonzero">
            <path d="M14.34,0 L5.67,0 C2.28,0 0,2.38 0,5.92 L0,14.09 C0,17.62 2.28,20 5.67,20 L14.34,20 C17.73,20 20,17.62 20,14.09 L20,5.92 C20,2.38 17.73,0 14.34,0" id="Fill-1" opacity="0.400000006"></path>
            <path d="M13.0157,11.7705 L11.2367,9.9925 L13.0147,8.2145 C13.3567,7.8735 13.3567,7.3185 13.0147,6.9775 C12.6727,6.6335 12.1197,6.6345 11.7777,6.9765 L9.9987,8.7545 L8.2197,6.9745 C7.8777,6.6325 7.3237,6.6345 6.9817,6.9745 C6.6407,7.3165 6.6407,7.8715 6.9817,8.2125 L8.7617,9.9925 L6.9857,11.7675 C6.6437,12.1095 6.6437,12.6645 6.9857,13.0045 C7.1567,13.1765 7.3797,13.2615 7.6037,13.2615 C7.8287,13.2615 8.0517,13.1765 8.2227,13.0055 L9.9987,11.2295 L11.7787,13.0085 C11.9497,13.1795 12.1727,13.2645 12.3967,13.2645 C12.6207,13.2645 12.8447,13.1785 13.0157,13.0085 C13.3577,12.6665 13.3577,12.1125 13.0157,11.7705" id="Fill-4"></path>
        </g>
    </g>
</svg>