<?xml version="1.0" encoding="UTF-8"?>
<svg width="24px"  height="24px"  viewBox="0 0 24 24" version="1.1" xmlns="http://www.w3.org/2000/svg" xmlns:xlink="http://www.w3.org/1999/xlink">
    <title>Iconly/Bold/Notification</title>
    <g id="Iconly/Bold/Notification" stroke="none" stroke-width="1" fill="none" fill-rule="evenodd">
        <g id="Notification" transform="translate(3.500000, 2.000000)" fill="#000000"  fill-rule="nonzero">
            <path d="M6.46318036,17.2279111 C6.96309266,17.1221591 10.009278,17.1221591 10.5091903,17.2279111 C10.9365507,17.326613 11.3986963,17.5572531 11.3986963,18.0608342 C11.3738498,18.5402433 11.092587,18.9652657 10.7039871,19.2351852 C10.2000994,19.6279784 9.60875183,19.8767475 8.99057001,19.9663849 C8.64868167,20.0107 8.3127565,20.0117072 7.9827945,19.9663849 C7.36361882,19.8767475 6.77227127,19.6279784 6.26937738,19.234178 C5.87978369,18.9652657 5.5985209,18.5402433 5.57367436,18.0608342 C5.57367436,17.5572531 6.03581994,17.326613 6.46318036,17.2279111 Z M8.5452207,-1.77635684e-15 C10.6253727,-1.77635684e-15 12.7502485,0.987018886 14.0124525,2.62466451 C14.8313943,3.67916326 15.207074,4.73265484 15.207074,6.37030046 L15.207074,6.37030046 L15.207074,6.79633004 C15.207074,8.05226122 15.5390237,8.79252538 16.2695118,9.64559171 C16.8230927,10.2740609 17,11.0807977 17,11.9560216 C17,12.8302384 16.712774,13.66014 16.1373283,14.3339314 C15.3839813,15.1416754 14.3215434,15.6573425 13.2372406,15.7469799 C11.6659456,15.8809324 10.0936568,15.9937346 8.50049693,15.9937346 C6.90634317,15.9937346 5.33504823,15.9262547 3.76375329,15.7469799 C2.67845659,15.6573425 1.61601871,15.1416754 0.863665595,14.3339314 C0.288219819,13.66014 8.8817842e-15,12.8302384 8.8817842e-15,11.9560216 C8.8817842e-15,11.0807977 0.177901198,10.2740609 0.730488161,9.64559171 C1.48383514,8.79252538 1.79391991,8.05226122 1.79391991,6.79633004 L1.79391991,6.79633004 L1.79391991,6.37030046 C1.79391991,4.68833971 2.21332944,3.58851866 3.07699503,2.51186235 C4.36106402,0.94169659 6.41935107,-1.77635684e-15 8.45577317,-1.77635684e-15 L8.45577317,-1.77635684e-15 Z"></path>
        </g>
    </g>
</svg>