<?xml version="1.0" encoding="UTF-8"?>
<svg width="24px"  height="24px"  viewBox="0 0 24 24" version="1.1" xmlns="http://www.w3.org/2000/svg" xmlns:xlink="http://www.w3.org/1999/xlink">
    <title>Iconly/Bulk/Filter</title>
    <g id="Iconly/Bulk/Filter" stroke="none" stroke-width="1" fill="none" fill-rule="evenodd">
        <g id="Filter" transform="translate(2.000000, 3.000000)" fill="#000000"  fill-rule="nonzero">
            <path d="M8.08328843,12.9579529 L1.5077694,12.9579529 C0.675551802,12.9579529 5.23038403e-14,13.6216572 5.23038403e-14,14.4392797 C5.23038403e-14,15.2558107 0.675551802,15.9206066 1.5077694,15.9206066 L8.08328843,15.9206066 C8.91550602,15.9206066 9.59105783,15.2558107 9.59105783,14.4392797 C9.59105783,13.6216572 8.91550602,12.9579529 8.08328843,12.9579529" id="Fill-1" opacity="0.400000006"></path>
            <path d="M20,3.37856047 C20,2.56202954 19.3244482,1.89832525 18.4933417,1.89832525 L11.9178227,1.89832525 C11.0856051,1.89832525 10.4100533,2.56202954 10.4100533,3.37856047 C10.4100533,4.19618302 11.0856051,4.8598873 11.9178227,4.8598873 L18.4933417,4.8598873 C19.3244482,4.8598873 20,4.19618302 20,3.37856047" id="Fill-4" opacity="0.400000006"></path>
            <path d="M6.87773957,3.37856047 C6.87773957,5.24522877 5.33885923,6.75821256 3.43886978,6.75821256 C1.53999144,6.75821256 4.39154885e-14,5.24522877 4.39154885e-14,3.37856047 C4.39154885e-14,1.51298378 1.53999144,-2.51650552e-14 3.43886978,-2.51650552e-14 C5.33885923,-2.51650552e-14 6.87773957,1.51298378 6.87773957,3.37856047" id="Fill-6"></path>
            <path d="M20,14.3992173 C20,16.264794 18.4611197,17.7777778 16.5611302,17.7777778 C14.6622519,17.7777778 13.1222604,16.264794 13.1222604,14.3992173 C13.1222604,12.532549 14.6622519,11.0195652 16.5611302,11.0195652 C18.4611197,11.0195652 20,12.532549 20,14.3992173" id="Fill-9"></path>
        </g>
    </g>
</svg>