<?xml version="1.0" encoding="UTF-8"?>
<svg width="24px"  height="24px"  viewBox="0 0 24 24" version="1.1" xmlns="http://www.w3.org/2000/svg" xmlns:xlink="http://www.w3.org/1999/xlink">
    <title>Iconly/Light/Star</title>
    <g id="Iconly/Light/Star" stroke="#000000"  stroke-width="1.5"  fill="none" fill-rule="evenodd" stroke-linecap="round" stroke-linejoin="round">
        <g id="Star" transform="translate(3.000000, 3.500000)" stroke="#000000"  stroke-width="1.5" >
            <path d="M10.1042564,0.67700614 L11.9316681,4.32775597 C12.1107648,4.68615589 12.4564632,4.93467388 12.8573484,4.99218218 L16.9453359,5.58061527 C17.9553583,5.72643988 18.3572847,6.95054503 17.6263201,7.65194084 L14.6701824,10.4924399 C14.3796708,10.7717659 14.2474307,11.173297 14.3161539,11.5676396 L15.0137982,15.5778163 C15.1856062,16.5698344 14.1297683,17.3266846 13.2269958,16.8573759 L9.57321374,14.9626829 C9.21502023,14.7768079 8.78602103,14.7768079 8.42678626,14.9626829 L4.77300425,16.8573759 C3.87023166,17.3266846 2.81439382,16.5698344 2.98724301,15.5778163 L3.68384608,11.5676396 C3.75256926,11.173297 3.62032921,10.7717659 3.32981762,10.4924399 L0.373679928,7.65194084 C-0.357284727,6.95054503 0.0446417073,5.72643988 1.05466409,5.58061527 L5.14265161,4.99218218 C5.54353679,4.93467388 5.89027643,4.68615589 6.06937319,4.32775597 L7.89574356,0.67700614 C8.34765049,-0.225668713 9.65234951,-0.225668713 10.1042564,0.67700614 Z" id="Stroke-1"></path>
        </g>
    </g>
</svg>