<?xml version="1.0" encoding="UTF-8"?>
<svg width="24px"  height="24px"  viewBox="0 0 24 24" version="1.1" xmlns="http://www.w3.org/2000/svg" xmlns:xlink="http://www.w3.org/1999/xlink">
    <title>Iconly/Bulk/Play</title>
    <g id="Iconly/Bulk/Play" stroke="none" stroke-width="1" fill="none" fill-rule="evenodd">
        <g id="Play" transform="translate(2.000000, 2.000000)" fill="#000000"  fill-rule="nonzero">
            <path d="M20,10.0048239 C20,15.5137482 15.511583,20 10,20 C4.48841699,20 0,15.5137482 0,10.0048239 C0,4.48625181 4.48841699,0 10,0 C15.511583,0 20,4.48625181 20,10.0048239" id="Fill-1" opacity="0.400000006"></path>
            <path d="M14,10.0048603 C14,10.2575942 13.9204545,10.5113001 13.7613636,10.7144593 C13.7315341,10.7543135 13.5923295,10.9185905 13.4829545,11.0255164 L13.4232955,11.0838396 C12.5880682,11.9693803 10.5099432,13.3010936 9.45596591,13.727825 C9.45596591,13.7375456 8.82954545,13.9912515 8.53125,14 L8.49147727,14 C8.03409091,14 7.60653409,13.7482382 7.38778409,13.3399757 C7.26846591,13.1154313 7.15909091,12.4641555 7.14914773,12.455407 C7.05965909,11.8712029 7,10.9769137 7,9.99513973 C7,8.96573512 7.05965909,8.03159174 7.16903409,7.45808019 C7.16903409,7.44835966 7.27840909,6.92345079 7.34801136,6.74848117 C7.45738636,6.49671932 7.65625,6.2818955 7.90482955,6.14580802 C8.10369318,6.04957473 8.3125,6 8.53125,6 C8.75994318,6.01069259 9.1875,6.15552855 9.35653409,6.2235723 C10.4701705,6.65127582 12.5980114,8.05103281 13.4133523,8.90643985 C13.5525568,9.04252734 13.7017045,9.20874848 13.7414773,9.24665857 C13.9105114,9.46051033 14,9.72296476 14,10.0048603" id="Fill-4"></path>
        </g>
    </g>
</svg>