<?xml version="1.0" encoding="UTF-8"?>
<svg width="24px"  height="24px"  viewBox="0 0 24 24" version="1.1" xmlns="http://www.w3.org/2000/svg" xmlns:xlink="http://www.w3.org/1999/xlink">
    <title>Iconly/Bold/Volume Down</title>
    <g id="Iconly/Bold/Volume-Down" stroke="none" stroke-width="1" fill="none" fill-rule="evenodd">
        <g id="Volume-Down" transform="translate(3.000000, 3.000000)" fill="#000000"  fill-rule="nonzero">
            <path d="M9.76905248,9.50978128e-06 C10.8136289,9.50978128e-06 11.7878671,0.751539242 12.1395586,1.95611866 C12.2686872,2.45963716 12.3211785,2.96422925 12.3715701,3.45057014 L12.3715701,3.45057014 L12.4188123,3.89289342 C12.5993823,5.36909369 12.5993823,12.621263 12.4188123,14.1081993 L12.4188123,14.1081993 L12.3715701,14.5666266 C12.3264276,15.0293483 12.2802353,15.5081739 12.1469074,16.0192076 C11.7952159,17.2205663 10.8577216,18.0000095 9.79319847,18.0000095 C9.75960405,18.0000095 9.72600963,18.0000095 9.68821591,17.9989264 C9.10031358,17.9989264 8.4609698,17.6381967 8.09877997,17.3236319 L8.09877997,17.3236319 L4.56821654,14.3830409 L2.75516775,14.3830409 C1.35575025,14.3830409 0.331120482,13.370636 0.145301354,11.8042533 C-0.0688630653,10.2378706 -0.026870042,7.55064929 0.145301354,6.12705543 C0.347917691,4.64441356 1.42083944,3.61697817 2.75516775,3.61697817 L2.75516775,3.61697817 L4.56821654,3.61697817 L8.03159114,0.719331237 C8.44942172,0.35645437 9.18639928,-0.00212809548 9.76905248,9.50978128e-06 Z M15.1476239,3.2583957 C15.5665043,2.96530285 16.1397091,3.07051567 16.4263115,3.49458774 C17.440443,4.98796562 18,6.94299158 18,9.00000955 C18,11.0570275 17.440443,13.0120535 16.4263115,14.5054314 C16.2541401,14.7577274 15.9727868,14.909105 15.6714869,14.909105 C15.4835681,14.909105 15.3019483,14.8511306 15.1476239,14.7416234 C14.731893,14.4453097 14.6290101,13.859124 14.9177121,13.4339784 C15.7208287,12.2508709 16.1628052,10.6758995 16.1628052,9.00000955 C16.1628052,7.32304605 15.7208287,5.74914816 14.9177121,4.56604074 C14.6290101,4.14089506 14.731893,3.55470936 15.1476239,3.2583957 Z"></path>
        </g>
    </g>
</svg>