<?xml version="1.0" encoding="UTF-8"?>
<svg width="24px"  height="24px"  viewBox="0 0 24 24" version="1.1" xmlns="http://www.w3.org/2000/svg" xmlns:xlink="http://www.w3.org/1999/xlink">
    <title>Iconly/Bold/Arrow - Down</title>
    <g id="Iconly/Bold/Arrow---Down" stroke="none" stroke-width="1" fill="none" fill-rule="evenodd">
        <g id="Arrow---Down" transform="translate(6.000000, 3.000000)" fill="#000000"  fill-rule="nonzero">
            <path d="M5.99339086,7.8350323 C7.46502662,7.8350323 8.80668258,7.92121308 9.68129245,8.05102968 C9.6834955,8.05305563 9.70532366,8.05804259 9.74210106,8.06560889 L9.99272582,8.11577976 C10.312696,8.18078507 10.7933594,8.28642943 11.0086286,8.39793457 C11.6210758,8.71538527 12,9.33610502 12,10.0004606 L12,10.0582781 C11.9856802,10.4913637 11.6056545,11.4011709 11.5924362,11.4011709 C10.9502478,12.9316978 8.95318524,15.9491158 7.62584909,17.162192 L7.58042219,17.2070489 C7.48044795,17.3048434 7.23713359,17.5377026 7.07178263,17.6530951 C6.76555902,17.884365 6.38663484,18 6.00771067,18 C5.58472554,18 5.19148155,17.8701834 4.86983661,17.6247318 C4.81145585,17.5669143 4.56471452,17.350917 4.3598311,17.1480103 C3.0765559,15.9643883 0.978153112,12.8738803 0.335964751,11.2571726 C0.23352304,11.0117211 0.0154213328,10.3910013 1.27897692e-13,10.0582781 C1.27897692e-13,9.74082738 0.0738020929,9.43755833 0.219203231,9.14847093 C0.422985129,8.7873844 0.744630072,8.49938789 1.12355425,8.34011709 C1.38571691,8.23866377 2.17330641,8.07939298 2.18762622,8.07939298 C3.04791628,7.92121308 4.44685148,7.8350323 5.99339086,7.8350323 Z M6.00044061,1.37667655e-14 C6.8387002,1.37667655e-14 7.51834037,0.673082751 7.51834037,1.50325451 L7.19118781,5.20248239 C7.19118781,5.85374723 6.6580503,6.38174083 6.00044061,6.38174083 C5.34172939,6.38174083 4.80969341,5.85374723 4.80969341,5.20248239 L4.48254085,1.50325451 C4.48254085,0.673082751 5.16218102,1.37667655e-14 6.00044061,1.37667655e-14 Z"></path>
        </g>
    </g>
</svg>